<?xml version="1.0" standalone="no"?>
<!DOCTYPE svg PUBLIC "-//W3C//DTD SVG 1.1//EN" "http://www.w3.org/Graphics/SVG/1.1/DTD/svg11.dtd" >
<svg xmlns="http://www.w3.org/2000/svg">
<metadata>
Created by FontPrep 20130207 at Mon Apr 10 17:39:30 2017
 By Rudy GUILLERM
(c)2008 Schwartzco Inc.
</metadata>
<defs>
<font id="989ec862db1f01c1df5be8a2b4cfd1a2" horiz-adv-x='1024' >
  <font-face 
    font-family="Stag-Bold"
    font-weight="700"
    font-stretch="normal"
    units-per-em="2048"
    panose-1="2 0 6 3 6 0 0 2 0 4"
    ascent="1638"
    descent="-410"
    x-height="1081"
    cap-height="1434"
    bbox="-401 -485 2585 1915"
    underline-thickness="40"
    underline-position="-231"
    unicode-range="U+0020-FB04"
  />
<missing-glyph horiz-adv-x="518" 
 />
    <glyph glyph-name="f_f" unicode="ff" horiz-adv-x="1382" 
d="M8 813v268h107v39q0 324 383 324q121 0 209 -31v-223h-41q-53 0 -78 -18t-25 -68v-23h191v47q0 176 100 255t299 79q123 0 219 -30v-234h-53q-69 0 -93 -17t-24 -69v-31h162v-268h-162v-510q0 -15 18 -33t31 -18h70v-252h-631v252h64v561h-191v-561h62v-252h-611v252h52
q14 0 31 17t18 34v510h-107z" />
    <glyph glyph-name="f_i" unicode="fi" horiz-adv-x="1318" 
d="M977 1124q-93 0 -151 52t-58 140q0 87 58 140t150 53t150 -54t58 -140q0 -87 -58 -139t-149 -52zM690 0v252h64v561h-191v-561h62v-252h-611v252h52q14 0 31 17t18 34v510h-107v268h107v47q0 178 99 256t300 78q115 0 211 -30v-234h-47q-66 0 -90 -17t-25 -69v-31h576
q63 0 63 -104v-674q0 -15 18 -33t31 -18h54v-252h-615z" />
    <glyph glyph-name="f_l" unicode="fl" horiz-adv-x="1327" 
d="M8 813v268h107v47q0 176 106 255t316 79q127 0 237 -28h363q66 0 65 -91v-1040q0 -15 18 -33t31 -18h62v-252h-623v252h64v942h-76q-66 0 -90 -17t-25 -65v-31h137v-268h-137v-561h62v-252h-611v252h52q14 0 31 17t18 34v510h-107z" />
    <glyph glyph-name="f_f_i" unicode="ffi" horiz-adv-x="1957" 
d="M1616 1124q-92 0 -150 52t-59 140q0 87 58 140q59 53 151 53t150 -54t58 -140q0 -87 -58 -139t-150 -52zM1331 0v252h62v561h-191v-561h62v-252h-574v252h64v561h-191v-561h62v-252h-611v252h52q14 0 31 17t18 34v510h-107v268h107v39q0 324 383 324q121 0 209 -31v-223
h-41q-53 0 -78 -18t-25 -68v-23h191v47q0 178 99 256t300 78q115 0 211 -30v-234h-45q-69 0 -93 -17t-24 -69v-31h576q63 0 63 -104v-674q-1 -15 17 -33t32 -18h56v-252h-615z" />
    <glyph glyph-name="f_f_l" unicode="ffl" horiz-adv-x="1966" 
d="M8 813v268h107v39q0 324 383 324q121 0 209 -31v-223h-41q-53 0 -78 -18t-25 -68v-23h191v47q0 176 106 255t316 79q127 0 237 -28h363q66 0 65 -91v-1040q-1 -15 17 -33t32 -18h62v-252h-621v252h62v942h-74q-65 0 -91 -17t-26 -65v-31h137v-268h-137v-561h62v-252h-574
v252h64v561h-191v-561h62v-252h-611v252h52q14 0 31 17t18 34v510h-107z" />
    <glyph glyph-name="f_b" unicode="fb" horiz-adv-x="1939" 
d="M1303 780q-35 0 -101 -16v-490q37 -25 101 -24q166 0 165 282q0 140 -44 194t-121 54zM1466 -20q-205 0 -307 135q-61 -115 -104 -115h-301v1194h-76q-66 0 -90 -17t-25 -65v-31h137v-268h-137v-561h117v-252h-666v252h52q14 0 31 17t18 34v510h-107v268h107v47
q0 176 106 255t316 79q127 0 237 -28h363q66 0 65 -91v-391q134 150 314 150t294 -123t113 -413q0 -290 -126 -438t-331 -148z" />
    <glyph glyph-name="f_h" unicode="fh" horiz-adv-x="1959" 
d="M1415 0v672q0 56 -29 76t-83 20t-101 -6v-510h119v-252h-631v252h64v942h-76q-66 0 -90 -17t-25 -65v-31h137v-268h-137v-561h62v-252h-611v252h52q14 0 31 17t18 34v510h-107v268h107v47q0 176 106 255t316 79q127 0 237 -28h363q66 0 65 -91v-405q160 164 383 164
q121 0 200 -60t79 -198v-541q0 -15 17 -33t32 -18h33v-252h-531z" />
    <glyph glyph-name="f_j" unicode="fj" horiz-adv-x="1261" 
d="M977 1124q-93 0 -151 52t-58 140q0 87 58 140t150 53t151 -54t59 -140q0 -87 -58 -139t-151 -52zM801 -348q-113 0 -219 29v227h53q71 0 95 22t24 76v807h-191v-561h107v-252h-656v252h52q14 0 31 17t18 34v510h-107v268h107v47q0 178 99 256t300 78q115 0 211 -30v-234
h-45q-68 0 -92 -17t-25 -69v-31h576q29 1 46 -29t17 -75v-991q0 -180 -99 -257t-302 -77z" />
    <glyph glyph-name="f_k" unicode="fk" horiz-adv-x="1937" 
d="M1384 0v246l-102 157l-80 -57v-94h90v-252h-602v252h64v942h-76q-66 0 -90 -17t-25 -65v-31h137v-268h-137v-561h62v-252h-611v252h52q14 0 31 17t18 34v510h-107v268h107v47q0 176 106 255t316 79q127 0 237 -28h363q66 0 65 -91v-720l146 120q37 27 31 56q-5 29 -44 28
h-37v254h621v-268h-39q-33 0 -65 -29l-175 -151l199 -328q29 -53 59 -53h27v-252h-541z" />
    <glyph glyph-name="f_t" unicode="ft" horiz-adv-x="1398" 
d="M8 813v268h107v47q0 334 383 334q117 0 204 -30v-234h-36q-53 0 -78 -17t-25 -69v-31h189v281h446v-281h180v-268h-180v-440q0 -69 29 -95t102 -26h55v-244q-115 -31 -237 -31q-195 0 -295 71t-100 249v516h-189v-561h113v-252h-662v252h52q14 0 31 17t18 34v510h-107z
" />
    <glyph glyph-name="f_f_b" unicode="ffb" horiz-adv-x="2578" 
d="M1942 780q-35 0 -101 -16v-490q37 -25 101 -24q166 0 165 282q1 140 -43 194t-122 54zM2106 -20q-206 0 -308 135q-61 -115 -104 -115h-301v1194h-74q-65 0 -91 -17t-26 -65v-31h137v-268h-137v-561h117v-252h-629v252h64v561h-191v-561h62v-252h-611v252h52q14 0 31 17
t18 34v510h-107v268h107v39q0 324 383 324q121 0 209 -31v-223h-41q-53 0 -78 -18t-25 -68v-23h191v47q0 176 106 255t316 79q127 0 237 -28h363q66 0 65 -91v-391q135 150 315 150t294 -123q112 -123 112 -413t-125 -438t-331 -148z" />
    <glyph glyph-name="f_f_h" unicode="ffh" horiz-adv-x="2598" 
d="M2054 0v672q0 56 -29 76t-83 20t-101 -6v-510h119v-252h-629v252h62v942h-74q-65 0 -91 -17t-26 -65v-31h137v-268h-137v-561h62v-252h-574v252h64v561h-191v-561h62v-252h-611v252h52q14 0 31 17t18 34v510h-107v268h107v39q0 324 383 324q121 0 209 -31v-223h-41
q-53 0 -78 -18t-25 -68v-23h191v47q0 176 106 255t316 79q127 0 237 -28h363q66 0 65 -91v-405q160 164 383 164q123 0 201 -60t78 -198v-541q0 -15 17 -33t32 -18h33v-252h-531z" />
    <glyph glyph-name="f_f_j" unicode="ffj" horiz-adv-x="1900" 
d="M1616 1124q-92 0 -150 52t-59 140q0 87 58 140q59 53 151 53t150 -54t58 -140q0 -87 -58 -139t-150 -52zM1440 -348q-113 0 -219 29v227h53q70 0 94 22t25 76v807h-191v-561h107v-252h-619v252h64v561h-191v-561h62v-252h-611v252h52q14 0 31 17t18 34v510h-107v268h107
v39q0 324 383 324q121 0 209 -31v-223h-41q-53 0 -78 -18t-25 -68v-23h191v47q0 178 99 256t300 78q115 0 211 -30v-234h-45q-69 0 -93 -17t-24 -69v-31h576q29 1 46 -29t17 -75v-991q0 -180 -99 -257t-302 -77z" />
    <glyph glyph-name="f_f_k" unicode="ffk" horiz-adv-x="2576" 
d="M2023 0v246l-102 157l-80 -57v-94h90v-252h-600v252h62v942h-74q-65 0 -91 -17t-26 -65v-31h137v-268h-137v-561h62v-252h-574v252h64v561h-191v-561h62v-252h-611v252h52q14 0 31 17t18 34v510h-107v268h107v39q0 324 383 324q121 0 209 -31v-223h-41q-53 0 -78 -18
t-25 -68v-23h191v47q0 176 106 255t316 79q127 0 237 -28h363q66 0 65 -91v-720l146 120q37 27 31 56q-5 29 -44 28h-37v254h621v-268h-39q-35 0 -63 -29l-177 -151l199 -328q29 -53 59 -53h27v-252h-541z" />
    <glyph glyph-name="f_f_t" unicode="fft" horiz-adv-x="2037" 
d="M8 813v268h107v39q0 324 383 324q121 0 209 -31v-223h-41q-53 0 -78 -18t-25 -68v-23h191v47q0 334 383 334q117 0 204 -30v-234h-36q-53 0 -78 -17t-25 -69v-31h189v281h448v-281h178v-268h-178v-440q0 -69 28 -95t101 -26h55v-244q-115 -31 -237 -31q-195 0 -295 71
t-100 249v516h-189v-561h113v-252h-625v252h64v561h-191v-561h62v-252h-611v252h52q14 0 31 17t18 34v510h-107z" />
    <glyph glyph-name="f_igrave" unicode="f&#xec;" horiz-adv-x="1318" 
d="M739 1434h371l20 -293h-251l-140 178v115zM14 0v252h52q14 0 31 17t18 34v510h-107v268h107v47q0 178 97 256t292 78q90 0 201 -30v-234h-25q-68 0 -92 -17t-25 -69v-31h576q63 0 63 -104v-674q0 -15 18 -33t31 -18h56v-252h-617v252h64v561h-191v-561h62v-252h-611z" />
    <glyph glyph-name="f_iacute" unicode="f&#xed;" horiz-adv-x="1318" 
d="M1272 1434v-115l-207 -178h-250l47 293h410zM14 0v252h52q14 0 31 17t18 34v510h-107v268h107v47q0 178 99 256t300 78q115 0 211 -30v-234h-45q-68 0 -92 -17t-25 -69v-31h576q63 0 63 -104v-674q0 -15 18 -33t31 -18h56v-252h-617v252h64v561h-191v-561h62v-252h-611z
" />
    <glyph glyph-name="f_icircumflex" unicode="f&#xee;" horiz-adv-x="1318" 
d="M707 1141v82l122 211h273l121 -211v-82h-193l-78 96l-80 -96h-165zM14 0v252h52q14 0 31 17t18 34v510h-107v268h107v47q0 334 358 334q113 0 205 -30v-234h-19q-51 0 -73 -17t-23 -69v-31h576q63 0 63 -104v-674q0 -15 18 -33t31 -18h56v-252h-617v252h64v561h-191v-561
h62v-252h-611z" />
    <glyph glyph-name="f_idieresis" unicode="f&#xef;" horiz-adv-x="1318" 
d="M1176 1135q-70 0 -111 45t-41 129t41 130t111 46t110 -46t41 -130q-1 -84 -41 -129t-110 -45zM844 1135q-72 0 -112 45t-40 129t40 130t112 46t112 -46t39 -130q1 -84 -39 -129t-112 -45zM14 0v252h52q14 0 31 17t18 34v510h-107v268h107v47q0 334 354 334q125 0 199 -30
v-234h-13q-49 0 -71 -17t-21 -69v-31h576q63 0 63 -104v-674q0 -15 18 -33t31 -18h56v-252h-617v252h64v561h-191v-561h62v-252h-611z" />
    <glyph glyph-name="f_iogonek" unicode="f&#x12f;" horiz-adv-x="1318" 
d="M977 1124q-93 0 -151 52t-58 140q0 87 58 140t150 53t150 -54t58 -140q0 -87 -58 -139t-149 -52zM690 0v252h64l-2 561h-189v-561h62v-252h-611v252h52q14 0 31 17t18 34v510h-107v268h107v47q0 178 99 256t300 78q115 0 211 -30v-234h-47q-66 0 -90 -17t-25 -69v-31h576
q63 0 63 -104v-674q0 -15 18 -33t31 -18h54v-252h-70q-57 -57 -57 -104q0 -55 73 -56h33v-157q-60 -29 -164 -29t-165 43q-60 43 -60 115q0 127 199 188h-404z" />
    <glyph glyph-name="f_imacron" unicode="f&#x12b;" horiz-adv-x="1318" 
d="M713 1174v245h530v-245h-530zM14 0v252h52q14 0 31 17t18 34v510h-107v268h107v47q0 334 358 334q113 0 205 -30v-234h-19q-51 0 -73 -17t-23 -69v-31h576q63 0 63 -104v-674q0 -15 18 -33t31 -18h56v-252h-617v252h64v561h-191v-561h62v-252h-611z" />
    <glyph glyph-name="f_f_igrave" unicode="ff&#xec;" horiz-adv-x="1957" 
d="M1380 1434h369l20 -293h-251l-138 178v115zM14 0v252h52q14 0 31 17t18 34v510h-107v268h107v39q0 324 383 324q121 0 209 -31v-223h-41q-53 0 -78 -18t-25 -66v-25h191v47q0 178 97 256t292 78q90 0 200 -30v-234h-24q-69 0 -93 -17t-24 -69v-31h576q63 0 63 -104v-674
q-1 -15 17 -33t32 -18h56v-252h-615v252h62v561h-191v-561h62v-252h-574v252h64v561h-191v-561h62v-252h-611z" />
    <glyph glyph-name="f_f_iacute" unicode="ff&#xed;" horiz-adv-x="1957" 
d="M1911 1434v-115l-205 -178h-252l49 293h408zM14 0v252h52q14 0 31 17t18 34v510h-107v268h107v39q0 324 383 324q121 0 209 -31v-223h-41q-53 0 -78 -18t-25 -66v-25h191v47q0 178 99 256t300 78q115 0 211 -30v-234h-45q-69 0 -93 -17t-24 -69v-31h576q63 0 63 -104
v-674q-1 -15 17 -33t32 -18h56v-252h-615v252h62v561h-191v-561h62v-252h-574v252h64v561h-191v-561h62v-252h-611z" />
    <glyph glyph-name="f_f_icircumflex" unicode="ff&#xee;" horiz-adv-x="1957" 
d="M1348 1141v82l125 211h272l121 -211v-82h-193l-80 96l-77 -96h-168zM14 0v252h52q14 0 31 17t18 34v510h-107v268h107v39q0 324 383 324q121 0 209 -31v-223h-41q-53 0 -78 -18t-25 -66v-25h191v47q0 334 358 334q113 0 205 -30v-234h-17q-54 0 -76 -17t-22 -69v-31h576
q63 0 63 -104v-674q-1 -15 17 -33t32 -18h56v-252h-615v252h62v561h-191v-561h62v-252h-574v252h64v561h-191v-561h62v-252h-611z" />
    <glyph glyph-name="f_f_idieresis" unicode="ff&#xef;" horiz-adv-x="1957" 
d="M1966 1309q0 -84 -40 -129t-110 -45q-71 0 -112 45t-41 129t41 130t112 46q70 0 110 -46t40 -130zM1483 1135q-72 0 -112 45t-40 129t40 130t112 46q71 0 111 -46t40 -130t-40 -129t-111 -45zM14 0v252h52q14 0 31 17t18 34v510h-107v268h107v39q0 324 383 324
q121 0 209 -31v-223h-41q-53 0 -78 -18t-25 -66v-25h191v47q0 334 354 334q125 0 201 -30v-234h-15q-48 0 -70 -17t-22 -69v-31h576q63 0 63 -104v-674q-1 -15 17 -33t32 -18h56v-252h-615v252h62v561h-191v-561h62v-252h-574v252h64v561h-191v-561h62v-252h-611z" />
    <glyph glyph-name="f_f_iogonek" unicode="ff&#x12f;" horiz-adv-x="1957" 
d="M1616 1124q-92 0 -150 52t-59 140q0 87 58 140q59 53 151 53t150 -54t58 -140q0 -87 -58 -139t-150 -52zM1748 -346q-103 0 -165 43q-61 43 -61 115q0 127 200 188h-391v252h62v561h-191v-561h62v-252h-574v252h64v561h-191v-561h62v-252h-611v252h52q14 0 31 17t18 34
v510h-107v268h107v39q0 324 383 324q121 0 209 -31v-223h-41q-53 0 -78 -18t-25 -66v-25h191v47q0 178 99 256t300 78q115 0 211 -30v-234h-45q-69 0 -93 -17t-24 -69v-31h576q63 0 63 -104v-674q-1 -15 17 -33t32 -18h56v-252h-82q-60 -57 -60 -108t74 -52h35v-157
q-62 -29 -165 -29z" />
    <glyph glyph-name="f_f_imacron" unicode="ff&#x12b;" horiz-adv-x="1957" 
d="M1352 1174v245h530v-245h-530zM14 0v252h52q14 0 31 17t18 34v510h-107v268h107v39q0 324 383 324q121 0 209 -31v-223h-41q-53 0 -78 -18t-25 -66v-25h191v47q0 334 358 334q113 0 205 -30v-234h-17q-54 0 -76 -17t-22 -69v-31h576q63 0 63 -104v-674q-1 -15 17 -33
t32 -18h56v-252h-615v252h62v561h-191v-561h62v-252h-574v252h64v561h-191v-561h62v-252h-611z" />
    <glyph glyph-name=".notdef" horiz-adv-x="518" 
 />
    <glyph glyph-name=".null" horiz-adv-x="0" 
 />
    <glyph glyph-name="nonmarkingreturn" horiz-adv-x="681" 
 />
    <glyph glyph-name="space" unicode=" " horiz-adv-x="280" 
 />
    <glyph glyph-name="exclam" unicode="!" horiz-adv-x="507" 
d="M251 -14q-87 0 -148 57q-60 57 -60 140t60 141q59 58 147 59q88 0 148 -58q60 -57 60 -141t-60 -141t-147 -57zM25 1434h452v-263l-121 -722h-213l-118 722v263z" />
    <glyph glyph-name="quotedbl" unicode="&#x22;" horiz-adv-x="864" 
d="M27 1434h379v-205l-82 -346h-215l-82 346v205zM457 1434h379v-205l-82 -346h-215l-82 346v205z" />
    <glyph glyph-name="numbersign" unicode="#" horiz-adv-x="1017" 
d="M459 809l-19 -135h127l19 135h-127zM90 809v317h174l45 308h242l-45 -308h127l45 308h242l-46 -308h125v-317h-172l-18 -135h125v-318h-172l-51 -356h-242l51 356h-127l-51 -356h-242l52 356h-127v318h174l18 135h-127z" />
    <glyph glyph-name="dollar" unicode="$" horiz-adv-x="1134" 
d="M428 1579h311v-158q162 -10 324 -47v-344h-242q-61 123 -221 123t-160 -106q0 -33 28 -57t97 -46t88 -22q257 -70 357 -166t100 -295q0 -379 -414 -443v-227h-309v217q-156 6 -369 45v373h250q27 -68 76 -98t148 -31q166 0 165 106q0 51 -45 75q-46 24 -112 42t-68 19
q-196 45 -304 140t-108 306q0 371 408 430v164z" />
    <glyph glyph-name="percent" unicode="%" horiz-adv-x="1728" 
d="M1319 174q45 0 67 45t21 154q0 203 -88 202q-90 -1 -90 -201t90 -200zM322 1054q0 -200 89 -200t89 201t-88 200q-90 -1 -90 -201zM1318 772q164 0 278 -102t114 -292t-114 -294q-114 -102 -278 -102q-165 0 -278 102q-112 102 -112 292t112 294q113 102 278 102z
M236 -70l1009 1563h242l-1010 -1563h-241zM18 1056q0 190 114 294q114 102 279 102t279 -102t113 -292q1 -190 -113 -294q-114 -102 -279 -102t-279 102t-114 292z" />
    <glyph glyph-name="ampersand" unicode="&#x26;" horiz-adv-x="1519" 
d="M469 460q1 -84 55 -136t138 -52t145 25l-297 301q-41 -55 -41 -138zM580 -16q-262 0 -412 114t-150 316q0 276 301 399q-66 100 -65 240q0 184 123 294t350 109q123 0 191 -22h319v-416h-303l-33 133q-25 8 -55 8q-117 0 -117 -106q0 -47 25 -84t84 -97l239 -245
q37 115 51 233h345v-182q-80 -178 -156 -299l86 -86q47 -41 76 -41h14v-252h-408l-75 76q-168 -92 -430 -92z" />
    <glyph glyph-name="quotesingle" unicode="'" horiz-adv-x="460" 
d="M27 1434h405v-205l-92 -346h-221l-92 346v205z" />
    <glyph glyph-name="parenleft" unicode="(" horiz-adv-x="675" 
d="M20 733q0 162 41 306q70 247 254 389q76 58 160 90h182v-236q-117 -43 -183 -172t-66 -393q0 -496 249 -590v-227h-182q-142 54 -250 176q-205 235 -205 657z" />
    <glyph glyph-name="parenright" unicode=")" horiz-adv-x="675" 
d="M16 -100v227q252 93 252 577t-252 578v236h183q175 -63 306 -242q69 -94 109 -238t41 -323q0 -179 -41 -327q-42 -148 -110 -244q-129 -180 -305 -244h-183z" />
    <glyph glyph-name="asterisk" unicode="*" horiz-adv-x="806" 
d="M319 668l-47 114l115 240l-162 -215l-127 -14l-73 131l73 98l277 27l-277 28l-73 99l79 133l123 -19l160 -215l-115 242l47 117h166l45 -117l-112 -242l160 215l127 19l75 -133l-73 -99l-273 -28l273 -27l73 -98l-73 -131l-127 14l-162 215l112 -240l-45 -114h-166z" />
    <glyph glyph-name="plus" unicode="+" horiz-adv-x="1056" 
d="M20 551v313h338v363h344v-363h336v-313h-336v-363h-344v363h-338z" />
    <glyph glyph-name="comma" unicode="," horiz-adv-x="456" 
d="M152 -2q0 28 -31 46q-31 17 -43 28q-60 49 -60 131t56 131t147 49t153 -62t62 -180q1 -356 -413 -387v158q129 25 129 86z" />
    <glyph glyph-name="hyphen" unicode="-" horiz-adv-x="593" 
d="M33 471v291h526v-291h-526z" />
    <glyph glyph-name="period" unicode="." horiz-adv-x="456" 
d="M228 383q88 0 148 -58q60 -57 60 -141t-60 -141t-148 -57q-87 0 -147 57q-61 57 -61 140t60 141t148 59z" />
    <glyph glyph-name="slash" unicode="/" horiz-adv-x="743" 
d="M-18 -100l495 1618h283l-496 -1618h-282z" />
    <glyph glyph-name="zero" unicode="0" horiz-adv-x="1409" 
d="M702 279q98 0 146 103q47 102 47 326t-47 324q-48 100 -146 100t-144 -100t-46 -323t46 -327t144 -103zM703 -23q-295 0 -489 195t-194 544t197 545q197 195 487 195t486 -196t196 -544q0 -349 -194 -544t-489 -195z" />
    <glyph glyph-name="one" unicode="1" horiz-adv-x="860" 
d="M33 0v252h117q18 0 37 22t20 37v760l-113 -63h-76v270l312 156h356v-1123q0 -16 20 -38t35 -21h101v-252h-809z" />
    <glyph glyph-name="two" unicode="2" horiz-adv-x="1142" 
d="M23 0v174q0 127 48 230t115 168q68 65 194 150q187 127 221 174t34 102q0 56 -34 90t-95 34q-127 0 -197 -123h-233v377q231 80 502 80q543 0 542 -420q0 -176 -91 -287t-289 -216q-197 -106 -253 -167q-20 -24 -28 -51h321l35 115h281v-430h-1073z" />
    <glyph glyph-name="three" unicode="3" horiz-adv-x="1128" 
d="M1108 397q0 -201 -164 -311t-450 -109q-286 0 -476 76v334h242q68 -106 195 -106q75 1 119 39t44 110q0 150 -178 150h-127v274h117q188 0 188 145q0 131 -133 131t-196 -94h-228v344q219 76 477 76t401 -94q142 -94 142 -285q0 -279 -299 -340v-8q326 -45 326 -332z" />
    <glyph glyph-name="four" unicode="4" horiz-adv-x="1212" 
d="M311 649h307v383h-8l-299 -375v-8zM471 0v252h76q16 0 36 21q19 22 19 38v62h-584v319l607 742h448v-785h121v-276h-121v-62q-1 -16 19 -38t38 -21h64v-252h-723z" />
    <glyph glyph-name="five" unicode="5" horiz-adv-x="1122" 
d="M625 456q0 173 -166 173q-82 0 -152 -70h-260v875h979v-408h-281l-30 82h-342v-274h6q96 88 287 88q192 0 314 -115t122 -345t-161 -358t-441 -127q-280 0 -482 82v332h242q63 -111 197 -110q76 0 122 45t46 130z" />
    <glyph glyph-name="six" unicode="6" horiz-adv-x="1288" 
d="M650 639q-73 0 -144 -27q4 -200 37 -274t112 -74q139 0 140 199q0 176 -145 176zM1266 475q0 -221 -158 -359t-448 -139q-290 1 -465 175t-175 540t197 566q197 198 584 198q231 0 381 -43v-346h-224q-78 59 -182 59q-236 0 -266 -327q121 117 321 117q199 0 317 -110
t118 -331z" />
    <glyph glyph-name="seven" unicode="7" horiz-adv-x="1101" 
d="M168 0v195l608 890v9h-438l-39 -152h-281v492h1065v-363l-438 -1071h-477z" />
    <glyph glyph-name="eight" unicode="8" horiz-adv-x="1292" 
d="M644 872q62 0 95 40t33 107t-33 107t-95 41q-62 0 -95 -41q-33 -40 -33 -108t33 -107t95 -39zM485 449q0 -83 39 -133t119 -50t120 51t40 133t-39 132q-39 51 -120 51t-120 -51t-39 -133zM645 -23q-297 0 -461 115t-164 316q0 266 287 352v8q-236 76 -235 301
q0 176 161 282q162 105 412 105t411 -105t161 -282q0 -227 -232 -301v-8q285 -86 285 -352q0 -201 -164 -316t-461 -115z" />
    <glyph glyph-name="nine" unicode="9" horiz-adv-x="1288" 
d="M639 784q72 0 139 27q-4 203 -37 277t-110 73q-139 0 -139 -200q0 -177 147 -177zM479 -23q-250 0 -399 48v333h223q74 -61 202 -61q129 0 193 78t78 246q-130 -111 -322 -111t-313 116t-121 336t161 356q161 138 451 138t462 -171q174 -171 174 -537q-1 -771 -789 -771z
" />
    <glyph glyph-name="colon" unicode=":" horiz-adv-x="452" 
d="M224 563q-85 0 -143 55q-58 56 -58 138t58 138t143 56q84 0 144 -56t60 -138t-59 -138q-60 -55 -145 -55zM428 178q0 -82 -60 -137t-144 -55q-85 0 -143 55t-58 137t58 139t143 57q84 0 144 -56q60 -58 60 -140z" />
    <glyph glyph-name="semicolon" unicode=";" horiz-adv-x="452" 
d="M150 -2q0 28 -31 46q-31 17 -41 26q-58 47 -58 128t54 129t143 48q87 1 149 -61t62 -175q0 -181 -101 -273t-304 -108v158q127 20 127 82zM224 563q-85 0 -143 55q-58 56 -58 138t58 138t143 56q84 0 144 -56t60 -138t-59 -138q-60 -55 -145 -55z" />
    <glyph glyph-name="less" unicode="&#x3c;" horiz-adv-x="917" 
d="M891 1188v-322l-420 -190v-6l420 -195v-315h-107l-764 389v252l764 387h107z" />
    <glyph glyph-name="equal" unicode="=" horiz-adv-x="1007" 
d="M33 272v303h942v-303h-942zM33 690v301h942v-301h-942z" />
    <glyph glyph-name="greater" unicode="&#x3e;" horiz-adv-x="917" 
d="M27 160v321l419 191v6l-419 194v316h104l764 -389v-252l-764 -387h-104z" />
    <glyph glyph-name="question" unicode="?" horiz-adv-x="966" 
d="M390 383q88 0 148 -58q60 -57 60 -141t-60 -141t-148 -57q-87 0 -147 57q-61 57 -61 140t60 141t148 59zM489 1044q0 109 -96 109q-78 0 -129 -104h-244v335q188 72 430 72t369 -104t127 -293q0 -94 -39 -168t-85 -113t-123 -89t-107 -74q-30 -23 -58 -67
q-26 -44 -22 -99h-268q-27 125 2 213t97 158q68 69 100 110q46 62 46 114z" />
    <glyph glyph-name="at" unicode="@" horiz-adv-x="1775" 
d="M834 346q39 0 73 23l80 344q-29 8 -55 8q-76 0 -122 -87t-46 -208q0 -80 70 -80zM670 143q-115 0 -183 71t-67 202q0 219 141 385q117 127 289 127q131 0 207 -90q74 78 123 77h202l-112 -495q-25 -115 47 -115q92 -1 166 101t73 284q0 244 -179 384t-454 140t-473 -176
q-98 -86 -156 -227t-58 -319q0 -311 184 -463t480 -152t486 123h103v-119q-100 -71 -257 -113t-327 -42q-171 0 -321 45q-338 101 -471 375q-74 151 -74 351q0 199 80 369q145 308 491 442q154 58 338 58t369 -77q184 -77 303 -233t119 -366q0 -272 -154 -412t-381 -140
t-280 134q-109 -129 -254 -129z" />
    <glyph glyph-name="A" unicode="A" horiz-adv-x="1540" 
d="M713 1077l-144 -422h269l-121 422h-4zM16 0v252h27q53 0 78 63l282 801q6 18 -6 36t-30 19h-68v263h772l359 -1135q6 -15 25 -31t36 -16h33v-252h-729v252h159l-53 186h-403q-31 -94 -16 -140t89 -46h54v-252h-609z" />
    <glyph glyph-name="B" unicode="B" horiz-adv-x="1361" 
d="M606 1163v-305h74q160 0 160 154q0 78 -37 114t-121 37h-76zM606 264h82q94 0 134 43t40 132t-40 129t-134 40h-82v-344zM18 0v254h60q18 0 38 21q19 22 19 38v803q0 16 -19 36t-38 22h-60v260h695q588 0 587 -371q0 -129 -72 -201t-212 -106v-8q328 -51 327 -336
q0 -203 -164 -308q-165 -104 -460 -104h-701z" />
    <glyph glyph-name="C" unicode="C" horiz-adv-x="1316" 
d="M736 -23q-338 -1 -526 185t-190 544q0 358 186 554t519 196q131 0 240 -22h325v-512h-305l-47 206q-49 14 -113 15q-291 0 -290 -420q0 -221 62 -327q61 -106 205 -105q144 0 257 143h237v-309q-222 -148 -560 -148z" />
    <glyph glyph-name="D" unicode="D" horiz-adv-x="1499" 
d="M614 264h60q313 0 313 445q0 227 -77 335t-236 109h-60v-889zM18 0v252h60q18 0 38 21q19 22 19 38v803q0 16 -19 36t-38 21h-60v263h670q406 0 598 -172t193 -535q0 -727 -805 -727h-656z" />
    <glyph glyph-name="E" unicode="E" horiz-adv-x="1282" 
d="M18 0v252h60q18 0 38 21q19 22 19 38v803q0 16 -19 36t-38 21h-60v263h1221v-465h-276l-41 182h-308v-274h330v-291h-330v-312h316l39 218h288v-492h-1239z" />
    <glyph glyph-name="F" unicode="F" horiz-adv-x="1245" 
d="M18 0v252h60q18 0 38 21q19 22 19 38v803q0 16 -19 36t-38 21h-60v263h1209v-490h-277l-41 207h-295v-322h328v-297h-328v-280h152v-252h-748z" />
    <glyph glyph-name="G" unicode="G" horiz-adv-x="1427" 
d="M737 -23q-717 0 -717 725q0 365 186 560t527 194q135 0 240 -22h325v-498h-307l-47 192q-61 14 -119 15q-141 0 -216 -96q-75 -97 -75 -323t56 -337q55 -111 188 -111q59 0 99 9v198h-101v250h643v-256h-30q-17 0 -37 -20t-21 -37v-420h-237q-18 41 -58 41
q-113 -64 -299 -64z" />
    <glyph glyph-name="H" unicode="H" horiz-adv-x="1566" 
d="M18 0v252h60q18 0 38 21q19 22 19 38v803q0 16 -19 36t-38 21h-60v263h719v-263h-123v-323h338v323h-123v263h719v-263h-59q-17 0 -37 -20t-20 -37v-803q0 -16 19 -38t38 -21h59v-252h-719v252h123v352h-338v-352h123v-252h-719z" />
    <glyph glyph-name="I" unicode="I" horiz-adv-x="768" 
d="M18 0v252h70q18 0 38 21q19 22 19 38v803q0 16 -19 36t-38 21h-70v263h734v-263h-72q-16 0 -36 -20t-19 -37v-803q0 -16 19 -38t36 -21h72v-252h-734z" />
    <glyph glyph-name="J" unicode="J" horiz-adv-x="1116" 
d="M438 -16q-268 0 -420 77v308h230q49 -86 135 -86q106 0 106 123v708q0 16 -19 36t-36 21h-82v263h744v-263h-70q-18 0 -36 -20t-19 -37v-668q0 -242 -133 -352q-132 -110 -400 -110z" />
    <glyph glyph-name="K" unicode="K" horiz-adv-x="1511" 
d="M18 0v252h60q18 0 38 21q19 22 19 38v803q0 16 -19 36t-38 21h-60v263h705v-263h-109v-364l267 258q43 41 33 74t-60 32h-33v263h666v-263h-27q-47 0 -106 -65l-275 -277l324 -522q41 -55 67 -55h23v-252h-578v221l-202 338l-99 -82v-225h115v-252h-711z" />
    <glyph glyph-name="L" unicode="L" horiz-adv-x="1245" 
d="M18 0v252h60q18 0 38 21q19 22 19 38v803q0 16 -19 36t-38 21h-60v263h758v-263h-162v-897h283l39 254h293v-528h-1211z" />
    <glyph glyph-name="M" unicode="M" horiz-adv-x="1923" 
d="M18 0v252h60q18 0 38 21q19 22 19 38v803q0 16 -19 36t-38 21h-60v263h775l163 -662h7l165 662h779v-263h-62q-15 0 -35 -20t-20 -37v-803q0 -16 19 -38t36 -21h62v-252h-699v252h115v786h-6l-281 -1038h-274l-279 1038h-6v-786h123v-252h-582z" />
    <glyph glyph-name="N" unicode="N" horiz-adv-x="1499" 
d="M18 0v252h60q18 0 38 21q19 22 19 38v803q0 16 -19 36t-38 21h-60v263h576l428 -740h6v477h-125v263h578v-263h-54q-16 0 -35 -20t-20 -37v-1114h-416l-473 813h-6v-561h131v-252h-590z" />
    <glyph glyph-name="O" unicode="O" horiz-adv-x="1525" 
d="M762 279q114 -1 182 109t68 320t-68 318t-184 107t-182 -107t-66 -317t68 -321t182 -109zM762 -23q-326 0 -534 197t-208 542q0 344 211 542t531 198t530 -198q211 -198 211 -542q1 -344 -207 -542q-208 -197 -534 -197z" />
    <glyph glyph-name="P" unicode="P" horiz-adv-x="1349" 
d="M602 1153v-387h82q166 0 166 194t-166 193h-82zM18 0v252h60q18 0 38 21q19 22 19 38v803q0 16 -19 36t-38 21h-60v263h699q317 0 465 -110t149 -351q0 -461 -635 -461h-82v-260h152v-252h-748z" />
    <glyph glyph-name="Q" unicode="Q" horiz-adv-x="1525" 
d="M762 279q114 -1 182 109t68 320t-68 318t-184 107t-182 -107t-66 -317t68 -321t182 -109zM20 717q0 343 211 541t531 198t530 -198q211 -198 211 -541q0 -422 -366 -547v-8q293 -35 411 -150v-252h-342q-115 170 -469 217q-717 90 -717 740z" />
    <glyph glyph-name="R" unicode="R" horiz-adv-x="1449" 
d="M602 1153v-358h82q98 0 137 44t39 134t-40 135t-136 45h-82zM18 0v252h60q18 0 38 21q19 22 19 38v803q0 16 -19 36t-38 21h-60v263h713q311 0 459 -102t147 -308q-1 -129 -67 -208t-211 -118v-8q115 -25 173 -87t91 -208l23 -92q12 -51 51 -51h35v-252h-525l-47 389
q-10 88 -46 123t-114 35h-86v-295h129v-252h-725z" />
    <glyph glyph-name="S" unicode="S" horiz-adv-x="1150" 
d="M567 -23q-129 0 -241 23h-306v453h312l41 -179q43 -14 123 -14q174 0 174 127q0 63 -47 90t-117 47t-122 32q-135 36 -236 118q-123 100 -122 327t145 341t388 114q154 0 262 -22h262v-416h-307l-41 153q-47 14 -106 15q-174 0 -174 -125q0 -78 94 -111q23 -10 78 -24
l24 -6q267 -72 371 -167t104 -294q0 -482 -559 -482z" />
    <glyph glyph-name="T" unicode="T" horiz-adv-x="1384" 
d="M328 0v252h67q18 0 38 21q19 22 20 38v848h-115l-31 -264h-284v539h1339v-539h-283l-32 264h-115v-848q0 -16 19 -38t38 -21h68v-252h-729z" />
    <glyph glyph-name="U" unicode="U" horiz-adv-x="1486" 
d="M1362 522q0 -538 -618 -538t-617 538v592q0 16 -19 36t-38 21h-52v263h730v-263h-142v-673q0 -113 47 -165t149 -52t151 52q48 52 48 165v673h-141v263h608v-263h-51q-15 0 -35 -20t-20 -37v-592z" />
    <glyph glyph-name="V" unicode="V" horiz-adv-x="1515" 
d="M51 1171h-33v263h705v-263h-137l221 -712h6l182 559q55 155 -80 153h-41v263h623v-263h-24q-21 0 -45 -19t-33 -42l-406 -1110h-481l-397 1126q-18 45 -60 45z" />
    <glyph glyph-name="W" unicode="W" horiz-adv-x="2080" 
d="M45 1171h-27v263h701v-263h-127l127 -581h4l203 844h340l200 -844h7l104 428q23 76 5 115t-85 38h-31v263h598v-263h-20q-22 0 -46 -18t-32 -43l-289 -1110h-469l-174 717h-4l-174 -717h-471l-279 1126q-6 16 -24 30t-37 15z" />
    <glyph glyph-name="X" unicode="X" horiz-adv-x="1464" 
d="M18 0v252h39q45 0 74 39l291 407l-293 416q-41 57 -80 57h-31v263h715v-248h-106l172 -252l94 137q35 51 21 83t-60 32h-31v248h625v-263h-39q-45 0 -78 -45l-282 -401l288 -416q43 -57 88 -57h23v-252h-717v240h109l-178 254l-99 -148q-29 -43 -17 -75t62 -31h31v-240
h-621z" />
    <glyph glyph-name="Y" unicode="Y" horiz-adv-x="1419" 
d="M346 0v252h70q18 0 37 20q18 20 18 39v232l-360 585q-27 43 -60 43h-33v263h689v-263h-125l192 -333h6l121 209q35 57 19 91t-84 33h-33v263h598v-263h-21q-41 0 -80 -59l-350 -559v-242q0 -16 20 -38t38 -21h69v-252h-731z" />
    <glyph glyph-name="Z" unicode="Z" horiz-adv-x="1212" 
d="M18 0v313l658 830v8h-303l-39 -172h-277v455h1137v-322l-657 -829v-9h327l39 201h291v-475h-1176z" />
    <glyph glyph-name="bracketleft" unicode="[" horiz-adv-x="591" 
d="M31 -100v1618h542v-263h-167v-1103h167v-252h-542z" />
    <glyph glyph-name="backslash" unicode="\" horiz-adv-x="743" 
d="M483 -100l-495 1618h282l496 -1618h-283z" />
    <glyph glyph-name="bracketright" unicode="]" horiz-adv-x="591" 
d="M16 -100v252h170v1103h-170v263h545v-1618h-545z" />
    <glyph glyph-name="asciicircum" unicode="^" horiz-adv-x="825" 
d="M18 924v149l240 361h307l242 -361v-149h-240l-151 192h-6l-152 -192h-240z" />
    <glyph glyph-name="underscore" unicode="_" horiz-adv-x="802" 
d="M-4 -332v236h811v-236h-811z" />
    <glyph glyph-name="grave" unicode="`" horiz-adv-x="819" 
d="M100 1434h408l49 -293h-252l-205 178v115z" />
    <glyph glyph-name="a" unicode="a" horiz-adv-x="1173" 
d="M530 238q51 0 99 34v162q-53 8 -97 8t-72 -24t-28 -82q0 -98 98 -98zM348 -14q-143 0 -239 80q-97 80 -97 240t111 244q111 83 309 83q113 0 197 -15v66q0 57 -34 84t-112 27q-121 0 -211 -74h-186v305q212 76 486 76t390 -88t115 -279v-432q-1 -15 17 -33t32 -18h35
v-213q-104 -57 -256 -57q-190 0 -246 129q-110 -125 -311 -125z" />
    <glyph glyph-name="b" unicode="b" horiz-adv-x="1239" 
d="M604 780q-37 0 -102 -16v-488q43 -27 100 -26q168 0 168 282q0 140 -44 194t-122 54zM767 -20q-206 0 -308 135q-57 -115 -103 -115h-301v1120q0 14 -17 32t-34 19h-55v263h489q63 0 64 -91v-393q137 152 316 152t292 -123t113 -413t-125 -438t-331 -148z" />
    <glyph glyph-name="c" unicode="c" horiz-adv-x="1056" 
d="M625 -18q-303 0 -457 143t-154 411t163 416q163 150 454 150q244 0 385 -55v-326h-238q-25 51 -54 74q-30 23 -85 22q-168 0 -168 -285q0 -152 41 -218q40 -66 142 -66t169 90h195v-254q-157 -102 -393 -102z" />
    <glyph glyph-name="d" unicode="d" horiz-adv-x="1308" 
d="M633 254q59 0 110 31v485q-49 14 -96 14q-84 0 -131 -54t-47 -200q0 -276 164 -276zM461 -20q-444 0 -445 561q0 287 125 424t305 137t297 -139v208h-104v263h487q30 0 48 -25t18 -66v-1040q0 -15 17 -33t32 -18h49v-252h-467q-41 0 -65 98q-109 -118 -297 -118z" />
    <glyph glyph-name="e" unicode="e" horiz-adv-x="1155" 
d="M599 846q-60 0 -92 -44t-42 -147h258q-8 103 -36 147t-88 44zM653 248q135 0 207 92h236v-260q-174 -98 -490 -98q-592 0 -592 553q0 259 158 413t431 154t405 -134t131 -417l-4 -107h-672q10 -104 54 -150t136 -46z" />
    <glyph glyph-name="f" unicode="f" horiz-adv-x="743" 
d="M8 813v268h107v47q0 178 99 256t300 78q119 0 219 -30v-234h-55q-66 0 -90 -17t-25 -69v-31h162v-268h-162v-510q-1 -15 17 -33t32 -18h70v-252h-668v252h52q14 0 31 17t18 34v510h-107z" />
    <glyph glyph-name="g" unicode="g" horiz-adv-x="1155" 
d="M463 738q0 -144 101 -144q102 0 102 143t-101 144q-102 1 -102 -143zM666 2h-314q-2 -12 -2 -29q0 -65 34 -87t142 -21q227 0 228 82q0 55 -88 55zM561 391q-109 0 -194 19v-15q0 -35 13 -52t52 -17h373q176 0 257 -68t81 -217q0 -193 -151 -303t-455 -109
q-305 1 -427 63t-122 185q0 154 196 225q-94 51 -94 154q0 127 133 207q-160 88 -160 268q-1 179 131 275t367 96q98 0 197 -21h381v-268h-41q-25 0 -41 -29l2 -43q0 -170 -130 -260t-368 -90z" />
    <glyph glyph-name="h" unicode="h" horiz-adv-x="1323" 
d="M776 0v672q0 57 -28 77q-30 19 -84 19t-101 -6v-510h119v-252h-668v252h52q14 0 31 18t18 33v819q-1 16 -17 32t-32 17h-58v263h490q66 0 65 -91v-405q160 164 383 164q123 0 201 -60t78 -198v-541q0 -15 17 -33t32 -18h33v-252h-531z" />
    <glyph glyph-name="i" unicode="i" horiz-adv-x="681" 
d="M340 1124q-92 0 -150 52t-57 139q0 86 57 140q58 54 150 54t150 -53t58 -140q0 -88 -58 -140t-150 -52zM14 0v252h54q14 0 31 17t18 34v459q1 14 -17 32t-32 19h-60v268h494q63 0 63 -104v-674q1 -15 19 -33t32 -18h54v-252h-656z" />
    <glyph glyph-name="j" unicode="j" horiz-adv-x="626" 
d="M340 1124q-92 0 -150 52t-57 139q0 86 57 140q58 54 150 54t150 -53t58 -140q0 -88 -58 -140t-150 -52zM502 1081q63 0 63 -104v-991q0 -182 -98 -258t-303 -76q-111 0 -217 29v227h53q68 0 92 22t25 76v756q1 14 -17 32t-32 19h-60v268h494z" />
    <glyph glyph-name="k" unicode="k" horiz-adv-x="1300" 
d="M745 0v246l-102 160l-82 -60v-94h90v-252h-639v252h51q15 0 33 17t19 34v817q-1 14 -19 32t-33 19h-55v263h490q63 0 63 -91v-720l146 120q37 33 32 57q-4 24 -43 23h-39v258h623v-268h-39q-33 0 -65 -29l-177 -151l199 -328q33 -53 62 -53h24v-252h-539z" />
    <glyph glyph-name="l" unicode="l" horiz-adv-x="696" 
d="M12 0v252h60q14 0 31 17t18 34v817q1 16 -17 34t-32 17h-64v263h496q66 0 65 -91v-1040q-1 -15 17 -33t32 -18h62v-252h-668z" />
    <glyph glyph-name="m" unicode="m" horiz-adv-x="1929" 
d="M14 0v252h52q14 0 32 18t19 33v459q-1 14 -19 32t-32 19h-58v268h469q70 0 82 -157q160 178 363 178q227 0 268 -182q164 182 366 182q121 0 199 -60t78 -198v-541q0 -15 17 -33t34 -18h33v-252h-533v674q0 58 -18 76t-70 18t-98 -6v-510h96v-252h-542v674q0 58 -20 76
t-70 18q-52 0 -99 -6v-510h96v-252h-645z" />
    <glyph glyph-name="n" unicode="n" horiz-adv-x="1323" 
d="M14 0v252h52q14 0 32 18t19 33v459q1 16 -17 34t-34 17h-58v268h469q68 0 80 -149q164 170 389 170q123 0 201 -60t78 -198v-541q0 -15 18 -33t33 -18h33v-252h-531v672q0 57 -29 77q-29 19 -83 19t-103 -6v-510h121v-252h-670z" />
    <glyph glyph-name="o" unicode="o" horiz-adv-x="1247" 
d="M622 248q154 0 154 282t-154 281q-154 1 -155 -281q0 -282 155 -282zM1229 536q0 -254 -169 -404t-438 -150t-439 149q-169 150 -169 405q0 254 170 410t438 156t438 -156q169 -156 169 -410z" />
    <glyph glyph-name="p" unicode="p" horiz-adv-x="1294" 
d="M657 780q-41 0 -94 -14v-473q41 -21 107 -21t109 56q44 56 44 200q0 146 -44 199t-122 53zM14 -332v236h52q16 0 33 17t18 32v809q-1 14 -19 32t-32 19h-58v268h469q61 0 78 -129q139 150 319 150t292 -124t112 -405t-131 -413t-332 -133q-160 0 -252 71v-194h94v-236
h-643z" />
    <glyph glyph-name="q" unicode="q" horiz-adv-x="1239" 
d="M469 537q0 -155 43 -209q44 -54 110 -54t115 25v471q-51 14 -92 14q-176 0 -176 -247zM643 -332v236h94v207q-104 -84 -283 -84t-301 108q-137 120 -137 409q0 288 126 423t312 135t306 -148q20 68 55 98t68 29h301v-1128q0 -13 17 -31t34 -18h53v-236h-645z" />
    <glyph glyph-name="r" unicode="r" horiz-adv-x="929" 
d="M14 0v252h52q16 0 33 17t18 34v459q-1 14 -19 32t-32 19h-58v268h469q68 0 80 -147q57 78 121 119t158 41q29 0 65 -13v-331h-45q-174 0 -293 -33v-465h113v-252h-662z" />
    <glyph glyph-name="s" unicode="s" horiz-adv-x="999" 
d="M977 361q0 -379 -510 -379q-264 0 -451 59v301h236q53 -96 181 -96t128 65q0 33 -34 47t-140 25q-188 20 -281 100q-92 80 -92 258q0 177 131 269t373 92t418 -55v-283h-234q-53 76 -173 76t-119 -58q0 -27 32 -40t129 -25q217 -27 311 -99t95 -257z" />
    <glyph glyph-name="t" unicode="t" horiz-adv-x="761" 
d="M8 813v268h107v281h448v-281h180v-268h-180v-440q0 -69 28 -95t101 -26h56v-244q-115 -31 -238 -31q-193 0 -294 71t-101 249v516h-107z" />
    <glyph glyph-name="u" unicode="u" horiz-adv-x="1320" 
d="M387 -18q-123 0 -205 60t-82 198v522q0 14 -17 32t-32 19h-43v268h541v-673q0 -59 31 -81t85 -22t97 8v500h-109v268h557v-778q0 -15 18 -33t32 -18h47v-252h-459q-66 0 -82 147q-160 -165 -379 -165z" />
    <glyph glyph-name="v" unicode="v" horiz-adv-x="1257" 
d="M39 813h-31v268h629v-268h-100l135 -383h6l108 291q35 92 -49 92h-18v268h534v-268h-22q-20 0 -44 -19t-34 -44l-330 -750h-399l-326 766q-6 16 -24 32t-35 15z" />
    <glyph glyph-name="w" unicode="w" horiz-adv-x="1751" 
d="M31 813h-23v268h586v-268h-80l88 -324h4l160 592h313l160 -592h4l66 236q25 88 -52 88h-18v268h494v-268h-15q-22 0 -46 -19t-32 -44l-227 -750h-389l-156 528h-4l-157 -528h-390l-227 766q-6 16 -24 32t-35 15z" />
    <glyph glyph-name="x" unicode="x" horiz-adv-x="1230" 
d="M14 0v252h13q29 0 82 53l188 234l-195 227q-43 47 -65 47h-29v268h639v-254h-80l125 -141l53 68q21 26 13 50t-39 23h-6v254h495v-268h-12q-33 0 -78 -53l-190 -228l198 -233q43 -47 68 -47h20v-252h-634v240h82l-130 145l-51 -63q-23 -35 -15 -59t42 -23h6v-240h-500z
" />
    <glyph glyph-name="y" unicode="y" horiz-adv-x="1259" 
d="M145 -332v223q168 41 281 132l-330 743q-8 18 -25 32t-34 15h-29v268h625v-268h-109l144 -358h8l106 266q16 35 4 63t-51 29h-18v268h516v-268h-31q-16 0 -39 -19t-33 -44l-278 -586q-92 -190 -179 -303t-190 -193h-338z" />
    <glyph glyph-name="z" unicode="z" horiz-adv-x="1067" 
d="M18 0v285l519 518h-215l-41 -129h-242v407h1008v-293l-521 -518h232l33 127h253v-397h-1026z" />
    <glyph glyph-name="braceleft" unicode="{" horiz-adv-x="698" 
d="M489 -100q-159 0 -241 74t-82 214v287q0 47 -29 80t-86 33h-35v262h35q57 0 86 33t29 80v272q0 133 83 208t245 75h188v-263h-84q-16 0 -36 -20t-19 -37v-248q0 -176 -213 -227v-6q213 -51 213 -228v-278q0 -16 19 -38t36 -21h84v-252h-193z" />
    <glyph glyph-name="bar" unicode="|" horiz-adv-x="348" 
d="M41 -100v1618h266v-1618h-266z" />
    <glyph glyph-name="braceright" unicode="}" horiz-adv-x="698" 
d="M16 -100v252h84q18 0 38 21q19 22 20 38v270q0 174 211 226v6q-211 51 -211 227v258q0 16 -20 36t-38 21h-84v263h195q160 0 242 -75t82 -214v-275q1 -47 29 -80t85 -32h33v-260h-33q-57 0 -86 -33t-28 -80v-287q0 -133 -84 -208t-246 -74h-189z" />
    <glyph glyph-name="asciitilde" unicode="~" horiz-adv-x="749" 
d="M16 426v192q29 68 82 111q54 43 118 43t152 -22t111 -23q49 0 72 53h182v-200q-27 -66 -81 -107t-118 -41t-152 24q-87 24 -110 23q-49 0 -71 -53h-185z" />
    <glyph glyph-name="exclamdown" unicode="&#xa1;" horiz-adv-x="507" 
d="M25 -131v260l118 725h213l121 -725v-260h-452zM250 920q-86 0 -147 58q-60 58 -60 141t60 141q61 58 147 57q86 0 147 -56q61 -57 61 -141t-60 -142q-62 -58 -148 -58z" />
    <glyph glyph-name="cent" unicode="&#xa2;" horiz-adv-x="1056" 
d="M438 -209v207q-424 80 -424 539q0 219 111 359t313 185v166h312v-149q166 -12 266 -51v-326h-236q-25 51 -55 74q-31 23 -86 22q-168 0 -168 -285q0 -152 41 -218q42 -66 144 -66t169 90h193v-254q-113 -74 -268 -94v-199h-312z" />
    <glyph glyph-name="sterling" unicode="&#xa3;" horiz-adv-x="1118" 
d="M993 0q-412 0 -626 86q-59 -47 -150 -86h-199v252q172 49 172 217q0 59 -14 117h-151v248h77q-35 119 -34 204q0 201 146 310q146 108 398 108t469 -74v-374h-235q-53 115 -166 114q-61 0 -100 -36t-43 -83t4 -169h272v-248h-260q0 -135 -25 -236q127 -25 263 -24l30 118
h281v-444h-109z" />
    <glyph glyph-name="yen" unicode="&#xa5;" horiz-adv-x="1314" 
d="M88 639v178h209l-195 311q-27 43 -59 43h-25v263h648v-263h-101l154 -286h6l90 166q29 59 13 90t-70 30h-25v263h565v-263h-22q-43 0 -78 -59l-182 -295h209v-178h-330v-84h330v-178h-330v-66q0 -16 19 -38t38 -21h70v-252h-731v252h69q18 0 37 20q18 20 19 39v66h-328
v178h328v84h-328z" />
    <glyph glyph-name="brokenbar" unicode="&#xa6;" horiz-adv-x="348" 
d="M41 793v725h266l2 -725h-268zM41 -100v731h268l-2 -731h-266z" />
    <glyph glyph-name="section" unicode="&#xa7;" horiz-adv-x="1167" 
d="M342 664q0 -50 42 -77q42 -28 169 -59t221 -67q33 29 33 75t-46 79q-46 32 -177 64t-209 62q-33 -27 -33 -77zM560 -276q-232 0 -441 69v297h258q45 -113 163 -113t117 84q0 41 -36 64q-37 23 -160 55q-240 61 -340 139t-101 238q0 197 187 283q-80 82 -80 248t130 266
q131 102 363 102t390 -59v-283h-256q-41 92 -151 92t-109 -73q0 -39 31 -60q33 -20 137 -46t168 -45q172 -51 246 -127q73 -76 73 -214q0 -201 -195 -289q88 -86 88 -254t-124 -271q-126 -103 -358 -103z" />
    <glyph glyph-name="dieresis" unicode="&#xa8;" horiz-adv-x="819" 
d="M195 1133q-84 0 -137 49q-52 49 -52 129t52 128t136 48t137 -48q52 -48 52 -128t-52 -129t-136 -49zM621 1133q-84 0 -137 49q-52 49 -52 129t52 128t136 48t137 -48q52 -48 52 -128t-52 -129t-136 -49z" />
    <glyph glyph-name="copyright" unicode="&#xa9;" horiz-adv-x="1554" 
d="M782 295q-200 0 -311 104q-111 103 -111 307t112 316t302 111q63 0 137 -13h199v-295h-190l-29 103q-29 8 -53 8q-74 0 -112 -49t-38 -170q0 -223 137 -223q78 0 136 75h151v-192q-130 -82 -330 -82zM778 63q276 1 456 175t179 479q0 305 -179 479q-180 174 -456 174
t-456 -174t-180 -479t180 -479t456 -175zM778 -16q-309 0 -521 196t-212 537t212 537t521 196q199 0 363 -83t266 -252t102 -398t-102 -399t-266 -252t-363 -82z" />
    <glyph glyph-name="ordfeminine" unicode="&#xaa;" horiz-adv-x="995" 
d="M453 729q43 0 75 27v145q-41 8 -67 8q-88 0 -88 -90t80 -90zM295 522q-121 0 -201 67t-80 201t94 202q94 69 257 69q82 0 163 -10v57q0 88 -110 88t-182 -63h-160v258q174 61 408 61t329 -73q96 -73 96 -232v-356q1 -13 15 -27t28 -14h27v-183q-88 -49 -217 -49
q-160 0 -209 107q-90 -103 -258 -103z" />
    <glyph glyph-name="guillemotleft" unicode="&#xab;" horiz-adv-x="1038" 
d="M1004 983v-104l-179 -340v-7l179 -342v-108h-222l-290 371v157l290 373h222zM547 983v-104l-178 -340v-7l178 -342v-108h-221l-291 371v157l291 373h221z" />
    <glyph glyph-name="registered" unicode="&#xae;" horiz-adv-x="790" 
d="M371 1194v-80h18q43 0 43 40t-43 40h-18zM217 909v68h16q14 0 15 16v191q0 14 -15 14h-16v70h178q164 0 164 -103q0 -59 -67 -80v-2q47 -8 63 -67l8 -27q2 -12 12 -12h11v-68h-142l-12 99q-4 22 -13 30t-32 9h-12v-70h35v-68h-193zM395 784q127 0 209 79t82 220t-82 221
t-209 78q-127 0 -209 -78t-82 -220t82 -221t209 -79zM395 717q-155 0 -263 99t-107 267q0 168 107 268q108 99 262 99t264 -99q108 -99 108 -267t-108 -268q-108 -99 -263 -99z" />
    <glyph glyph-name="macron" unicode="&#xaf;" horiz-adv-x="819" 
d="M117 1174v245h585v-245h-585z" />
    <glyph glyph-name="degree" unicode="&#xb0;" horiz-adv-x="706" 
d="M352 983q66 0 108 44t42 116q0 73 -41 115t-108 42t-107 -43t-41 -115q1 -72 41 -115q40 -44 106 -44zM352 838q-133 0 -227 85t-94 219t94 219t227 85q132 0 226 -85t94 -219t-94 -219t-226 -85z" />
    <glyph glyph-name="twosuperior" unicode="&#xb2;" horiz-adv-x="698" 
d="M16 621v106q0 106 45 174t136 127q24 16 52 34q49 31 68 50l18 18q17 19 17 41q0 59 -68 59t-102 -61h-159v236q129 43 302 43t267 -62t94 -172q0 -108 -48 -162t-102 -84t-112 -57q-104 -48 -119 -84h160l14 50h191v-256h-654z" />
    <glyph glyph-name="threesuperior" unicode="&#xb3;" horiz-adv-x="700" 
d="M686 846q0 -114 -100 -178t-274 -64q-175 0 -302 45v209h162q36 -61 110 -61q74 -1 74 69t-96 70h-78v172h78q94 0 94 66t-68 66t-104 -52h-153v215q135 45 298 45t253 -54t90 -163q0 -158 -172 -195v-6q188 -23 188 -184z" />
    <glyph glyph-name="acute" unicode="&#xb4;" horiz-adv-x="819" 
d="M717 1434v-115l-205 -178h-252l49 293h408z" />
    <glyph glyph-name="paragraph" unicode="&#xb6;" horiz-adv-x="1153" 
d="M457 -186v794q-438 35 -439 412q0 414 521 414h598v-263h-60q-17 0 -37 -20t-20 -37v-1300h-225v1366h-113v-1366h-225z" />
    <glyph glyph-name="periodcentered" unicode="&#xb7;" horiz-adv-x="481" 
d="M241 403q-87 -1 -147 57t-61 141q0 83 60 141q59 58 147 58t148 -58t60 -141t-60 -141t-147 -57z" />
    <glyph glyph-name="cedilla" unicode="&#xb8;" horiz-adv-x="819" 
d="M639 -201q1 -73 -61 -115t-170 -42t-191 34v131h98q19 -25 57 -25t38 34q0 33 -56 32h-51v152h168v-51q168 -6 168 -150z" />
    <glyph glyph-name="onesuperior" unicode="&#xb9;" horiz-adv-x="587" 
d="M23 621v170h79q8 0 21 11q12 11 12 19v363l-67 -47h-58v198l219 99h242v-613q0 -8 12 -19t21 -11h71v-170h-552z" />
    <glyph glyph-name="ordmasculine" unicode="&#xba;" horiz-adv-x="1048" 
d="M525 745q124 1 124 231t-124 230t-124 -230t124 -231zM526 1452q224 0 366 -128t142 -342t-142 -338t-367 -124q-226 0 -367 125q-142 125 -142 338t142 341t368 128z" />
    <glyph glyph-name="guillemotright" unicode="&#xbb;" horiz-adv-x="1038" 
d="M492 82v104l178 340v6l-178 342v109h223l289 -371v-157l-289 -373h-223zM35 82v104l178 340v6l-178 342v109h221l291 -371v-157l-291 -373h-221z" />
    <glyph glyph-name="onequarter" unicode="&#xbc;" horiz-adv-x="1642" 
d="M23 621v170h79q8 0 21 11q12 11 12 19v363l-67 -47h-58v198l219 99h242v-613q0 -8 12 -19t21 -11h71v-170h-552zM188 -70l1012 1563h242l-1012 -1563h-242zM1079 397h158v181h-4l-154 -177v-4zM1130 0v170h58q8 0 20 11t13 22v28h-334v193l344 389h317v-416h82v-166h-82
v-28q0 -9 12 -21t19 -12h51v-170h-500z" />
    <glyph glyph-name="onehalf" unicode="&#xbd;" horiz-adv-x="1724" 
d="M1040 0v106q0 106 45 174t136 128q130 81 148 115q7 13 7 28q0 59 -68 59t-102 -59h-159v235q141 43 308 43t261 -63t94 -180q0 -70 -30 -122t-62 -77q-64 -49 -158 -92t-109 -59q-15 -17 -22 -29h160l14 51h191v-258h-654zM23 621v170h79q8 0 21 11q12 11 12 19v363
l-67 -47h-58v198l219 99h242v-613q0 -8 12 -19t21 -11h71v-170h-552zM182 -70l1012 1563h242l-1012 -1563h-242z" />
    <glyph glyph-name="threequarters" unicode="&#xbe;" horiz-adv-x="1656" 
d="M686 846q0 -114 -100 -178t-274 -64q-175 0 -302 45v209h162q36 -61 110 -61q74 -1 74 69t-96 70h-78v172h78q94 0 94 66t-68 66t-104 -52h-153v215q135 45 298 45t253 -54t90 -163q0 -158 -172 -195v-6q188 -23 188 -184zM215 -70l1012 1563h241l-1011 -1563h-242z
M1094 397h157v181h-4l-153 -177v-4zM1145 0v170h57q10 0 22 11t11 22v28h-334v193l344 389h318v-416h82v-166h-82v-28q0 -9 11 -21t19 -12h52v-170h-500z" />
    <glyph glyph-name="questiondown" unicode="&#xbf;" horiz-adv-x="966" 
d="M367 1119q0 83 60 141t147 57q88 0 148 -57q60 -56 60 -140t-60 -142t-148 -58q-87 0 -147 58t-60 141zM514 -154q-242 0 -369 104t-127 294q0 92 40 167t86 113t126 88q94 66 131 102t46 68t6 72h268q27 -125 -2 -213t-107 -172q-93 -93 -115 -134t-22 -77
q0 -109 96 -108q80 0 129 102h246v-334q-190 -72 -432 -72z" />
    <glyph glyph-name="Agrave" unicode="&#xc0;" horiz-adv-x="1540" 
d="M713 1077l-144 -422h269l-121 422h-4zM16 0v252h27q53 0 78 63l282 801q6 18 -6 36t-30 19h-68v263h772l359 -1135q6 -15 25 -31t36 -16h33v-252h-729v252h159l-53 186h-403q-31 -94 -16 -140t89 -46h54v-252h-609zM416 1784h407l49 -293h-251l-205 178v115z" />
    <glyph glyph-name="Aacute" unicode="&#xc1;" horiz-adv-x="1540" 
d="M713 1077l-144 -422h269l-121 422h-4zM16 0v252h27q53 0 78 63l282 801q6 18 -6 36t-30 19h-68v263h772l359 -1135q6 -15 25 -31t36 -16h33v-252h-729v252h159l-53 186h-403q-31 -94 -16 -140t89 -46h54v-252h-609zM1032 1784v-115l-205 -178h-252l50 293h407z" />
    <glyph glyph-name="Acircumflex" unicode="&#xc2;" horiz-adv-x="1540" 
d="M713 1077l-144 -422h269l-121 422h-4zM16 0v252h27q53 0 78 63l282 801q6 18 -6 36t-30 19h-68v263h772l359 -1135q6 -15 25 -31t36 -16h33v-252h-729v252h159l-53 186h-403q-31 -94 -16 -140t89 -46h54v-252h-609zM416 1491v82l147 211h326l143 -211v-82h-192l-127 90
l-125 -90h-172z" />
    <glyph glyph-name="Atilde" unicode="&#xc3;" horiz-adv-x="1540" 
d="M713 1077l-144 -422h269l-121 422h-4zM16 0v252h27q53 0 78 63l282 801q6 18 -6 36t-30 19h-68v263h772l359 -1135q6 -15 25 -31t36 -16h33v-252h-729v252h159l-53 186h-403q-31 -94 -16 -140t89 -46h54v-252h-609zM381 1493v172q57 125 211 125q47 0 128 -20t105 -21
q49 0 70 49h174v-176q-59 -125 -211 -125q-47 0 -128 23t-105 22q-49 0 -68 -49h-176z" />
    <glyph glyph-name="Adieresis" unicode="&#xc4;" horiz-adv-x="1540" 
d="M510 1483q-84 0 -136 49t-52 129t52 128t136 48t136 -48t52 -128t-52 -129t-136 -49zM936 1483q-84 0 -136 49t-52 129t52 128t136 48t136 -48t52 -128t-52 -129t-136 -49zM713 1077l-144 -422h269l-121 422h-4zM16 0v252h27q53 0 78 63l282 801q6 18 -6 36t-30 19h-68
v263h772l359 -1135q6 -15 25 -31t36 -16h33v-252h-729v252h159l-53 186h-403q-31 -94 -16 -140t89 -46h54v-252h-609z" />
    <glyph glyph-name="Aring" unicode="&#xc5;" horiz-adv-x="1540" 
d="M713 1077l-144 -422h269l-121 422h-4zM16 0v252h27q53 0 78 63l282 801q6 18 -6 36t-30 19h-68v263h772l359 -1135q6 -15 25 -31t36 -16h33v-252h-729v252h159l-53 186h-403q-31 -94 -16 -140t89 -46h54v-252h-609zM725 1610q41 0 67 26t25 68q0 43 -25 69q-26 25 -67 25
t-66 -26t-25 -68q0 -43 25 -69q25 -25 66 -25zM725 1493q-92 0 -158 58q-65 59 -65 153t65 153q66 58 158 58t158 -58q65 -59 65 -153t-65 -153q-66 -58 -158 -58z" />
    <glyph glyph-name="AE" unicode="&#xc6;" horiz-adv-x="2056" 
d="M913 655v496h-12l-258 -496h270zM1720 586h-327v-312h313l37 218h291v-492h-1231v252h110v186h-383q-46 -86 -30 -136t94 -50h43v-252h-621v252h37q49 0 82 63l422 801q10 16 -1 36t-32 19h-71v263h1562v-465h-276l-41 182h-305v-274h327v-291z" />
    <glyph glyph-name="Ccedilla" unicode="&#xc7;" horiz-adv-x="1316" 
d="M950 -201q0 -73 -61 -115t-169 -42t-192 34v131h99q18 -25 56 -25t38 34q0 33 -55 32h-52v138q-290 35 -442 217t-152 499q0 362 186 558t519 196q131 0 240 -22h325v-512h-305l-47 206q-49 14 -113 15q-291 0 -290 -420q0 -221 62 -327q61 -106 205 -105q144 0 257 143
h237v-309q-211 -139 -514 -148v-28q168 -6 168 -150z" />
    <glyph glyph-name="Egrave" unicode="&#xc8;" horiz-adv-x="1282" 
d="M18 0v252h60q18 0 38 21q19 22 19 38v803q0 16 -19 36t-38 21h-60v263h1221v-465h-276l-41 182h-308v-274h330v-291h-330v-312h316l39 218h288v-492h-1239zM338 1784h407l50 -293h-252l-205 178v115z" />
    <glyph glyph-name="Eacute" unicode="&#xc9;" horiz-adv-x="1282" 
d="M954 1784v-115l-204 -178h-252l49 293h407zM18 0v252h60q18 0 38 21q19 22 19 38v803q0 16 -19 36t-38 21h-60v263h1221v-465h-276l-41 182h-308v-274h330v-291h-330v-312h316l39 218h288v-492h-1239z" />
    <glyph glyph-name="Ecircumflex" unicode="&#xca;" horiz-adv-x="1282" 
d="M338 1491v82l147 211h326l143 -211v-82h-192l-127 90l-125 -90h-172zM18 0v252h60q18 0 38 21q19 22 19 38v803q0 16 -19 36t-38 21h-60v263h1221v-465h-276l-41 182h-308v-274h330v-291h-330v-312h316l39 218h288v-492h-1239z" />
    <glyph glyph-name="Edieresis" unicode="&#xcb;" horiz-adv-x="1282" 
d="M432 1483q-84 0 -136 49t-52 129t52 128t136 48t136 -48t52 -128t-52 -129t-136 -49zM858 1483q-84 0 -136 49t-52 129t52 128t136 48t136 -48t52 -128t-52 -129t-136 -49zM18 0v252h60q18 0 38 21q19 22 19 38v803q0 16 -19 36t-38 21h-60v263h1221v-465h-276l-41 182
h-308v-274h330v-291h-330v-312h316l39 218h288v-492h-1239z" />
    <glyph glyph-name="Igrave" unicode="&#xcc;" horiz-adv-x="768" 
d="M76 1784h407l49 -293h-251l-205 178v115zM18 0v252h70q18 0 38 21q19 22 19 38v803q0 16 -19 36t-38 21h-70v263h734v-263h-72q-16 0 -36 -20t-19 -37v-803q0 -16 19 -38t36 -21h72v-252h-734z" />
    <glyph glyph-name="Iacute" unicode="&#xcd;" horiz-adv-x="768" 
d="M692 1784v-115l-205 -178h-251l49 293h407zM18 0v252h70q18 0 38 21q19 22 19 38v803q0 16 -19 36t-38 21h-70v263h734v-263h-72q-16 0 -36 -20t-19 -37v-803q0 -16 19 -38t36 -21h72v-252h-734z" />
    <glyph glyph-name="Icircumflex" unicode="&#xce;" horiz-adv-x="768" 
d="M18 0v252h70q18 0 38 21q19 22 19 38v803q0 16 -19 36t-38 21h-70v263h734v-263h-72q-16 0 -36 -20t-19 -37v-803q0 -16 19 -38t36 -21h72v-252h-734zM76 1491v82l147 211h326l143 -211v-82h-192l-127 90l-125 -90h-172z" />
    <glyph glyph-name="Idieresis" unicode="&#xcf;" horiz-adv-x="768" 
d="M18 0v252h70q18 0 38 21q19 22 19 38v803q0 16 -19 36t-38 21h-70v263h734v-263h-72q-16 0 -36 -20t-19 -37v-803q0 -16 19 -38t36 -21h72v-252h-734zM170 1483q-84 0 -136 49t-52 129t52 128t136 48t136 -48t52 -128t-52 -129t-136 -49zM596 1483q-84 0 -136 49t-52 129
t52 128t136 48t136 -48t52 -128t-52 -129t-136 -49z" />
    <glyph glyph-name="Eth" unicode="&#xd0;" horiz-adv-x="1499" 
d="M614 264h60q313 0 313 445q0 227 -77 335t-236 109h-60v-313h195v-250h-195v-326zM18 590v250h117v274q0 16 -19 36t-38 21h-60v263h670q406 0 598 -172t193 -535q0 -727 -805 -727h-656v252h60q18 0 38 21q19 22 19 38v279h-117z" />
    <glyph glyph-name="Ntilde" unicode="&#xd1;" horiz-adv-x="1499" 
d="M18 0v252h60q18 0 38 21q19 22 19 38v803q0 16 -19 36t-38 21h-60v263h576l428 -740h6v477h-125v263h578v-263h-54q-16 0 -35 -20t-20 -37v-1114h-416l-473 813h-6v-561h131v-252h-590zM430 1493v172q57 125 211 125q47 0 128 -20t105 -21q49 0 70 49h174v-176
q-59 -125 -211 -125q-47 0 -128 23t-105 22q-49 0 -68 -49h-176z" />
    <glyph glyph-name="Ograve" unicode="&#xd2;" horiz-adv-x="1525" 
d="M451 1788h407l49 -293h-252l-204 178v115zM762 279q114 -1 182 109t68 320t-68 318t-184 107t-182 -107t-66 -317t68 -321t182 -109zM762 -23q-326 0 -534 197t-208 542q0 344 211 542t531 198t530 -198q211 -198 211 -542q1 -344 -207 -542q-208 -197 -534 -197z" />
    <glyph glyph-name="Oacute" unicode="&#xd3;" horiz-adv-x="1525" 
d="M1065 1788v-115l-205 -178h-252l49 293h408zM760 279q114 -1 182 109t68 320t-68 318t-184 107t-182 -107t-66 -317t68 -321t182 -109zM760 -23q-326 0 -534 197t-208 542q0 344 211 542t531 198t530 -198q211 -198 211 -542q1 -344 -207 -542q-208 -197 -534 -197z" />
    <glyph glyph-name="Ocircumflex" unicode="&#xd4;" horiz-adv-x="1525" 
d="M760 279q114 -1 182 109t68 320t-68 318t-184 107t-182 -107t-66 -317t68 -321t182 -109zM760 -23q-326 0 -534 197t-208 542q0 344 211 542t531 198t530 -198q211 -198 211 -542q1 -344 -207 -542q-208 -197 -534 -197zM449 1495v82l147 211h326l143 -211v-82h-193
l-127 90l-124 -90h-172z" />
    <glyph glyph-name="Otilde" unicode="&#xd5;" horiz-adv-x="1525" 
d="M760 279q114 -1 182 109t68 320t-68 318t-184 107t-182 -107t-66 -317t68 -321t182 -109zM760 -23q-326 0 -534 197t-208 542q0 344 211 542t531 198t530 -198q211 -198 211 -542q1 -344 -207 -542q-208 -197 -534 -197zM414 1497v172q57 125 211 125q47 0 128 -20
t105 -21q49 0 70 49h174v-176q-59 -125 -211 -125q-47 0 -128 23t-106 22q-49 0 -67 -49h-176z" />
    <glyph glyph-name="Odieresis" unicode="&#xd6;" horiz-adv-x="1525" 
d="M543 1487q-84 0 -136 49t-53 129q0 80 52 128t137 48q84 0 136 -48t52 -128t-52 -129t-136 -49zM969 1487q-84 0 -136 49t-53 129q0 80 52 128t137 48q84 0 136 -48t52 -128t-52 -129t-136 -49zM760 279q114 -1 182 109t68 320t-68 318t-184 107t-182 -107t-66 -317
t68 -321t182 -109zM760 -23q-326 0 -534 197t-208 542q0 344 211 542t531 198t530 -198q211 -198 211 -542q1 -344 -207 -542q-208 -197 -534 -197z" />
    <glyph glyph-name="multiply" unicode="&#xd7;" horiz-adv-x="1081" 
d="M260 205l-223 221l280 276l-278 275l223 221l279 -276l282 276l221 -223l-278 -275l278 -272l-219 -223l-282 276z" />
    <glyph glyph-name="Oslash" unicode="&#xd8;" horiz-adv-x="1525" 
d="M506 709q0 -102 14 -172l414 512q-66 84 -178 84q-112 1 -182 -105q-68 -106 -68 -319zM766 279q112 -1 182 107t70 323q0 102 -14 168l-416 -515q65 -83 178 -83zM20 718q0 342 211 540t531 198q233 0 414 -108l104 129h209l-186 -230q201 -201 201 -539t-209 -534
q-208 -197 -533 -197q-229 0 -406 101l-110 -137h-209l190 233q-207 201 -207 544z" />
    <glyph glyph-name="Ugrave" unicode="&#xd9;" horiz-adv-x="1486" 
d="M494 1784h407l49 -293h-252l-204 178v115zM1362 522q0 -538 -618 -538t-617 538v592q0 16 -19 36t-38 21h-52v263h730v-263h-142v-673q0 -113 47 -165t149 -52t151 52q48 52 48 165v673h-141v263h608v-263h-51q-15 0 -35 -20t-20 -37v-592z" />
    <glyph glyph-name="Uacute" unicode="&#xda;" horiz-adv-x="1486" 
d="M1110 1784v-115l-205 -178h-252l49 293h408zM1362 522q0 -538 -618 -538t-617 538v592q0 16 -19 36t-38 21h-52v263h730v-263h-142v-673q0 -113 47 -165t149 -52t151 52q48 52 48 165v673h-141v263h608v-263h-51q-15 0 -35 -20t-20 -37v-592z" />
    <glyph glyph-name="Ucircumflex" unicode="&#xdb;" horiz-adv-x="1486" 
d="M1362 522q0 -538 -618 -538t-617 538v592q0 16 -19 36t-38 21h-52v263h730v-263h-142v-673q0 -113 47 -165t149 -52t151 52q48 52 48 165v673h-141v263h608v-263h-51q-15 0 -35 -20t-20 -37v-592zM494 1491v82l147 211h326l143 -211v-82h-192l-127 90l-125 -90h-172z" />
    <glyph glyph-name="Udieresis" unicode="&#xdc;" horiz-adv-x="1486" 
d="M588 1483q-84 0 -136 49t-53 129q1 80 53 128t136 48t136 -48t52 -128t-52 -129t-136 -49zM1014 1483q-84 0 -136 49t-53 129q1 80 53 128t136 48t136 -48t52 -128t-52 -129t-136 -49zM1362 522q0 -538 -618 -538t-617 538v592q0 16 -19 36t-38 21h-52v263h730v-263h-142
v-673q0 -113 47 -165t149 -52t151 52q48 52 48 165v673h-141v263h608v-263h-51q-15 0 -35 -20t-20 -37v-592z" />
    <glyph glyph-name="Yacute" unicode="&#xdd;" horiz-adv-x="1419" 
d="M346 0v252h70q18 0 37 20q18 20 18 39v232l-360 585q-27 43 -60 43h-33v263h689v-263h-125l192 -333h6l121 209q35 57 19 91t-84 33h-33v263h598v-263h-21q-41 0 -80 -59l-350 -559v-242q0 -16 20 -38t38 -21h69v-252h-731zM1061 1784v-115l-205 -178h-252l49 293h408z
" />
    <glyph glyph-name="Thorn" unicode="&#xde;" horiz-adv-x="1349" 
d="M702 860h-88v-305h88q147 1 147 153t-147 152zM18 0v252h60q18 0 38 21q19 22 19 38v803q0 16 -19 36t-38 21h-60v263h719v-263h-123v-73h177q274 0 407 -83t133 -291t-144 -300t-417 -92h-156v-80h129v-252h-725z" />
    <glyph glyph-name="germandbls" unicode="&#xdf;" horiz-adv-x="1433" 
d="M975 -16q-213 0 -352 55v268h215q26 -74 104 -74t78 64q0 33 -31 52t-79 37t-54 20q-223 80 -223 256q0 90 30 142t87 116t75 96q19 32 19 72t-31 66t-101 26t-110 -48q-39 -48 -39 -126v-1006h-549v252h52q14 0 31 17t18 34v510h-107v268h107q6 163 169 269t441 106
q279 0 425 -79t146 -234q0 -76 -40 -127t-117 -109q-117 -82 -117 -116q0 -27 22 -42t91 -44q149 -59 217 -133t68 -234t-116 -257t-329 -97z" />
    <glyph glyph-name="agrave" unicode="&#xe0;" horiz-adv-x="1173" 
d="M254 1434h408l49 -293h-252l-205 178v115zM530 238q51 0 99 34v162q-53 8 -97 8t-72 -24t-28 -82q0 -98 98 -98zM348 -14q-143 0 -239 80q-97 80 -97 240t111 244q111 83 309 83q113 0 197 -15v66q0 57 -34 84t-112 27q-121 0 -211 -74h-186v305q212 76 486 76t390 -88
t115 -279v-432q-1 -15 17 -33t32 -18h35v-213q-104 -57 -256 -57q-190 0 -246 129q-110 -125 -311 -125z" />
    <glyph glyph-name="aacute" unicode="&#xe1;" horiz-adv-x="1173" 
d="M870 1434v-115l-204 -178h-252l49 293h407zM530 238q51 0 99 34v162q-53 8 -97 8t-72 -24t-28 -82q0 -98 98 -98zM348 -14q-143 0 -239 80q-97 80 -97 240t111 244q111 83 309 83q113 0 197 -15v66q0 57 -34 84t-112 27q-121 0 -211 -74h-186v305q212 76 486 76t390 -88
t115 -279v-432q-1 -15 17 -33t32 -18h35v-213q-104 -57 -256 -57q-190 0 -246 129q-110 -125 -311 -125z" />
    <glyph glyph-name="acircumflex" unicode="&#xe2;" horiz-adv-x="1173" 
d="M530 238q51 0 99 34v162q-53 8 -97 8t-72 -24t-28 -82q0 -98 98 -98zM348 -14q-143 0 -239 80q-97 80 -97 240t111 244q111 83 309 83q113 0 197 -15v66q0 57 -34 84t-112 27q-121 0 -211 -74h-186v305q212 76 486 76t390 -88t115 -279v-432q-1 -15 17 -33t32 -18h35
v-213q-104 -57 -256 -57q-190 0 -246 129q-110 -125 -311 -125zM254 1141v82l147 211h326l143 -211v-82h-192l-127 90l-125 -90h-172z" />
    <glyph glyph-name="atilde" unicode="&#xe3;" horiz-adv-x="1173" 
d="M530 238q51 0 99 34v162q-53 8 -97 8t-72 -24t-28 -82q0 -98 98 -98zM348 -14q-143 0 -239 80q-97 80 -97 240t111 244q111 83 309 83q113 0 197 -15v66q0 57 -34 84t-112 27q-121 0 -211 -74h-186v305q212 76 486 76t390 -88t115 -279v-432q-1 -15 17 -33t32 -18h35
v-213q-104 -57 -256 -57q-190 0 -246 129q-110 -125 -311 -125zM219 1143v172q57 125 211 125q47 0 128 -20t106 -21q49 0 69 49h174v-176q-59 -125 -211 -125q-47 1 -128 23t-105 22q-49 0 -68 -49h-176z" />
    <glyph glyph-name="adieresis" unicode="&#xe4;" horiz-adv-x="1173" 
d="M348 1133q-84 0 -136 49t-52 129t52 128t136 48t136 -48t52 -128t-52 -129t-136 -49zM774 1133q-84 0 -136 49t-52 129t52 128t136 48t136 -48t52 -128t-52 -129t-136 -49zM530 238q51 0 99 34v162q-53 8 -97 8t-72 -24t-28 -82q0 -98 98 -98zM348 -14q-143 0 -239 80
q-97 80 -97 240t111 244q111 83 309 83q113 0 197 -15v66q0 57 -34 84t-112 27q-121 0 -211 -74h-186v305q212 76 486 76t390 -88t115 -279v-432q-1 -15 17 -33t32 -18h35v-213q-104 -57 -256 -57q-190 0 -246 129q-110 -125 -311 -125z" />
    <glyph glyph-name="aring" unicode="&#xe5;" horiz-adv-x="1173" 
d="M530 238q51 0 99 34v162q-53 8 -97 8t-72 -24t-28 -82q0 -98 98 -98zM348 -14q-143 0 -239 80q-97 80 -97 240t111 244q111 83 309 83q113 0 197 -15v66q0 57 -34 84t-112 27q-121 0 -211 -74h-186v305q212 76 486 76t390 -88t115 -279v-432q-1 -15 17 -33t32 -18h35
v-213q-104 -57 -256 -57q-190 0 -246 129q-110 -125 -311 -125zM563 1260q41 0 67 26t25 68q1 42 -25 68t-67 26t-65 -26t-25 -68q1 -42 25 -68t65 -26zM563 1143q-91 0 -157 58q-66 59 -66 153t66 152t158 58t157 -58t65 -152t-65 -153q-66 -58 -158 -58z" />
    <glyph glyph-name="ae" unicode="&#xe6;" horiz-adv-x="1759" 
d="M1211 846q-58 0 -90 -44t-42 -147h250q-6 103 -33 147t-85 44zM538 442q-106 0 -106 -106q0 -98 98 -98q77 0 136 57q-20 59 -31 137q-47 10 -97 10zM1264 248q129 0 202 92h236v-260q-174 -98 -467 -98q-344 0 -490 174q-82 -96 -175 -133t-229 -37t-232 80
q-97 80 -97 240t112 248q112 87 308 87q115 0 201 -14v61q0 57 -36 82t-114 25q-121 0 -211 -74h-186v305q214 76 458 76t357 -88q119 88 309 88q272 0 404 -134t131 -417l-4 -107h-662q11 -104 53 -150t132 -46z" />
    <glyph glyph-name="ccedilla" unicode="&#xe7;" horiz-adv-x="1056" 
d="M823 -201q0 -73 -61 -115q-62 -42 -170 -42t-191 34v131h99q18 -25 56 -25t38 34q0 33 -55 32h-52v142q-473 61 -473 547q0 265 163 415t454 150q244 0 385 -55v-326h-238q-25 51 -54 74q-30 23 -85 22q-168 0 -168 -285q0 -152 41 -218q40 -66 142 -66t169 90h195v-254
q-143 -94 -363 -102v-33q168 -6 168 -150z" />
    <glyph glyph-name="egrave" unicode="&#xe8;" horiz-adv-x="1155" 
d="M597 846q-60 0 -92 -44t-42 -147h258q-8 103 -36 147t-88 44zM651 248q135 0 207 92h236v-260q-174 -98 -490 -98q-592 0 -592 553q0 259 158 413t431 154t405 -134t131 -417l-4 -107h-672q10 -104 54 -150t136 -46zM289 1434h407l49 -293h-251l-205 178v115z" />
    <glyph glyph-name="eacute" unicode="&#xe9;" horiz-adv-x="1155" 
d="M599 846q-60 0 -92 -44t-42 -147h258q-8 103 -36 147t-88 44zM653 248q135 0 207 92h236v-260q-174 -98 -490 -98q-592 0 -592 553q0 259 158 413t431 154t405 -134t131 -417l-4 -107h-672q10 -104 54 -150t136 -46zM907 1434v-115l-205 -178h-251l49 293h407z" />
    <glyph glyph-name="ecircumflex" unicode="&#xea;" horiz-adv-x="1155" 
d="M597 846q-60 0 -92 -44t-42 -147h258q-8 103 -36 147t-88 44zM651 248q135 0 207 92h236v-260q-174 -98 -490 -98q-592 0 -592 553q0 259 158 413t431 154t405 -134t131 -417l-4 -107h-672q10 -104 54 -150t136 -46zM289 1141v82l147 211h326l143 -211v-82h-192l-127 90
l-125 -90h-172z" />
    <glyph glyph-name="edieresis" unicode="&#xeb;" horiz-adv-x="1155" 
d="M383 1133q-84 0 -136 49t-52 129t52 128t136 48t136 -48t52 -128t-52 -129t-136 -49zM809 1133q-84 0 -136 49t-52 129t52 128t136 48t136 -48t52 -128t-52 -129t-136 -49zM597 846q-60 0 -92 -44t-42 -147h258q-8 103 -36 147t-88 44zM651 248q135 0 207 92h236v-260
q-174 -98 -490 -98q-592 0 -592 553q0 259 158 413t431 154t405 -134t131 -417l-4 -107h-672q10 -104 54 -150t136 -46z" />
    <glyph glyph-name="igrave" unicode="&#xec;" horiz-adv-x="681" 
d="M14 1434h408l49 -293h-252l-205 178v115zM14 0v252h54q14 0 31 17t18 34v459q1 14 -17 32t-32 19h-60v268h494q63 0 63 -104v-674q1 -15 19 -33t32 -18h54v-252h-656z" />
    <glyph glyph-name="iacute" unicode="&#xed;" horiz-adv-x="681" 
d="M631 1434v-115l-205 -178h-252l49 293h408zM14 0v252h54q14 0 31 17t18 34v459q1 14 -17 32t-32 19h-60v268h494q63 0 63 -104v-674q1 -15 19 -33t32 -18h54v-252h-656z" />
    <glyph glyph-name="icircumflex" unicode="&#xee;" horiz-adv-x="681" 
d="M14 1141v82l148 211h325l144 -211v-82h-193l-127 90l-125 -90h-172zM14 0v252h54q14 0 31 17t18 34v459q1 14 -17 32t-32 19h-60v268h494q63 0 63 -104v-674q1 -15 19 -33t32 -18h54v-252h-656z" />
    <glyph glyph-name="idieresis" unicode="&#xef;" horiz-adv-x="681" 
d="M106 1133q-84 0 -136 49t-52 129t52 128t136 48t136 -48t53 -128q-1 -80 -53 -129t-136 -49zM532 1133q-84 0 -136 49t-52 129t52 128t136 48t136 -48t53 -128q-1 -80 -53 -129t-136 -49zM12 0v252h54q14 0 31 17t18 34v459q1 14 -17 32t-32 19h-60v268h494q63 0 63 -104
v-674q-1 -15 17 -33t34 -18h54v-252h-656z" />
    <glyph glyph-name="eth" unicode="&#xf0;" horiz-adv-x="1247" 
d="M622 240q154 0 154 267t-154 267t-155 -267q0 -267 155 -267zM317 1032v64l89 69q-20 6 -127 31v238h206q109 -20 195 -52l63 52h205v-64l-90 -72q371 -229 371 -694q0 -315 -165 -469q-164 -153 -440 -153t-443 142t-167 384t138 366t318 125q179 0 261 -120
q-45 129 -145 202l-64 -49h-205z" />
    <glyph glyph-name="ntilde" unicode="&#xf1;" horiz-adv-x="1323" 
d="M14 0v252h52q14 0 32 18t19 33v459q1 16 -17 34t-34 17h-58v268h469q68 0 80 -149q164 170 389 170q123 0 201 -60t78 -198v-541q0 -15 18 -33t33 -18h33v-252h-531v672q0 57 -29 77q-29 19 -83 19t-103 -6v-510h121v-252h-670zM324 1143v172q57 125 211 125
q47 0 128 -20t105 -21q49 0 70 49h174v-176q-59 -125 -211 -125q-47 1 -128 23t-106 22q-49 0 -67 -49h-176z" />
    <glyph glyph-name="ograve" unicode="&#xf2;" horiz-adv-x="1247" 
d="M620 248q154 0 154 282t-154 281q-154 1 -155 -281q0 -282 155 -282zM1227 536q0 -254 -169 -404t-438 -150t-439 149q-169 150 -169 405q0 254 170 410t438 156t438 -156q169 -156 169 -410zM311 1434h408l49 -293h-252l-205 178v115z" />
    <glyph glyph-name="oacute" unicode="&#xf3;" horiz-adv-x="1247" 
d="M928 1434v-115l-205 -178h-252l49 293h408zM620 248q154 0 154 282t-154 281q-154 1 -155 -281q0 -282 155 -282zM1227 536q0 -254 -169 -404t-438 -150t-439 149q-169 150 -169 405q0 254 170 410t438 156t438 -156q169 -156 169 -410z" />
    <glyph glyph-name="ocircumflex" unicode="&#xf4;" horiz-adv-x="1247" 
d="M311 1141v82l148 211h325l144 -211v-82h-193l-127 90l-125 -90h-172zM620 248q154 0 154 282t-154 281q-154 1 -155 -281q0 -282 155 -282zM1227 536q0 -254 -169 -404t-438 -150t-439 149q-169 150 -169 405q0 254 170 410t438 156t438 -156q169 -156 169 -410z" />
    <glyph glyph-name="otilde" unicode="&#xf5;" horiz-adv-x="1247" 
d="M620 248q154 0 154 282t-154 281q-154 1 -155 -281q0 -282 155 -282zM1227 536q0 -254 -169 -404t-438 -150t-439 149q-169 150 -169 405q0 254 170 410t438 156t438 -156q169 -156 169 -410zM276 1143v172q57 125 211 125q47 0 128 -20t106 -21q49 0 70 49h174v-176
q-59 -125 -211 -125q-47 1 -128 23t-106 22q-49 0 -67 -49h-177z" />
    <glyph glyph-name="odieresis" unicode="&#xf6;" horiz-adv-x="1247" 
d="M406 1133q-84 0 -137 49q-52 49 -52 129t52 128q53 48 137 48t136 -48t52 -128t-52 -129t-136 -49zM831 1133q-84 0 -136 49t-52 129t52 128t136 48q85 0 137 -48t52 -128t-52 -129t-137 -49zM620 248q154 0 154 282t-154 281q-154 1 -155 -281q0 -282 155 -282z
M1227 536q0 -254 -169 -404t-438 -150t-439 149q-169 150 -169 405q0 254 170 410t438 156t438 -156q169 -156 169 -410z" />
    <glyph glyph-name="divide" unicode="&#xf7;" horiz-adv-x="1056" 
d="M737 306q-1 -83 -61 -140t-147 -57t-147 57t-60 140t60 141q60 59 147 59t147 -58t61 -142zM20 551v313h1018v-313h-1018zM737 1107q-1 -83 -61 -141t-147 -57q-87 -1 -147 57t-60 141t60 141t147 58t147 -58t61 -141z" />
    <glyph glyph-name="oslash" unicode="&#xf8;" horiz-adv-x="1247" 
d="M459 532q0 -59 4 -86l266 322q-43 51 -106 51q-164 0 -164 -287zM624 242q76 0 118 72t42 218q0 35 -4 89l-268 -324q37 -55 112 -55zM623 1102q178 0 319 -74l82 98h174l-145 -176q176 -156 176 -412t-169 -407q-169 -150 -437 -149q-182 0 -318 67l-88 -108h-174
l150 180q-179 152 -179 411q0 258 170 414t439 156z" />
    <glyph glyph-name="ugrave" unicode="&#xf9;" horiz-adv-x="1320" 
d="M387 -18q-123 0 -205 60t-82 198v522q0 14 -17 32t-32 19h-43v268h541v-673q0 -59 31 -81t85 -22t97 8v500h-109v268h557v-778q0 -15 18 -33t32 -18h47v-252h-459q-66 0 -82 147q-160 -165 -379 -165zM336 1434h407l50 -293h-252l-205 178v115z" />
    <glyph glyph-name="uacute" unicode="&#xfa;" horiz-adv-x="1320" 
d="M952 1434v-115l-204 -178h-252l49 293h407zM387 -18q-123 0 -205 60t-82 198v522q0 14 -17 32t-32 19h-43v268h541v-673q0 -59 31 -81t85 -22t97 8v500h-109v268h557v-778q0 -15 18 -33t32 -18h47v-252h-459q-66 0 -82 147q-160 -165 -379 -165z" />
    <glyph glyph-name="ucircumflex" unicode="&#xfb;" horiz-adv-x="1320" 
d="M387 -18q-123 0 -205 60t-82 198v522q0 14 -17 32t-32 19h-43v268h541v-673q0 -59 31 -81t85 -22t97 8v500h-109v268h557v-778q0 -15 18 -33t32 -18h47v-252h-459q-66 0 -82 147q-160 -165 -379 -165zM336 1141v82l147 211h326l143 -211v-82h-192l-127 90l-125 -90h-172z
" />
    <glyph glyph-name="udieresis" unicode="&#xfc;" horiz-adv-x="1320" 
d="M430 1133q-84 0 -136 49t-52 129t52 128t136 48t136 -48t52 -128t-52 -129t-136 -49zM856 1133q-84 0 -136 49t-52 129t52 128t136 48t136 -48t52 -128t-52 -129t-136 -49zM387 -18q-123 0 -205 60t-82 198v522q0 14 -17 32t-32 19h-43v268h541v-673q0 -59 31 -81t85 -22
t97 8v500h-109v268h557v-778q0 -15 18 -33t32 -18h47v-252h-459q-66 0 -82 147q-160 -165 -379 -165z" />
    <glyph glyph-name="yacute" unicode="&#xfd;" horiz-adv-x="1259" 
d="M981 1434v-115l-205 -178h-252l49 293h408zM145 -332v223q168 41 281 132l-330 743q-8 18 -25 32t-34 15h-29v268h625v-268h-109l144 -358h8l106 266q16 35 4 63t-51 29h-18v268h516v-268h-31q-16 0 -39 -19t-33 -44l-278 -586q-92 -190 -179 -303t-190 -193h-338z" />
    <glyph glyph-name="thorn" unicode="&#xfe;" horiz-adv-x="1232" 
d="M598 780q-41 0 -94 -14v-473q42 -21 106 -21t110 56t46 200q0 146 -45 199t-123 53zM-45 -332v236h51q14 0 32 17q17 17 17 32v1167q0 16 -17 34t-32 17h-57v263h491q63 0 64 -91v-382q131 141 309 141t293 -124t115 -405t-132 -413t-335 -133q-158 0 -250 71v-194h94
v-236h-643z" />
    <glyph glyph-name="ydieresis" unicode="&#xff;" horiz-adv-x="1259" 
d="M459 1133q-84 0 -136 49t-53 129q0 80 52 128t137 48q84 0 136 -48t52 -128t-52 -129t-136 -49zM885 1133q-84 0 -136 49t-53 129q0 80 52 128t137 48q84 0 136 -48t52 -128t-52 -129t-136 -49zM145 -332v223q168 41 281 132l-330 743q-8 18 -25 32t-34 15h-29v268h625
v-268h-109l144 -358h8l106 266q16 35 4 63t-51 29h-18v268h516v-268h-31q-16 0 -39 -19t-33 -44l-278 -586q-92 -190 -179 -303t-190 -193h-338z" />
    <glyph glyph-name="Amacron" unicode="&#x100;" horiz-adv-x="1540" 
d="M713 1077l-144 -422h269l-121 422h-4zM16 0v252h27q53 0 78 63l282 801q6 18 -6 36t-30 19h-68v263h772l359 -1135q6 -15 25 -31t36 -16h33v-252h-729v252h159l-53 186h-403q-31 -94 -16 -140t89 -46h54v-252h-609zM432 1524v245h586v-245h-586z" />
    <glyph glyph-name="amacron" unicode="&#x101;" horiz-adv-x="1173" 
d="M530 238q51 0 99 34v162q-53 8 -97 8t-72 -24t-28 -82q0 -98 98 -98zM348 -14q-143 0 -239 80q-97 80 -97 240t111 244q111 83 309 83q113 0 197 -15v66q0 57 -34 84t-112 27q-121 0 -211 -74h-186v305q212 76 486 76t390 -88t115 -279v-432q-1 -15 17 -33t32 -18h35
v-213q-104 -57 -256 -57q-190 0 -246 129q-110 -125 -311 -125zM270 1174v245h586v-245h-586z" />
    <glyph glyph-name="Abreve" unicode="&#x102;" horiz-adv-x="1540" 
d="M713 1077l-144 -422h269l-121 422h-4zM16 0v252h27q53 0 78 63l282 801q6 18 -6 36t-30 19h-68v263h772l359 -1135q6 -15 25 -31t36 -16h33v-252h-729v252h159l-53 186h-403q-31 -94 -16 -140t89 -46h54v-252h-609zM726 1489q-120 0 -196 53t-106 127v129h211
q14 -70 90 -70t90 70h211v-129q-32 -74 -106 -127t-194 -53z" />
    <glyph glyph-name="abreve" unicode="&#x103;" horiz-adv-x="1173" 
d="M530 238q51 0 99 34v162q-53 8 -97 8t-72 -24t-28 -82q0 -98 98 -98zM348 -14q-143 0 -239 80q-97 80 -97 240t111 244q111 83 309 83q113 0 197 -15v66q0 57 -34 84t-112 27q-121 0 -211 -74h-186v305q212 76 486 76t390 -88t115 -279v-432q-1 -15 17 -33t32 -18h35
v-213q-104 -57 -256 -57q-190 0 -246 129q-110 -125 -311 -125zM564 1139q-120 0 -196 53t-106 127v129h211q14 -70 90 -70t90 70h211v-129q-32 -74 -106 -127t-194 -53z" />
    <glyph glyph-name="Aogonek" unicode="&#x104;" horiz-adv-x="1540" 
d="M713 1077l-144 -422h269l-121 422h-4zM1359 -346q-103 0 -164 43q-60 43 -60 115q0 127 198 188h-538v252h159l-53 186h-403q-31 -94 -16 -140t89 -46h54v-252h-609v252h27q53 0 78 63l282 801q6 18 -6 36t-30 19h-68v263h772l359 -1135q6 -15 25 -31t36 -16h33v-252h-49
q-57 -57 -57 -108t73 -52h33v-157q-62 -29 -165 -29z" />
    <glyph glyph-name="aogonek" unicode="&#x105;" horiz-adv-x="1173" 
d="M530 238q51 0 99 34v162q-53 8 -97 8t-72 -24t-28 -82q0 -98 98 -98zM772 -188q0 109 146 170h-13q-190 0 -246 129q-111 -125 -311 -125q-143 0 -239 80q-97 80 -97 240t111 244q111 83 309 83q113 0 197 -15v66q0 57 -34 84t-112 27q-121 0 -211 -74h-186v305
q212 76 486 76t390 -88t115 -279v-432q-1 -15 17 -33t32 -18h35v-211q-109 -74 -108 -143q0 -57 75 -58h33v-157q-61 -29 -165 -29t-164 43t-60 115z" />
    <glyph glyph-name="Cacute" unicode="&#x106;" horiz-adv-x="1316" 
d="M1049 1788v-115l-205 -178h-252l49 293h408zM740 -23q-338 -1 -526 185t-189 544q0 358 185 554t519 196q131 0 240 -22h325v-512h-305l-47 206q-49 14 -113 15q-291 0 -290 -420q0 -221 62 -327q61 -106 205 -105q144 0 257 143h237v-309q-222 -148 -560 -148z" />
    <glyph glyph-name="cacute" unicode="&#x107;" horiz-adv-x="1056" 
d="M889 1434v-115l-205 -178h-252l49 293h408zM623 -18q-303 0 -457 143t-154 411t163 416q163 150 454 150q244 0 385 -55v-326h-238q-25 51 -54 74q-30 23 -85 22q-168 0 -168 -285q0 -152 41 -218q40 -66 142 -66t169 90h195v-254q-157 -102 -393 -102z" />
    <glyph glyph-name="Ccircumflex" unicode="&#x108;" horiz-adv-x="1316" 
d="M434 1495v82l148 211h325l144 -211v-82h-193l-127 90l-125 -90h-172zM742 -23q-338 -1 -526 185t-189 544q0 358 185 554t519 196q131 0 240 -22h325v-512h-305l-47 206q-51 14 -113 15q-291 0 -290 -420q0 -221 62 -327q61 -106 205 -105q144 0 257 143h238v-309
q-223 -148 -561 -148z" />
    <glyph glyph-name="ccircumflex" unicode="&#x109;" horiz-adv-x="1056" 
d="M285 1141v82l147 211h326l143 -211v-82h-192l-127 90l-125 -90h-172zM623 -18q-303 0 -457 143t-154 411t163 416q163 150 454 150q244 0 385 -55v-326h-238q-25 51 -54 74q-30 23 -85 22q-168 0 -168 -285q0 -152 41 -218q40 -66 142 -66t169 90h195v-254
q-157 -102 -393 -102z" />
    <glyph glyph-name="Cdotaccent" unicode="&#x10a;" horiz-adv-x="1323" 
d="M740 -23q-338 -1 -526 185t-189 544q0 358 185 554t519 196q131 0 240 -22h325v-512h-305l-47 206q-49 14 -113 15q-291 0 -290 -420q0 -221 62 -327q61 -106 205 -105q144 0 257 143h237v-309q-222 -148 -560 -148zM745 1485q-92 0 -150 52t-58 139q0 86 58 140t150 54
q93 0 151 -53t58 -141t-58 -139q-58 -52 -151 -52z" />
    <glyph glyph-name="cdotaccent" unicode="&#x10b;" horiz-adv-x="1056" 
d="M623 -18q-303 0 -457 143t-154 411t163 416q163 150 454 150q244 0 385 -55v-326h-238q-25 51 -54 74q-30 23 -85 22q-168 0 -168 -285q0 -152 41 -218q40 -66 142 -66t169 90h195v-254q-157 -102 -393 -102zM598 1126q-92 0 -150 52t-59 140q0 87 58 140q59 53 151 53
t150 -53t59 -140q-1 -88 -59 -140t-150 -52z" />
    <glyph glyph-name="Ccaron" unicode="&#x10c;" horiz-adv-x="1323" 
d="M432 1788h193l127 -90l125 90h170v-82l-146 -211h-326l-143 211v82zM740 -23q-338 -1 -526 185t-189 544q0 358 185 554t519 196q131 0 240 -22h325v-512h-305l-47 206q-49 14 -113 15q-291 0 -290 -420q0 -221 62 -327q61 -106 205 -105q144 0 257 143h237v-309
q-222 -148 -560 -148z" />
    <glyph glyph-name="ccaron" unicode="&#x10d;" horiz-adv-x="1056" 
d="M287 1434h192l127 -91l125 91h170v-82l-145 -211h-326l-143 211v82zM623 -18q-303 0 -457 143t-154 411t163 416q163 150 454 150q244 0 385 -55v-326h-238q-25 51 -54 74q-30 23 -85 22q-168 0 -168 -285q0 -152 41 -218q40 -66 142 -66t169 90h195v-254
q-157 -102 -393 -102z" />
    <glyph glyph-name="Dcaron" unicode="&#x10e;" horiz-adv-x="1499" 
d="M342 1784h193l127 -90l124 90h170v-82l-145 -211h-326l-143 211v82zM614 264h60q313 0 313 445q0 227 -77 335t-236 109h-60v-889zM18 0v252h60q18 0 38 21q19 22 19 38v803q0 16 -19 36t-38 21h-60v263h670q406 0 598 -172t193 -535q0 -727 -805 -727h-656z" />
    <glyph glyph-name="dcaron" unicode="&#x10f;" horiz-adv-x="1308" 
d="M1587 1434v-115l-112 -182h-236l12 297h336zM633 254q63 0 110 35v477q-63 18 -96 18q-84 0 -131 -54t-47 -200q0 -276 164 -276zM461 -20q-444 0 -445 561q0 287 125 424t305 137t297 -139v208h-104v263h487q30 0 48 -25t18 -66v-1040q0 -15 17 -33t32 -18h49v-252h-467
q-43 0 -63 100q-111 -120 -299 -120z" />
    <glyph glyph-name="Dcroat" unicode="&#x110;" horiz-adv-x="1499" 
d="M614 264h60q313 0 313 445q0 227 -77 335t-236 109h-60v-313h195v-250h-195v-326zM18 590v250h117v274q0 16 -19 36t-38 21h-60v263h670q406 0 598 -172t193 -535q0 -727 -805 -727h-656v252h60q18 0 38 21q19 22 19 38v279h-117z" />
    <glyph glyph-name="dcroat" unicode="&#x111;" horiz-adv-x="1308" 
d="M633 254q63 0 110 35v477q-63 18 -96 18q-84 0 -131 -54t-47 -200q0 -276 164 -276zM461 -20q-444 0 -445 561q0 287 125 424t305 137t297 -139l2 170h-170v192h170l-2 109h383q30 0 48 -23t18 -57l2 -29h98v-192h-98l-2 -830q0 -15 17 -33t32 -18h49v-252h-467
q-43 0 -63 100q-111 -120 -299 -120z" />
    <glyph glyph-name="Emacron" unicode="&#x112;" horiz-adv-x="1282" 
d="M18 0v252h60q18 0 38 21q19 22 19 38v803q0 16 -19 36t-38 21h-60v263h1221v-465h-276l-41 182h-308v-274h330v-291h-330v-312h316l39 218h288v-492h-1239zM354 1524v245h586v-245h-586z" />
    <glyph glyph-name="emacron" unicode="&#x113;" horiz-adv-x="1155" 
d="M597 846q-60 0 -92 -44t-42 -147h258q-8 103 -36 147t-88 44zM651 248q135 0 207 92h236v-260q-174 -98 -490 -98q-592 0 -592 553q0 259 158 413t431 154t405 -134t131 -417l-4 -107h-672q10 -104 54 -150t136 -46zM305 1174v245h586v-245h-586z" />
    <glyph glyph-name="Ebreve" unicode="&#x114;" horiz-adv-x="1282" 
d="M652 1493q-120 0 -196 53t-106 127v129h211q14 -70 90 -70t90 70h211v-129q-32 -74 -106 -127t-194 -53zM18 0v252h60q18 0 38 21q19 22 19 38v803q0 16 -19 36t-38 21h-60v263h1221v-465h-276l-41 182h-308v-274h330v-291h-330v-312h316l39 218h288v-492h-1239z" />
    <glyph glyph-name="ebreve" unicode="&#x115;" horiz-adv-x="1155" 
d="M574 1139q-120 0 -196 53t-106 127v129h211q14 -70 90 -70t91 70h210v-129q-32 -74 -106 -127t-194 -53zM599 846q-60 0 -92 -44t-42 -147h258q-8 103 -36 147t-88 44zM653 248q135 0 207 92h236v-260q-174 -98 -490 -98q-592 0 -592 553q0 259 158 413t431 154t405 -134
t131 -417l-4 -107h-672q10 -104 54 -150t136 -46z" />
    <glyph glyph-name="Edotaccent" unicode="&#x116;" horiz-adv-x="1282" 
d="M18 0v252h60q18 0 38 21q19 22 19 38v803q0 16 -19 36t-38 21h-60v263h1221v-465h-276l-41 182h-308v-274h330v-291h-330v-312h316l39 218h288v-492h-1239zM651 1475q-92 0 -150 52q-59 52 -59 139t58 140q58 54 151 54t151 -54t58 -140q0 -87 -58 -139t-151 -52z" />
    <glyph glyph-name="edotaccent" unicode="&#x117;" horiz-adv-x="1155" 
d="M597 846q-60 0 -92 -44t-42 -147h258q-8 103 -36 147t-88 44zM651 248q135 0 207 92h236v-260q-174 -98 -490 -98q-592 0 -592 553q0 259 158 413t431 154t405 -134t131 -417l-4 -107h-672q10 -104 54 -150t136 -46zM602 1124q-92 0 -150 52t-58 140q0 87 58 140t150 53
t150 -53t59 -140q-1 -88 -59 -140t-150 -52z" />
    <glyph glyph-name="Eogonek" unicode="&#x118;" horiz-adv-x="1282" 
d="M18 0v252h60q18 0 38 21q19 22 19 38v803q0 16 -19 36t-38 21h-60v263h1221v-465h-276l-41 182h-308v-274h330v-291h-330v-312h316l39 218h288v-492h-90q-57 -57 -57 -104q0 -55 74 -56h33v-157q-61 -29 -165 -29t-164 43t-61 115q0 127 199 188h-1008z" />
    <glyph glyph-name="eogonek" unicode="&#x119;" horiz-adv-x="1155" 
d="M599 846q-60 0 -92 -44t-42 -147h258q-8 103 -36 147t-88 44zM653 248q135 0 207 92h236v-256q-158 -111 -158 -186q0 -57 74 -58h32v-157q-61 -29 -163 -29t-164 43q-61 43 -62 115q0 121 205 190q-96 -20 -254 -20q-592 0 -592 553q0 259 158 413t431 154t405 -134
t131 -417l-4 -107h-672q10 -104 54 -150t136 -46z" />
    <glyph glyph-name="Ecaron" unicode="&#x11a;" horiz-adv-x="1282" 
d="M338 1784h192l127 -90l125 90h170v-82l-145 -211h-326l-143 211v82zM18 0v252h60q18 0 38 21q19 22 19 38v803q0 16 -19 36t-38 21h-60v263h1221v-465h-276l-41 182h-308v-274h330v-291h-330v-312h316l39 218h288v-492h-1239z" />
    <glyph glyph-name="ecaron" unicode="&#x11b;" horiz-adv-x="1155" 
d="M289 1434h192l127 -91l125 91h170v-82l-145 -211h-326l-143 211v82zM597 846q-60 0 -92 -44t-42 -147h258q-8 103 -36 147t-88 44zM651 248q135 0 207 92h236v-260q-174 -98 -490 -98q-592 0 -592 553q0 259 158 413t431 154t405 -134t131 -417l-4 -107h-672
q10 -104 54 -150t136 -46z" />
    <glyph glyph-name="Gcircumflex" unicode="&#x11c;" horiz-adv-x="1427" 
d="M432 1495v82l148 211h325l144 -211v-82h-193l-127 90l-125 -90h-172zM735 -23q-717 0 -717 725q0 365 186 560t527 194q135 0 240 -22h325v-498h-307l-47 192q-61 14 -119 15q-141 0 -216 -96q-75 -97 -75 -323t56 -337t188 -111q59 0 98 9v198h-100v250h643v-256h-31
q-18 0 -37 -20t-20 -37v-420h-237q-18 41 -58 41q-113 -64 -299 -64z" />
    <glyph glyph-name="gcircumflex" unicode="&#x11d;" horiz-adv-x="1155" 
d="M465 738q0 -144 101 -144q102 0 102 143t-101 144q-102 1 -102 -143zM668 2h-314q-2 -12 -2 -29q0 -65 34 -87t142 -21q227 0 228 82q0 55 -88 55zM563 391q-109 0 -194 19v-15q0 -35 13 -52t52 -17h373q176 0 257 -68t81 -217q0 -193 -151 -303t-455 -109
q-305 1 -427 63t-122 185q0 154 196 225q-94 51 -94 154q0 127 133 207q-159 88 -159 268q0 179 131 275t366 96q98 0 197 -21h381v-268h-41q-25 0 -41 -29l2 -43q0 -170 -130 -260t-368 -90zM260 1141v82l148 211h325l144 -211v-82h-193l-127 90l-125 -90h-172z" />
    <glyph glyph-name="Gbreve" unicode="&#x11e;" horiz-adv-x="1427" 
d="M742 1493q-120 0 -196 53t-106 127v129h211q14 -70 90 -70t90 70h211v-129q-32 -74 -106 -127t-194 -53zM735 -23q-717 0 -717 725q0 365 186 560t527 194q135 0 240 -22h325v-498h-307l-47 192q-61 14 -119 15q-141 0 -216 -96q-75 -97 -75 -323t56 -337t188 -111
q59 0 98 9v198h-100v250h643v-256h-31q-18 0 -37 -20t-20 -37v-420h-237q-18 41 -58 41q-113 -64 -299 -64z" />
    <glyph glyph-name="gbreve" unicode="&#x11f;" horiz-adv-x="1155" 
d="M463 738q0 -144 101 -144q102 0 102 143t-101 144q-102 1 -102 -143zM666 2h-314q-2 -12 -2 -29q0 -65 34 -87t142 -21q227 0 228 82q0 55 -88 55zM561 391q-109 0 -194 19v-15q0 -35 13 -52t52 -17h373q176 0 257 -68t81 -217q0 -193 -151 -303t-455 -109
q-305 1 -427 63t-122 185q0 154 196 225q-94 51 -94 154q0 127 133 207q-160 88 -160 268q-1 179 131 275t367 96q98 0 197 -21h381v-268h-41q-25 0 -41 -29l2 -43q0 -170 -130 -260t-368 -90zM568 1139q-120 0 -196 53t-106 127v129h211q14 -70 90 -70t90 70h211v-129
q-32 -74 -106 -127t-194 -53z" />
    <glyph glyph-name="Gdotaccent" unicode="&#x120;" horiz-adv-x="1427" 
d="M735 -23q-717 0 -717 725q0 365 186 560t527 194q135 0 240 -22h325v-498h-307l-47 192q-61 14 -119 15q-141 0 -216 -96q-75 -97 -75 -323t56 -337t188 -111q59 0 98 9v198h-100v250h643v-256h-31q-18 0 -37 -20t-20 -37v-420h-237q-18 41 -58 41q-113 -64 -299 -64z
M745 1479q-92 0 -150 52t-58 139t58 140q58 54 150 54q93 0 151 -54t58 -140q0 -87 -58 -139t-151 -52z" />
    <glyph glyph-name="gdotaccent" unicode="&#x121;" horiz-adv-x="1155" 
d="M463 738q0 -144 101 -144q102 0 102 143t-101 144q-102 1 -102 -143zM666 2h-314q-2 -12 -2 -29q0 -65 34 -87t142 -21q227 0 228 82q0 55 -88 55zM561 391q-109 0 -194 19v-15q0 -35 13 -52t52 -17h373q176 0 257 -68t81 -217q0 -193 -151 -303t-455 -109
q-305 1 -427 63t-122 185q0 154 196 225q-94 51 -94 154q0 127 133 207q-160 88 -160 268q-1 179 131 275t367 96q98 0 197 -21h381v-268h-41q-25 0 -41 -29l2 -43q0 -170 -130 -260t-368 -90zM571 1124q-92 0 -150 52q-59 52 -59 140q0 87 58 140t151 53t151 -53t58 -140
q0 -88 -58 -140t-151 -52z" />
    <glyph glyph-name="Gcommaaccent" unicode="&#x122;" horiz-adv-x="1427" 
d="M688 -307q0 16 -18 28t-39 23q-45 29 -45 88t42 92t116 33t120 -43q47 -43 47 -125q1 -131 -79 -197t-244 -77v120q100 12 100 58zM737 -23q-717 0 -717 725q0 365 186 560t527 194q135 0 240 -22h325v-498h-307l-47 192q-61 14 -119 15q-141 0 -216 -96
q-75 -97 -75 -323t56 -337q55 -111 188 -111q59 0 99 9v198h-101v250h643v-256h-30q-17 0 -37 -20t-21 -37v-420h-237q-18 41 -58 41q-113 -64 -299 -64z" />
    <glyph glyph-name="gcommaaccent" unicode="&#x123;" horiz-adv-x="1155" 
d="M465 738q0 -144 101 -144q102 0 102 143t-101 144q-102 1 -102 -143zM668 2h-314q-2 -12 -2 -29q0 -65 34 -87t142 -21q227 0 228 82q0 55 -88 55zM563 391q-109 0 -194 19v-15q0 -35 13 -52t52 -17h373q176 0 257 -68t81 -217q0 -193 -151 -303t-455 -109
q-305 1 -427 63t-122 185q0 154 196 225q-94 51 -94 154q0 127 133 207q-159 88 -159 268q0 179 131 275t366 96q98 0 197 -21h381v-268h-41q-25 0 -41 -29l2 -43q0 -170 -130 -260t-368 -90zM621 1389q0 -25 57 -52q45 -29 45 -88t-42 -92t-116 -33t-121 43t-47 125
q0 131 80 198t244 77v-121q-100 -12 -100 -57z" />
    <glyph glyph-name="Hcircumflex" unicode="&#x124;" horiz-adv-x="1566" 
d="M473 1491v82l148 211h325l144 -211v-82h-193l-127 90l-125 -90h-172zM18 0v252h60q18 0 38 21q19 22 19 38v803q0 16 -19 36t-38 21h-60v263h719v-263h-123v-323h338v323h-123v263h719v-263h-59q-17 0 -37 -20t-20 -37v-803q0 -16 19 -38t38 -21h59v-252h-719v252h123
v352h-338v-352h123v-252h-719z" />
    <glyph glyph-name="hcircumflex" unicode="&#x125;" horiz-adv-x="1323" 
d="M344 1477v82l148 210h325l144 -210v-82h-193l-127 90l-125 -90h-172zM768 0v672q0 56 -29 76t-83 20t-101 -6v-510h119v-252h-668v252h51q14 0 32 18q17 18 17 33v819q0 16 -16 32t-33 17h-57v263h489q66 0 66 -91v-405q160 164 383 164q123 0 201 -60t78 -198v-541
q0 -15 17 -33t32 -18h32v-252h-530z" />
    <glyph glyph-name="Hbar" unicode="&#x126;" horiz-adv-x="1566" 
d="M612 829h338v95h-338v-95zM16 0v252h60q18 0 38 21q19 22 19 38v613h-119v153h119v37q0 16 -19 36t-38 21h-60v263h719v-263h-123v-94h338v94h-123v263h719v-263h-59q-17 0 -37 -20t-20 -37v-37h118v-153h-118v-613q0 -16 19 -38t38 -21h59v-252h-719v252h123v338h-338
v-338h123v-252h-719z" />
    <glyph glyph-name="hbar" unicode="&#x127;" horiz-adv-x="1323" 
d="M14 1325h107v109h383q66 0 65 -91v-18h170v-192h-170v-195q160 164 383 164q123 0 201 -60t78 -198v-541q0 -15 17 -33t32 -18h33v-252h-531v672q0 57 -28 77q-28 19 -84 19t-101 -6v-510h119v-252h-668v252h52q14 0 31 18t18 33v830h-107v192z" />
    <glyph glyph-name="Imacron" unicode="&#x12a;" horiz-adv-x="768" 
d="M18 0v252h70q18 0 38 21q19 22 19 38v803q0 16 -19 36t-38 21h-70v263h734v-263h-72q-16 0 -36 -20t-19 -37v-803q0 -16 19 -38t36 -21h72v-252h-734zM92 1524v245h586v-245h-586z" />
    <glyph glyph-name="imacron" unicode="&#x12b;" horiz-adv-x="681" 
d="M29 1174v245h585v-245h-585zM12 0v252h54q14 0 31 17t18 34v459q1 14 -17 32t-32 19h-60v268h494q63 0 63 -104v-674q-1 -15 17 -33t34 -18h54v-252h-656z" />
    <glyph glyph-name="Iogonek" unicode="&#x12e;" horiz-adv-x="768" 
d="M526 -346q-102 0 -164 43q-61 43 -61 115q0 127 201 188h-484v252h70q18 0 38 21q19 22 19 38v803q0 16 -19 36t-38 21h-70v263h734v-263h-72q-16 0 -36 -20t-19 -37v-803q0 -16 19 -38t36 -21h72v-252h-109q-59 -57 -59 -104q0 -55 73 -56h33v-157q-62 -29 -164 -29z
" />
    <glyph glyph-name="iogonek" unicode="&#x12f;" horiz-adv-x="681" 
d="M340 1124q-92 0 -150 52t-57 139q0 86 57 140q58 54 150 54t150 -53t58 -140q0 -88 -58 -140t-150 -52zM484 -346q-103 0 -163 43t-61 115q0 127 201 188h-447v252h54q14 0 31 17t18 34v459q1 14 -17 32t-32 19h-60v268h494q66 0 65 -104v-674q-1 -15 17 -33t32 -18h54
v-252h-70q-57 -55 -57 -104q0 -55 73 -56h33v-157q-62 -29 -165 -29z" />
    <glyph glyph-name="Idotaccent" unicode="&#x130;" horiz-adv-x="768" 
d="M18 0v252h70q18 0 38 21q19 22 19 38v803q0 16 -19 36t-38 21h-70v263h734v-263h-72q-16 0 -36 -20t-19 -37v-803q0 -16 19 -38t36 -21h72v-252h-734zM389 1475q-92 0 -150 52q-59 52 -59 139t58 140q58 54 151 54t151 -54t58 -140q0 -87 -58 -139t-151 -52z" />
    <glyph glyph-name="dotlessi" unicode="&#x131;" horiz-adv-x="681" 
d="M14 0v252h54q14 0 31 17t18 34v459q1 14 -17 32t-32 19h-60v268h494q63 0 63 -104v-674q1 -15 19 -33t32 -18h54v-252h-656z" />
    <glyph glyph-name="Jcircumflex" unicode="&#x134;" horiz-adv-x="1116" 
d="M436 -16q-268 0 -420 77v308h230q49 -86 135 -86q106 0 106 123v708q0 16 -19 36t-36 21h-82v263h744v-263h-70q-18 0 -36 -20t-19 -37v-668q0 -242 -133 -352q-132 -110 -400 -110zM412 1491v82l147 211h326l143 -211v-82h-192l-127 90l-125 -90h-172z" />
    <glyph glyph-name="jcircumflex" unicode="&#x135;" horiz-adv-x="626" 
d="M4 1141v82l148 211h325l144 -211v-82h-193l-127 90l-125 -90h-172zM164 -348q-111 0 -217 29v227h53q68 0 92 22t25 76v756q1 14 -17 32t-32 19h-60v268h494q31 1 48 -29t17 -75v-991q0 -182 -99 -258t-304 -76z" />
    <glyph glyph-name="Kcommaaccent" unicode="&#x136;" horiz-adv-x="1511" 
d="M651 -168q0 59 42 92t116 33t121 -43t47 -125q0 -131 -80 -197t-244 -77v120q100 12 101 58q0 14 -10 22t-18 14q-7 6 -30 15q-45 29 -45 88zM18 0v252h60q18 0 38 21q19 22 19 38v803q0 16 -19 36t-38 21h-60v263h705v-263h-109v-364l267 258q43 41 33 74t-60 32h-33
v263h666v-263h-27q-47 0 -106 -65l-275 -277l324 -522q41 -55 67 -55h23v-252h-578v221l-202 338l-99 -82v-225h115v-252h-711z" />
    <glyph glyph-name="kcommaaccent" unicode="&#x137;" horiz-adv-x="1300" 
d="M641 -307q0 24 -57 51q-45 29 -45 88t42 92q41 33 115 33t121 -43t47 -125q0 -131 -80 -197t-243 -77v120q100 12 100 58zM743 0v246l-102 160l-82 -60v-94h90v-252h-639v252h51q15 0 33 17t19 34v817q1 14 -17 32t-35 19h-55v263h490q63 0 63 -91v-720l146 120
q37 33 32 57q-4 24 -43 23h-39v258h623v-268h-39q-33 0 -65 -29l-177 -151l199 -328q33 -53 61 -53h25v-252h-539z" />
    <glyph glyph-name="Lacute" unicode="&#x139;" horiz-adv-x="1245" 
d="M707 1784v-115l-205 -178h-252l49 293h408zM18 0v252h60q18 0 38 21q19 22 19 38v803q0 16 -19 36t-38 21h-60v263h758v-263h-162v-897h283l39 254h293v-528h-1211z" />
    <glyph glyph-name="lacute" unicode="&#x13a;" horiz-adv-x="696" 
d="M633 1769v-114l-205 -178h-252l49 292h408zM10 0v252h60q14 0 31 17t18 34v817q1 16 -17 34t-32 17h-64v263h496q66 0 65 -91v-1040q-1 -15 17 -33t32 -18h62v-252h-668z" />
    <glyph glyph-name="Lcommaaccent" unicode="&#x13b;" horiz-adv-x="1245" 
d="M569 -307q0 16 -18 28t-39 23q-45 29 -45 88t42 92t116 33q75 0 121 -43t47 -125q0 -131 -80 -197t-244 -77v120q100 12 100 58zM18 0v252h60q18 0 38 21q19 22 19 38v803q0 16 -19 36t-38 21h-60v263h758v-263h-162v-897h283l39 254h293v-528h-1211z" />
    <glyph glyph-name="lcommaaccent" unicode="&#x13c;" horiz-adv-x="696" 
d="M297 -307q0 22 -57 51q-45 29 -45 88t42 92q41 33 115 33t121 -43t47 -125q0 -131 -80 -197t-243 -77v120q100 12 100 58zM12 0v252h60q14 0 31 17t18 34v817q1 16 -17 34t-32 17h-64v263h496q66 0 65 -91v-1040q-1 -15 17 -33t32 -18h62v-252h-668z" />
    <glyph glyph-name="Lcaron" unicode="&#x13d;" horiz-adv-x="1245" 
d="M1188 1434v-115l-113 -189h-235l12 304h336zM18 0v252h60q18 0 38 21q19 22 19 38v803q0 16 -19 36t-38 21h-60v263h758v-263h-162v-897h283l39 256h293v-530h-1211z" />
    <glyph glyph-name="lcaron" unicode="&#x13e;" horiz-adv-x="696" 
d="M965 1434v-115l-113 -182h-236l13 297h336zM12 0v252h60q14 0 31 17t18 34v817q1 16 -17 34t-32 17h-64v263h496q66 0 65 -91v-1040q-1 -15 17 -33t32 -18h62v-252h-668z" />
    <glyph glyph-name="Lslash" unicode="&#x141;" horiz-adv-x="1245" 
d="M135 1114q0 16 -19 36t-38 21h-60v263h758v-263h-162v-284l295 110v-252l-295 -110v-361h283l39 254h293v-528h-1211v252h60q18 0 38 21q19 22 19 38v146l-119 -43v252l119 43v405z" />
    <glyph glyph-name="lslash" unicode="&#x142;" horiz-adv-x="694" 
d="M121 1120q1 16 -17 34t-32 17h-64v263h496q66 0 65 -91v-315l105 53v-237l-105 -56v-485q-1 -15 17 -33t32 -18h62v-252h-668v252h60q14 0 31 17t18 34v256l-107 -55v239l107 54v323z" />
    <glyph glyph-name="Nacute" unicode="&#x143;" horiz-adv-x="1499" 
d="M1081 1784v-115l-204 -178h-252l49 293h407zM18 0v252h60q18 0 38 21q19 22 19 38v803q0 16 -19 36t-38 21h-60v263h576l428 -740h6v477h-125v263h578v-263h-54q-16 0 -35 -20t-20 -37v-1114h-416l-473 813h-6v-561h131v-252h-590z" />
    <glyph glyph-name="nacute" unicode="&#x144;" horiz-adv-x="1323" 
d="M975 1434v-115l-205 -178h-252l49 293h408zM14 0v252h52q14 0 32 18t19 33v459q1 16 -17 34t-34 17h-58v268h469q68 0 80 -149q164 170 389 170q123 0 201 -60t78 -198v-541q0 -15 18 -33t33 -18h33v-252h-531v672q0 57 -29 77q-29 19 -83 19t-103 -6v-510h121v-252h-670
z" />
    <glyph glyph-name="Ncommaaccent" unicode="&#x145;" horiz-adv-x="1499" 
d="M606 -168q0 59 42 92t116 33t121 -43t47 -125q0 -131 -80 -197t-244 -77v120q100 12 101 58q-1 14 -11 22t-17 14t-30 15q-45 29 -45 88zM18 0v252h60q18 0 38 21q19 22 19 38v803q0 16 -19 36t-38 21h-60v263h576l428 -740h6v477h-125v263h578v-263h-54q-16 0 -35 -20
t-20 -37v-1114h-416l-473 813h-6v-561h131v-252h-590z" />
    <glyph glyph-name="ncommaaccent" unicode="&#x146;" horiz-adv-x="1323" 
d="M522 -168q0 59 42 92t116 33t121 -43t47 -125q0 -131 -80 -197t-244 -77v120q100 12 101 58q-1 14 -11 22t-17 14t-30 15q-45 29 -45 88zM14 0v252h52q14 0 32 18t19 33v459q1 16 -17 34t-34 17h-58v268h469q68 0 80 -149q164 170 389 170q123 0 201 -60t78 -198v-541
q0 -15 18 -33t33 -18h33v-252h-531v672q0 57 -29 77q-29 19 -83 19t-103 -6v-510h121v-252h-670z" />
    <glyph glyph-name="Ncaron" unicode="&#x147;" horiz-adv-x="1499" 
d="M465 1784h192l127 -90l125 90h170v-82l-145 -211h-326l-143 211v82zM18 0v252h60q18 0 38 21q19 22 19 38v803q0 16 -19 36t-38 21h-60v263h576l428 -740h6v477h-125v263h578v-263h-54q-16 0 -35 -20t-20 -37v-1114h-416l-473 813h-6v-561h131v-252h-590z" />
    <glyph glyph-name="ncaron" unicode="&#x148;" horiz-adv-x="1323" 
d="M358 1434h193l127 -91l125 91h170v-82l-146 -211h-325l-144 211v82zM14 0v252h52q14 0 32 18t19 33v459q1 16 -17 34t-34 17h-58v268h469q68 0 80 -149q164 170 389 170q123 0 201 -60t78 -198v-541q0 -15 18 -33t33 -18h33v-252h-531v672q0 57 -29 77q-29 19 -83 19
t-103 -6v-510h121v-252h-670z" />
    <glyph glyph-name="Omacron" unicode="&#x14c;" horiz-adv-x="1525" 
d="M762 279q114 -1 182 109t68 320t-68 318t-184 107t-182 -107t-66 -317t68 -321t182 -109zM762 -23q-326 0 -534 197t-208 542q0 344 211 542t531 198t530 -198q211 -198 211 -542q1 -344 -207 -542q-208 -197 -534 -197zM467 1528v246h586v-246h-586z" />
    <glyph glyph-name="omacron" unicode="&#x14d;" horiz-adv-x="1247" 
d="M620 248q154 0 154 282t-154 281q-154 1 -155 -281q0 -282 155 -282zM1227 536q0 -254 -169 -404t-438 -150t-439 149q-169 150 -169 405q0 254 170 410t438 156t438 -156q169 -156 169 -410zM328 1174v245h585v-245h-585z" />
    <glyph glyph-name="Ohungarumlaut" unicode="&#x150;" horiz-adv-x="1525" 
d="M815 1788v-109l-147 -184h-230l35 293h342zM1214 1788v-109l-147 -184h-227l32 293h342zM762 279q114 -1 182 109t68 320t-68 318t-184 107t-182 -107t-66 -317t68 -321t182 -109zM762 -23q-326 0 -534 197t-208 542q0 344 211 542t531 198t530 -198q211 -198 211 -542
q1 -344 -207 -542q-208 -197 -534 -197z" />
    <glyph glyph-name="ohungarumlaut" unicode="&#x151;" horiz-adv-x="1247" 
d="M676 1434v-109l-148 -184h-229l35 293h342zM1075 1434v-109l-147 -184h-228l33 293h342zM620 248q154 0 154 282t-154 281q-154 1 -155 -281q0 -282 155 -282zM1227 536q0 -254 -169 -404t-438 -150t-439 149q-169 150 -169 405q0 254 170 410t438 156t438 -156
q169 -156 169 -410z" />
    <glyph glyph-name="OE" unicode="&#x152;" horiz-adv-x="2021" 
d="M823 272h51v885h-51q-159 0 -235 -104t-76 -330q0 -451 311 -451zM809 0q-406 0 -597 172t-192 535q0 727 803 727h1155v-465h-276l-41 182h-307v-274h327v-291h-327v-312h313l39 218h291v-492h-1188z" />
    <glyph glyph-name="oe" unicode="&#x153;" horiz-adv-x="1906" 
d="M1353 846q-60 0 -92 -44t-42 -147h256q-6 103 -34 147t-88 44zM618 248q152 0 152 282t-152 281q-152 1 -152 -281t152 -282zM594 -18q-248 0 -414 150t-166 404t167 410t415 156t393 -141q131 141 387 141t385 -134t129 -417q0 -76 -6 -107h-665q10 -104 54 -150
t134 -46q135 0 207 92h235v-260q-175 -98 -455 -98t-409 133q-143 -133 -391 -133z" />
    <glyph glyph-name="Racute" unicode="&#x154;" horiz-adv-x="1449" 
d="M967 1784v-115l-205 -178h-252l49 293h408zM602 1153v-358h82q98 0 137 44t39 134t-40 135t-136 45h-82zM18 0v252h60q18 0 38 21q19 22 19 38v803q0 16 -19 36t-38 21h-60v263h713q311 0 459 -102t147 -308q-1 -129 -67 -208t-211 -118v-8q115 -25 173 -87t91 -208
l23 -92q12 -51 51 -51h35v-252h-525l-47 389q-10 88 -46 123t-114 35h-86v-295h129v-252h-725z" />
    <glyph glyph-name="racute" unicode="&#x155;" horiz-adv-x="929" 
d="M807 1434v-115l-205 -178h-252l49 293h408zM14 0v252h52q16 0 33 17t18 34v459q-1 14 -19 32t-32 19h-58v268h469q68 0 80 -147q57 78 121 119t158 41q29 0 65 -13v-331h-45q-174 0 -293 -33v-465h113v-252h-662z" />
    <glyph glyph-name="Rcommaaccent" unicode="&#x156;" horiz-adv-x="1449" 
d="M602 1153v-358h82q98 0 137 44t39 134t-40 135t-136 45h-82zM18 0v252h60q18 0 38 21q19 22 19 38v803q0 16 -19 36t-38 21h-60v263h713q311 0 459 -102t147 -308q-1 -129 -67 -208t-211 -118v-8q115 -25 173 -87t91 -208l23 -92q12 -51 51 -51h35v-252h-525l-47 389
q-10 88 -46 123t-114 35h-86v-295h129v-252h-725zM696 -307q0 13 -10 21t-14 12t-16 10q-62 30 -62 92q0 63 42 96t116 33t120 -43t48 -125q0 -131 -80 -197t-244 -77v120q100 12 100 58z" />
    <glyph glyph-name="rcommaaccent" unicode="&#x157;" horiz-adv-x="929" 
d="M184 -168q0 59 42 92t116 33t121 -43t47 -125q0 -131 -80 -197t-244 -77v120q100 12 101 58q-1 16 -19 28t-39 23q-45 29 -45 88zM14 0v252h52q16 0 33 17t18 34v459q-1 14 -19 32t-32 19h-58v268h469q68 0 80 -147q57 78 121 119t158 41q29 0 65 -13v-331h-45
q-174 0 -293 -33v-465h113v-252h-662z" />
    <glyph glyph-name="Rcaron" unicode="&#x158;" horiz-adv-x="1449" 
d="M350 1784h193l127 -90l125 90h170v-82l-146 -211h-325l-144 211v82zM602 1153v-358h82q98 0 137 44t39 134t-40 135t-136 45h-82zM18 0v252h60q18 0 38 21q19 22 19 38v803q0 16 -19 36t-38 21h-60v263h713q311 0 459 -102t147 -308q-1 -129 -67 -208t-211 -118v-8
q115 -25 173 -87t91 -208l23 -92q12 -51 51 -51h35v-252h-525l-47 389q-10 88 -46 123t-114 35h-86v-295h129v-252h-725z" />
    <glyph glyph-name="rcaron" unicode="&#x159;" horiz-adv-x="929" 
d="M190 1434h193l127 -91l125 91h170v-82l-146 -211h-325l-144 211v82zM14 0v252h52q16 0 33 17t18 34v459q-1 14 -19 32t-32 19h-58v268h469q68 0 80 -147q57 78 121 119t158 41q29 0 65 -13v-331h-45q-174 0 -293 -33v-465h113v-252h-662z" />
    <glyph glyph-name="Sacute" unicode="&#x15a;" horiz-adv-x="1150" 
d="M885 1788v-115l-205 -178h-252l49 293h408zM565 -23q-129 0 -241 23h-306v453h312l41 -179q43 -14 123 -14q174 0 174 127q0 63 -47 90t-117 47t-122 32q-135 36 -236 118q-123 100 -122 327t145 341t388 114q154 0 262 -22h262v-416h-307l-41 153q-47 14 -106 15
q-174 0 -174 -125q0 -78 94 -111q23 -10 78 -24l24 -6q267 -72 371 -167t104 -294q0 -482 -559 -482z" />
    <glyph glyph-name="sacute" unicode="&#x15b;" horiz-adv-x="999" 
d="M805 1434v-115l-205 -178h-252l49 293h408zM971 361q0 -379 -510 -379q-264 0 -451 59v301h236q53 -96 181 -96t128 65q0 33 -34 47t-140 25q-188 20 -281 100q-92 80 -92 258q0 177 131 269t373 92t418 -55v-283h-234q-53 76 -173 76t-120 -58q0 -27 32 -40t130 -25
q217 -27 311 -99t95 -257z" />
    <glyph glyph-name="Scircumflex" unicode="&#x15c;" horiz-adv-x="1150" 
d="M270 1495v82l148 211h325l144 -211v-82h-193l-127 90l-125 -90h-172zM567 -23q-129 0 -241 23h-306v453h312l41 -179q43 -14 123 -14q174 0 174 127q0 63 -47 90t-117 47t-122 32q-135 36 -236 118q-123 100 -122 327t145 341t388 114q154 0 262 -22h262v-416h-307
l-41 153q-47 14 -106 15q-174 0 -174 -125q0 -78 94 -111q23 -10 78 -24l24 -6q267 -72 371 -167t104 -294q0 -482 -559 -482z" />
    <glyph glyph-name="scircumflex" unicode="&#x15d;" horiz-adv-x="999" 
d="M195 1141v82l147 211h326l143 -211v-82h-193l-126 90l-125 -90h-172zM977 361q0 -379 -510 -379q-264 0 -451 59v301h236q53 -96 181 -96t128 65q0 33 -34 47t-140 25q-188 20 -281 100q-92 80 -92 258q0 177 131 269t373 92t418 -55v-283h-234q-53 76 -173 76t-119 -58
q0 -27 32 -40t129 -25q217 -27 311 -99t95 -257z" />
    <glyph glyph-name="Scedilla" unicode="&#x15e;" horiz-adv-x="1150" 
d="M774 -201q0 -73 -61 -115t-169 -42t-192 34v131h99q18 -25 56 -25t38 34q0 33 -56 32h-51v136q-45 4 -112 16h-306v453h312l41 -179q43 -14 123 -14q174 0 174 127q0 63 -47 90t-117 47t-122 32q-135 36 -236 118q-123 100 -122 327t145 341t388 114q154 0 262 -22h262
v-416h-307l-41 153q-47 14 -106 15q-174 0 -174 -125q0 -78 94 -111q23 -10 78 -24l24 -6q267 -72 371 -167t104 -294q0 -463 -520 -482v-28q168 -6 168 -150z" />
    <glyph glyph-name="scedilla" unicode="&#x15f;" horiz-adv-x="999" 
d="M707 -201q1 -73 -61 -115t-170 -42t-191 34v131h98q18 -25 56 -25t38 34q0 33 -55 32h-51v136q-211 10 -355 57v301h236q53 -96 181 -96t128 65q0 33 -34 47t-140 25q-188 20 -281 100q-92 80 -92 258q0 177 131 269t373 92t418 -55v-283h-234q-53 76 -173 76t-119 -58
q0 -27 32 -40t129 -25q217 -27 311 -99t95 -249q0 -362 -438 -385v-35q168 -6 168 -150z" />
    <glyph glyph-name="Scaron" unicode="&#x160;" horiz-adv-x="1150" 
d="M268 1788h193l127 -90l125 90h170v-82l-146 -211h-325l-144 211v82zM565 -23q-129 0 -241 23h-306v453h312l41 -179q43 -14 123 -14q174 0 174 127q0 63 -47 90t-117 47t-122 32q-135 36 -236 118q-123 100 -122 327t145 341t388 114q154 0 262 -22h262v-416h-307
l-41 153q-47 14 -106 15q-174 0 -174 -125q0 -78 94 -111q23 -10 78 -24l24 -6q267 -72 371 -167t104 -294q0 -482 -559 -482z" />
    <glyph glyph-name="scaron" unicode="&#x161;" horiz-adv-x="999" 
d="M188 1434h193l127 -91l125 91h170v-82l-146 -211h-325l-144 211v82zM971 361q0 -379 -510 -379q-264 0 -451 59v301h236q53 -96 181 -96t128 65q0 33 -34 47t-140 25q-188 20 -281 100q-92 80 -92 258q0 177 131 269t373 92t418 -55v-283h-234q-53 76 -173 76t-120 -58
q0 -27 32 -40t130 -25q217 -27 311 -99t95 -257z" />
    <glyph glyph-name="Tcommaaccent" unicode="&#x162;" horiz-adv-x="1384" 
d="M641 -307q0 24 -57 51q-45 29 -45 88t42 92q41 33 115 33t121 -43t47 -125q0 -131 -80 -197t-243 -77v120q100 12 100 58zM328 0v252h67q18 0 38 21q19 22 20 38v848h-115l-31 -264h-284v539h1339v-539h-283l-32 264h-115v-848q0 -16 19 -38t38 -21h68v-252h-729z" />
    <glyph glyph-name="tcommaaccent" unicode="&#x163;" horiz-adv-x="761" 
d="M379 -307q1 16 -17 28t-40 23q-46 29 -46 88t42 92t116 33t121 -43t47 -125q0 -131 -80 -197t-243 -77v120q100 12 100 58zM8 813v268h107v281h448v-281h180v-268h-180v-440q0 -69 28 -95t101 -26h56v-244q-115 -31 -238 -31q-193 0 -294 71t-101 249v516h-107z" />
    <glyph glyph-name="Tcaron" unicode="&#x164;" horiz-adv-x="1384" 
d="M383 1784h192l127 -90l125 90h170v-82l-145 -211h-326l-143 211v82zM328 0v252h67q18 0 38 21q19 22 20 38v848h-115l-31 -264h-284v539h1339v-539h-283l-32 264h-115v-848q0 -16 19 -38t38 -21h68v-252h-729z" />
    <glyph glyph-name="tcaron" unicode="&#x165;" horiz-adv-x="761" 
d="M963 1434v-115l-113 -182h-236l13 297h336zM510 -23q-193 0 -294 71t-101 249v516h-107v268h107v281h448v-281h180v-268h-180v-440q0 -69 28 -95t101 -26h56v-244q-115 -31 -238 -31z" />
    <glyph glyph-name="Umacron" unicode="&#x16a;" horiz-adv-x="1486" 
d="M1362 522q0 -538 -618 -538t-617 538v592q0 16 -19 36t-38 21h-52v263h730v-263h-142v-673q0 -113 47 -165t149 -52t151 52q48 52 48 165v673h-141v263h608v-263h-51q-15 0 -35 -20t-20 -37v-592zM510 1524v245h586v-245h-586z" />
    <glyph glyph-name="umacron" unicode="&#x16b;" horiz-adv-x="1320" 
d="M387 -18q-123 0 -205 60t-82 198v522q0 14 -17 32t-32 19h-43v268h541v-673q0 -59 31 -81t85 -22t97 8v500h-109v268h557v-778q0 -15 18 -33t32 -18h47v-252h-459q-66 0 -82 147q-160 -165 -379 -165zM352 1174v245h586v-245h-586z" />
    <glyph glyph-name="Ubreve" unicode="&#x16c;" horiz-adv-x="1486" 
d="M1362 522q0 -538 -618 -538t-617 538v592q0 16 -19 36t-38 21h-52v263h730v-263h-142v-673q0 -113 47 -165t149 -52t151 52q48 52 48 165v673h-141v263h608v-263h-51q-15 0 -35 -20t-20 -37v-592zM804 1489q-120 0 -196 53t-106 127v129h211q14 -70 90 -70t90 70h211
v-129q-32 -74 -106 -127t-194 -53z" />
    <glyph glyph-name="ubreve" unicode="&#x16d;" horiz-adv-x="1320" 
d="M387 -18q-123 0 -205 60t-82 198v522q0 14 -17 32t-32 19h-43v268h541v-673q0 -59 31 -81t85 -22t97 8v500h-109v268h557v-778q0 -15 18 -33t32 -18h47v-252h-459q-66 0 -82 147q-160 -165 -379 -165zM646 1139q-120 0 -196 53t-106 127v129h211q14 -70 90 -70t90 70h211
v-129q-32 -74 -106 -127t-194 -53z" />
    <glyph glyph-name="Uring" unicode="&#x16e;" horiz-adv-x="1486" 
d="M803 1581q41 0 67 26q26 27 25 69q0 42 -26 68q-27 26 -67 26t-65 -26t-25 -69t26 -69q24 -26 65 -25zM803 1464q-92 0 -158 58t-65 153q0 94 65 153q66 58 158 58t158 -58q65 -58 65 -152t-66 -154q-66 -58 -157 -58zM1362 522q0 -538 -618 -538t-617 538v592
q0 16 -19 36t-38 21h-52v263h730v-263h-142v-673q0 -113 47 -165t149 -52t151 52q48 52 48 165v673h-141v263h608v-263h-51q-15 0 -35 -20t-20 -37v-592z" />
    <glyph glyph-name="uring" unicode="&#x16f;" horiz-adv-x="1320" 
d="M645 1260q41 0 67 26t25 68q1 42 -25 68t-67 26t-65 -26t-25 -68q1 -42 25 -68t65 -26zM645 1143q-92 0 -158 58q-65 59 -65 153t65 152q66 58 158 58t158 -58q65 -58 65 -152t-65 -153q-66 -58 -158 -58zM387 -18q-123 0 -205 60t-82 198v522q0 14 -17 32t-32 19h-43
v268h541v-673q0 -59 31 -81t85 -22t97 8v500h-109v268h557v-778q0 -15 18 -33t32 -18h47v-252h-459q-66 0 -82 147q-160 -165 -379 -165z" />
    <glyph glyph-name="Uhungarumlaut" unicode="&#x170;" horiz-adv-x="1486" 
d="M1362 522q0 -538 -618 -538t-617 538v592q0 16 -19 36t-38 21h-52v263h730v-263h-142v-673q0 -113 47 -165t149 -52t151 52q48 52 48 165v673h-141v263h608v-263h-51q-15 0 -35 -20t-20 -37v-592zM858 1784v-109l-147 -184h-230l35 293h342zM1257 1784v-109l-147 -184
h-227l32 293h342z" />
    <glyph glyph-name="uhungarumlaut" unicode="&#x171;" horiz-adv-x="1320" 
d="M387 -18q-123 0 -205 60t-82 198v522q0 14 -17 32t-32 19h-43v268h541v-673q0 -59 31 -81t85 -22t97 8v500h-109v268h557v-778q0 -15 18 -33t32 -18h47v-252h-459q-66 0 -82 147q-160 -165 -379 -165zM700 1434v-109l-147 -184h-229l34 293h342zM1100 1434v-109
l-148 -184h-227l33 293h342z" />
    <glyph glyph-name="Uogonek" unicode="&#x172;" horiz-adv-x="1486" 
d="M826 -346q-103 0 -163 43t-61 115q0 111 154 172h-13q-616 2 -616 538v592q0 16 -19 36t-38 21h-52v263h730v-263h-142v-673q0 -113 47 -164t151 -51t150 51q47 51 47 164v673h-141v263h608v-263h-51q-15 0 -35 -20t-20 -37v-592q0 -217 -92 -337t-287 -181
q-98 -31 -98 -108q0 -55 73 -56h33v-157q-62 -29 -165 -29z" />
    <glyph glyph-name="uogonek" unicode="&#x173;" horiz-adv-x="1320" 
d="M1142 -346q-103 0 -164 43q-60 43 -60 115q0 127 198 188h-268q-66 0 -82 147q-160 -166 -379 -165q-123 0 -205 60t-82 198v522q0 14 -17 32t-32 19h-43v268h541v-673q0 -59 31 -81t85 -22t97 8v500h-109v268h557v-778q0 -15 18 -33t32 -18h47v-252h-50
q-57 -57 -57 -104q0 -55 74 -56h33v-157q-62 -29 -165 -29z" />
    <glyph glyph-name="Ydieresis" unicode="&#x178;" horiz-adv-x="1419" 
d="M539 1468q-85 0 -137 50t-52 129q0 80 52 128t136 48t137 -48q52 -48 52 -128q0 -79 -52 -129t-136 -50zM965 1468q-85 0 -137 50t-52 129q0 80 52 128t136 48t137 -48q52 -48 52 -128q0 -79 -52 -129t-136 -50zM346 0v252h70q18 0 37 20q18 20 18 39v232l-360 585
q-27 43 -60 43h-33v263h689v-263h-125l192 -333h6l121 209q35 57 19 91t-84 33h-33v263h598v-263h-21q-41 0 -80 -59l-350 -559v-242q0 -16 20 -38t38 -21h69v-252h-731z" />
    <glyph glyph-name="Zacute" unicode="&#x179;" horiz-adv-x="1212" 
d="M920 1784v-115l-205 -178h-252l49 293h408zM18 0v313l658 830v8h-303l-39 -172h-277v455h1137v-322l-657 -829v-9h327l39 201h291v-475h-1176z" />
    <glyph glyph-name="zacute" unicode="&#x17a;" horiz-adv-x="1067" 
d="M852 1434v-115l-205 -178h-252l49 293h408zM18 0v285l519 518h-215l-41 -129h-242v407h1008v-293l-521 -518h232l33 127h253v-397h-1026z" />
    <glyph glyph-name="Zdotaccent" unicode="&#x17b;" horiz-adv-x="1212" 
d="M18 0v313l658 830v8h-303l-39 -172h-277v455h1137v-322l-657 -829v-9h327l39 201h291v-475h-1176zM616 1475q-92 0 -150 52t-58 139t58 140q58 54 150 54t150 -54t59 -140q-1 -87 -59 -139t-150 -52z" />
    <glyph glyph-name="zdotaccent" unicode="&#x17c;" horiz-adv-x="1067" 
d="M18 0v285l519 518h-215l-41 -129h-242v407h1008v-293l-521 -518h232l33 127h253v-397h-1026zM549 1124q-93 0 -151 52t-58 140q0 87 58 140t150 53t151 -53t59 -140q0 -88 -58 -140t-151 -52z" />
    <glyph glyph-name="Zcaron" unicode="&#x17d;" horiz-adv-x="1212" 
d="M303 1784h193l127 -90l125 90h170v-82l-146 -211h-326l-143 211v82zM18 0v313l658 830v8h-303l-39 -172h-277v455h1137v-322l-657 -829v-9h327l39 201h291v-475h-1176z" />
    <glyph glyph-name="zcaron" unicode="&#x17e;" horiz-adv-x="1067" 
d="M236 1434h192l127 -91l125 91h170v-82l-145 -211h-326l-143 211v82zM18 0v285l519 518h-215l-41 -129h-242v407h1008v-293l-521 -518h232l33 127h253v-397h-1026z" />
    <glyph glyph-name="florin" unicode="&#x192;" horiz-adv-x="858" 
d="M61 653v254h136l22 207q41 348 428 348q111 0 203 -30v-234h-51q-61 0 -90 -22t-35 -80l-25 -189h158v-254h-189l-53 -446q-18 -158 -93 -254t-210 -158h-252v221q49 18 73 56t32 110l53 471h-107z" />
    <glyph glyph-name="Scommaaccent" unicode="&#x218;" horiz-adv-x="1150" 
d="M508 -307q0 16 -18 28t-39 23q-45 29 -45 88t41 92q42 33 116 33t121 -43t47 -125q1 -131 -79 -197t-244 -77v120q100 12 100 58zM565 -23q-129 0 -241 23h-306v453h312l41 -179q43 -14 123 -14q174 0 174 127q0 63 -47 90t-117 47t-122 32q-135 36 -236 118
q-123 100 -122 327t145 341t388 114q154 0 262 -22h262v-416h-307l-41 153q-47 14 -106 15q-174 0 -174 -125q0 -78 94 -111q23 -10 78 -24l24 -6q267 -72 371 -167t104 -294q0 -482 -559 -482z" />
    <glyph glyph-name="scommaaccent" unicode="&#x219;" horiz-adv-x="999" 
d="M442 -307q0 16 -18 28t-39 23q-45 29 -45 88t42 92t116 33t120 -43t48 -125q0 -131 -80 -197t-244 -77v120q100 12 100 58zM977 361q0 -379 -510 -379q-264 0 -451 59v301h236q53 -96 181 -96t128 65q0 33 -34 47t-140 25q-188 20 -281 100q-92 80 -92 258q0 177 131 269
t373 92t418 -55v-283h-234q-53 76 -173 76t-119 -58q0 -27 32 -40t129 -25q217 -27 311 -99t95 -257z" />
    <glyph glyph-name="uni0237" unicode="&#x237;" horiz-adv-x="626" 
d="M164 -348q-111 0 -217 29v227h53q68 0 92 22t25 76v756q1 14 -17 32t-32 19h-60v268h494q31 1 48 -29t17 -75v-991q0 -182 -99 -258t-304 -76z" />
    <glyph glyph-name="circumflex" unicode="&#x2c6;" horiz-adv-x="819" 
d="M100 1141v82l148 211h325l144 -211v-82h-193l-127 90l-125 -90h-172z" />
    <glyph glyph-name="caron" unicode="&#x2c7;" horiz-adv-x="819" 
d="M100 1434h193l127 -91l125 91h170v-82l-146 -211h-325l-144 211v82z" />
    <glyph glyph-name="breve" unicode="&#x2d8;" horiz-adv-x="819" 
d="M411 1139q-120 0 -196 53t-106 127v129h210q15 -70 91 -70t90 70h211v-129q-31 -74 -105 -127t-195 -53z" />
    <glyph glyph-name="dotaccent" unicode="&#x2d9;" horiz-adv-x="819" 
d="M414 1124q-92 0 -150 52t-59 140q0 87 58 140q59 53 151 53t150 -53t58 -140q0 -88 -58 -140t-150 -52z" />
    <glyph glyph-name="ring" unicode="&#x2da;" horiz-adv-x="819" 
d="M410 1260q40 0 66 26t26 68t-26 68t-66 26t-66 -26q-25 -26 -25 -68t25 -68t66 -26zM410 1143q-92 0 -158 58q-66 59 -66 153t66 152t158 58t158 -58t65 -152q1 -94 -65 -152t-158 -59z" />
    <glyph glyph-name="ogonek" unicode="&#x2db;" horiz-adv-x="819" 
d="M443 -346q-103 0 -163 43t-61 115q0 127 199 188h141q-57 -57 -57 -104q0 -55 73 -56h33v-157q-62 -29 -165 -29z" />
    <glyph glyph-name="tilde" unicode="&#x2dc;" horiz-adv-x="819" 
d="M66 1143v172q57 125 210 125q47 0 128 -20t106 -21q49 0 70 49h174v-176q-59 -125 -211 -125q-47 1 -128 23t-106 22q-49 0 -67 -49h-176z" />
    <glyph glyph-name="hungarumlaut" unicode="&#x2dd;" horiz-adv-x="819" 
d="M465 1434v-109l-148 -184h-229l35 293h342zM864 1434v-109l-147 -184h-228l33 293h342z" />
    <glyph glyph-name="uni2009" unicode="&#x2009;" horiz-adv-x="167" 
 />
    <glyph glyph-name="endash" unicode="&#x2013;" horiz-adv-x="847" 
d="M33 434v297h778v-297h-778z" />
    <glyph glyph-name="emdash" unicode="&#x2014;" horiz-adv-x="1406" 
d="M33 434v297h1337v-297h-1337z" />
    <glyph glyph-name="quoteleft" unicode="&#x2018;" horiz-adv-x="430" 
d="M222 846q-87 0 -147 58t-61 169q0 174 100 262t300 103v-150q-125 -20 -125 -80q0 -16 9 -25t31 -22q86 -47 86 -135q1 -88 -53 -134t-140 -46z" />
    <glyph glyph-name="quoteright" unicode="&#x2019;" horiz-adv-x="430" 
d="M143 1092q0 16 -9 25t-31 21q-88 50 -88 137q-1 87 53 133t142 46q87 0 147 -58t61 -169q0 -175 -100 -263t-300 -102v150q125 20 125 80z" />
    <glyph glyph-name="quotesinglbase" unicode="&#x201a;" horiz-adv-x="430" 
d="M143 0q0 25 -31 42t-40 26q-58 45 -58 123q0 77 54 123t142 46q87 0 147 -58t61 -167q0 -174 -100 -263t-300 -103v151q125 16 125 80z" />
    <glyph glyph-name="quotedblleft" unicode="&#x201c;" horiz-adv-x="864" 
d="M222 846q-87 0 -147 58t-61 169q0 174 100 262t300 103v-150q-125 -20 -125 -80q0 -16 9 -25t31 -22q86 -47 86 -135q1 -88 -53 -134t-140 -46zM850 1025q0 -87 -54 -133t-142 -46q-87 0 -147 58t-61 169q0 336 400 365v-150q-125 -20 -125 -80q0 -16 9 -25t31 -22
q89 -49 89 -136z" />
    <glyph glyph-name="quotedblright" unicode="&#x201d;" horiz-adv-x="864" 
d="M143 1092q0 16 -9 25t-31 21q-88 50 -88 137q-1 87 53 133t142 46q87 0 147 -58t61 -169q0 -175 -100 -263t-300 -102v150q125 20 125 80zM449 1274q0 88 53 134t141 46q87 0 147 -58t60 -169q0 -175 -99 -263t-300 -102v150q125 20 124 80q0 16 -9 25t-30 22
q-87 47 -87 135z" />
    <glyph glyph-name="quotedblbase" unicode="&#x201e;" horiz-adv-x="864" 
d="M143 0q0 25 -31 42t-40 26q-58 45 -58 123q0 77 54 123t142 46q87 0 147 -58t61 -167q0 -174 -100 -263t-300 -103v151q125 16 125 80zM449 182q0 86 53 132t141 46q87 0 147 -57t60 -168q0 -174 -100 -263t-299 -103v151q125 16 124 80q0 25 -39 47q-87 48 -87 135z" />
    <glyph glyph-name="dagger" unicode="&#x2020;" horiz-adv-x="966" 
d="M397 -100l-141 571v145l143 252l-268 -135l-113 53v306l113 53l268 -141l-125 237v102l64 91h289l63 -91v-102l-127 -233l268 137l115 -53v-306l-115 -53l-268 137l146 -249v-146l-142 -575h-170z" />
    <glyph glyph-name="daggerdbl" unicode="&#x2021;" horiz-adv-x="966" 
d="M338 -100l-64 90v102l115 207l-258 -129l-113 53v299l113 56l254 -132l-121 185v69l121 183l-254 -127l-113 55v299l113 53l258 -131l-115 209v102l64 91h289l63 -91v-102l-115 -207l256 129l115 -53v-299l-115 -55l-253 129l122 -183v-69l-122 -184l253 129l115 -56
v-299l-115 -53l-258 129l117 -207v-102l-63 -90h-289z" />
    <glyph glyph-name="bullet" unicode="&#x2022;" horiz-adv-x="729" 
d="M362 250q-141 0 -235 87t-94 234t94 237t235 89q142 0 236 -89q94 -88 94 -236t-94 -235t-236 -87z" />
    <glyph glyph-name="ellipsis" unicode="&#x2026;" horiz-adv-x="1357" 
d="M228 383q88 0 148 -58q60 -57 60 -141t-60 -141t-148 -57q-87 0 -147 57q-61 57 -61 140t60 141t148 59zM679 -14q-87 0 -148 57q-60 57 -60 140t60 141q59 58 147 59q88 0 148 -58q60 -57 60 -141t-60 -141t-147 -57zM922 183q0 83 60 141t147 59q87 0 147 -58
q60 -57 61 -141q-1 -84 -61 -141t-147 -57t-147 57t-60 140z" />
    <glyph glyph-name="perthousand" unicode="&#x2030;" horiz-adv-x="2543" 
d="M1319 174q45 0 67 45t21 154q0 203 -88 202q-90 -1 -90 -201t90 -200zM2134 174q45 0 67 45t21 154q0 203 -88 202t-88 -201t88 -200zM322 1054q0 -200 89 -200t89 201t-88 200q-90 -1 -90 -201zM1318 772q164 0 278 -102t114 -292t-114 -294q-114 -102 -278 -102
q-165 0 -278 102q-112 102 -112 292t112 294q113 102 278 102zM2134 -18q-166 0 -279 102t-113 292t113 294q113 102 279 102t279 -102t113 -292t-113 -294q-113 -102 -279 -102zM236 -70l1009 1563h242l-1010 -1563h-241zM18 1056q0 190 114 294q114 102 279 102t279 -102
t113 -292q1 -190 -113 -294q-114 -102 -279 -102t-279 102t-114 292z" />
    <glyph glyph-name="guilsinglleft" unicode="&#x2039;" horiz-adv-x="595" 
d="M561 983v-104l-178 -340v-7l178 -342v-108h-235l-291 371v157l291 373h235z" />
    <glyph glyph-name="guilsinglright" unicode="&#x203a;" horiz-adv-x="595" 
d="M35 82v104l178 340v6l-178 342v109h235l291 -371v-157l-291 -373h-235z" />
    <glyph glyph-name="fraction" unicode="&#x2044;" horiz-adv-x="473" 
d="M-401 -70l1011 1563h242l-1012 -1563h-241z" />
    <glyph glyph-name="Euro" unicode="&#x20ac;" horiz-adv-x="1275" 
d="M20 743v181h115q51 260 225 396t449 136t438 -72v-370h-246q-43 129 -176 129q-84 0 -132 -50t-66 -169h303l-29 -181h-287v-84h273l-29 -178h-227q20 -102 65 -146t125 -44q115 0 199 110h229v-301q-209 -123 -471 -123q-549 0 -645 504h-113v178h95v84h-95z" />
    <glyph glyph-name="trademark" unicode="&#x2122;" horiz-adv-x="1472" 
d="M147 860v121h25q8 0 15 8t8 15v301h-39l-13 -97h-123v226h580v-226h-123l-14 97h-39v-301q0 -6 8 -14t17 -9h26v-121h-328zM627 860v121h22q8 0 16 8q7 8 7 15v282q0 6 -7 14t-16 9h-22v125h348l61 -242h2l64 242h352v-125h-24q-6 -1 -14 -9t-9 -14v-282q0 -6 8 -14
t15 -9h24v-121h-315v121h45v281h-2l-111 -402h-127l-113 402h-2v-281h48v-121h-250z" />
    <glyph glyph-name="onethird" unicode="&#x2153;" horiz-adv-x="1718" 
d="M182 -70l1012 1563h242l-1012 -1563h-242zM23 621v170h79q8 0 21 11q12 11 12 19v363l-67 -47h-58v198l219 99h242v-613q0 -8 12 -19t21 -11h71v-170h-552zM1704 225q0 -113 -100 -176t-279 -63q-180 0 -297 45v207h162q36 -60 110 -60t74 70t-96 69h-78v170h78
q94 0 94 68q0 63 -68 63t-104 -51h-153v215q141 47 301 47t250 -54t90 -163q0 -162 -172 -194v-6q188 -25 188 -187z" />
    <glyph glyph-name="twothirds" unicode="&#x2154;" horiz-adv-x="1777" 
d="M16 621v106q0 106 45 174t136 127q24 16 52 34q49 31 68 50l18 18q17 19 17 41q0 59 -68 59t-102 -61h-159v236q129 43 302 43t267 -62t94 -172q0 -108 -48 -162t-102 -84t-112 -57q-104 -48 -119 -84h160l14 50h191v-256h-654zM252 -70l1012 1563h241l-1011 -1563h-242z
M1763 225q1 -113 -99 -176t-280 -63t-297 45v207h162q35 -60 110 -60t75 70t-97 69h-77v170h77q94 0 95 68q0 63 -68 63t-104 -51h-154v215q141 47 301 47t250 -54t90 -163q0 -162 -172 -194v-6q188 -25 188 -187z" />
    <glyph glyph-name="oneeighth" unicode="&#x215b;" horiz-adv-x="1742" 
d="M23 621v170h79q8 0 21 11q12 11 12 19v363l-67 -47h-58v198l219 99h242v-613q0 -8 12 -19t21 -11h71v-170h-552zM182 -70l1012 1563h242l-1012 -1563h-242zM1336 492q69 0 69 78t-69 79q-69 -1 -69 -79t69 -78zM1255 263q0 -97 81 -97t81 96q0 43 -20 71t-60 27
q-82 0 -82 -97zM1336 -14q-189 0 -288 66t-100 179q0 152 166 199v4q-135 43 -135 172q0 102 99 162t258 61q159 0 258 -60t100 -163q0 -131 -135 -172v-4q168 -47 167 -199q0 -115 -100 -180t-290 -65z" />
    <glyph glyph-name="threeeighths" unicode="&#x215c;" horiz-adv-x="1746" 
d="M686 846q0 -114 -100 -178t-274 -64q-175 0 -302 45v209h162q36 -61 110 -61q74 -1 74 69t-96 70h-78v172h78q94 0 94 66t-68 66t-104 -52h-153v215q135 45 298 45t253 -54t90 -163q0 -158 -172 -195v-6q188 -23 188 -184zM184 -70l1012 1563h242l-1012 -1563h-242z
M1342 492q69 0 69 78t-69 79q-69 -1 -69 -79t69 -78zM1261 263q0 -97 81 -97t81 96q0 43 -20 71t-60 27q-82 0 -82 -97zM1342 -14q-189 0 -288 66t-100 179q0 152 166 199v4q-135 43 -135 172q0 102 99 162t258 61q158 0 258 -60t100 -163q0 -131 -135 -172v-4
q168 -47 168 -199q0 -115 -101 -180t-290 -65z" />
    <glyph glyph-name="fiveeighths" unicode="&#x215d;" horiz-adv-x="1724" 
d="M682 884q0 -130 -98 -205t-271 -75q-172 0 -303 45v207h162q29 -57 98 -57q39 1 62 23t22 61q0 76 -75 75q-51 0 -80 -32h-174v508h606v-250h-191l-12 45h-182v-148h4q57 53 172 53q116 0 188 -60t72 -190zM164 -70l1012 1563h241l-1011 -1563h-242zM1320 492q69 0 69 78
t-69 79q-69 -1 -69 -79t69 -78zM1239 263q0 -97 81 -97t81 96q-1 43 -21 71t-59 27q-82 0 -82 -97zM1710 231q0 -115 -100 -180t-290 -65q-189 0 -289 65q-99 66 -99 180q0 152 166 199v4q-135 43 -135 172q0 102 99 162t258 61q159 0 258 -60t99 -163q0 -131 -135 -172v-4
q168 -47 168 -199z" />
    <glyph glyph-name="seveneighths" unicode="&#x215e;" horiz-adv-x="1687" 
d="M111 -70l1011 1563h242l-1012 -1563h-241zM1283 492q69 0 69 78t-69 79q-69 -1 -69 -79t69 -78zM1202 263q0 -97 81 -97t81 96q0 43 -20 71t-60 27q-82 0 -82 -97zM1673 231q-1 -115 -101 -180t-289 -65t-289 65q-99 66 -99 180q0 152 166 199v4q-135 43 -135 172
q0 102 99 162t258 61q159 0 258 -60t99 -163q0 -131 -135 -172v-4q168 -47 168 -199zM109 621v122l346 459v4h-238l-18 -76h-187v304h656v-240l-234 -573h-325z" />
    <glyph glyph-name="minus" unicode="&#x2212;" horiz-adv-x="1056" 
d="M20 551v313h1018v-313h-1018z" />
    <glyph glyph-name="space_uni0326" unicode="&#xf6c3;" horiz-adv-x="819" 
d="M356 -307q0 16 -18 28t-39 23q-45 29 -45 88t42 92t116 33t120 -43t48 -125q0 -131 -80 -197t-244 -77v120q100 12 100 58z" />
    <glyph glyph-name="paragraph.cap" horiz-adv-x="1153" 
d="M457 0v608q-438 35 -439 412q0 414 521 414h598v-263h-60q-17 0 -37 -20t-20 -37v-1114h-225v1180h-113v-1180h-225z" />
    <glyph glyph-name="bullet.cap" horiz-adv-x="729" 
d="M363 348q-142 0 -236 87t-94 235t94 235q94 88 235 88q142 0 236 -88t94 -235t-93 -235q-94 -87 -236 -87z" />
    <glyph glyph-name="at.cap" horiz-adv-x="1605" 
d="M752 541q37 0 65 20l72 311q-25 8 -47 9q-70 0 -111 -78t-41 -185q1 -77 62 -77zM614 352q-118 0 -180 67q-61 67 -61 187q0 207 127 350q104 117 262 117q121 0 192 -88q70 74 115 74h184l-102 -451q-23 -104 41 -104q84 0 144 86t61 254q0 215 -159 340t-404 125
q-344 0 -513 -283q-89 -150 -90 -356q0 -274 163 -408t423 -135q260 0 432 109h94v-115q-193 -139 -514 -139t-545 162q-112 81 -179 217q-67 135 -67 315t73 333q130 277 443 397q138 52 304 52t332 -68t272 -210q106 -141 107 -330q0 -250 -129 -378t-341 -128t-265 127
q-102 -119 -220 -119z" />
    <glyph glyph-name="dagger.cap" horiz-adv-x="966" 
d="M397 0l-141 514v143l143 240l-268 -137l-113 55v303l113 56l264 -140l-121 211v98l64 91h289l63 -91v-98l-123 -209l264 138l115 -56v-303l-115 -55l-268 139l146 -237v-144l-142 -518h-170z" />
    <glyph glyph-name="daggerdbl.cap" horiz-adv-x="966" 
d="M338 0l-64 88v94l127 193l-270 -133l-113 51v291l113 51l266 -133l-135 184v59l137 187l-268 -133l-113 51v291l113 51l270 -135l-127 194v95l64 88h289l63 -88v-95l-127 -192l268 133l115 -51v-291l-115 -51l-270 135l141 -186v-60l-137 -184l266 131l115 -51v-291
l-115 -51l-272 137l131 -197v-94l-63 -88h-289z" />
    <glyph glyph-name="less.cap" horiz-adv-x="944" 
d="M920 1434v-263l-431 -450v-6l431 -463v-252h-220l-677 578v278l677 578h220z" />
    <glyph glyph-name="greater.cap" horiz-adv-x="944" 
d="M25 0v252l428 463v6l-428 450v263h217l678 -578v-278l-678 -578h-217z" />
    <glyph glyph-name="guillemotleft.cap" horiz-adv-x="1484" 
d="M1458 1434v-263l-364 -448v-6l364 -465v-252h-217l-584 584v264l584 586h217zM823 1434v-263l-364 -448v-6l364 -465v-252h-219l-581 584v264l581 586h219z" />
    <glyph glyph-name="guillemotright.cap" horiz-adv-x="1484" 
d="M659 0v252l365 463v6l-365 450v263h220l581 -586v-262l-581 -586h-220zM25 0v252l364 463v6l-364 450v263h217l583 -586v-262l-583 -586h-217z" />
    <glyph glyph-name="quotedblleft.cap" horiz-adv-x="2093" 
d="M1024 404q0 -196 -131 -310t-348 -114t-371 147t-154 424q0 403 255 631t743 252v-263q-379 -41 -379 -260q0 -45 31 -73q30 -28 98 -62q68 -35 111 -67q145 -109 145 -305zM2068 404q0 -196 -130 -310t-348 -114q-217 0 -371 147t-154 424q0 403 255 631t742 252v-263
q-379 -41 -379 -260q0 -45 31 -73q30 -28 98 -62q68 -35 111 -67q145 -109 145 -305z" />
    <glyph glyph-name="quotedblright.cap" horiz-adv-x="2093" 
d="M500 1454q216 0 370 -147t154 -424q0 -403 -255 -631t-740 -252v252q197 22 287 96t92 174q0 45 -31 73q-31 29 -99 63t-112 67q-146 109 -146 304t132 310t348 115zM1452 522q0 45 -31 73q-31 29 -99 63t-112 67q-145 109 -145 304t132 310t348 115t370 -147t153 -424
q0 -403 -254 -632q-256 -228 -741 -251v252q197 22 288 96t91 174z" />
    <glyph glyph-name="quoteleft.cap" horiz-adv-x="1048" 
d="M1024 404q0 -196 -131 -310t-348 -114t-371 147t-154 424q0 403 255 631t743 252v-263q-379 -41 -379 -260q0 -45 31 -73q30 -28 98 -62q68 -35 111 -67q145 -109 145 -305z" />
    <glyph glyph-name="quoteright.cap" horiz-adv-x="1048" 
d="M500 1454q216 0 370 -147t154 -424q0 -403 -255 -631t-740 -252v252q197 22 287 96t92 174q0 45 -31 73q-31 29 -99 63t-112 67q-146 109 -146 304t132 310t348 115z" />
    <glyph glyph-name="hyphen.cap" horiz-adv-x="608" 
d="M33 512v317h538v-317h-538z" />
    <glyph glyph-name="endash.cap" horiz-adv-x="847" 
d="M33 524v295h778v-295h-778z" />
    <glyph glyph-name="emdash.cap" horiz-adv-x="1406" 
d="M33 524v295h1337v-295h-1337z" />
    <glyph glyph-name="questiondown.cap" horiz-adv-x="966" 
d="M367 1250q0 82 60 140t147 58q88 0 148 -57t60 -141t-60 -141q-60 -58 -148 -58q-87 0 -147 58t-60 141zM514 -23q-242 1 -369 105t-127 293q0 92 40 167q40 74 86 112t126 89q94 66 131 102q37 35 46 67t6 73h268q27 -125 -2 -213t-107 -172q-93 -93 -115 -134t-22 -77
q0 -109 96 -108q80 0 129 102h246v-334q-190 -72 -432 -72z" />
    <glyph glyph-name="exclamdown.cap" horiz-adv-x="507" 
d="M25 0v260l118 725h213l121 -725v-260h-452zM250 1051q-86 0 -147 58q-60 58 -60 141q0 82 60 140q61 58 147 58t147 -56t61 -140t-60 -143q-62 -58 -148 -58z" />
    <glyph glyph-name="ampersand.alt" horiz-adv-x="1546" 
d="M463 453q0 -83 51 -137t127 -54t152 27l-293 299q-37 -51 -37 -135zM586 -16q-287 0 -427 110t-141 309q0 276 306 392q-66 111 -66 247q0 186 123 300t354 114q111 0 187 -22h313v-402h-293l-33 119q-25 8 -55 8q-121 0 -121 -108q0 -49 24 -88t79 -95l274 -280
q20 43 33 96h-62v231h426v-258h-16q-51 0 -66 -51q-39 -129 -104 -235l72 -72q47 -47 84 -47h30v-252h-430l-76 76q-188 -92 -415 -92z" />
    <glyph glyph-name="zero.num" horiz-adv-x="878" 
d="M438 807q88 0 88 215q0 117 -21 161q-22 44 -67 44q-44 0 -66 -45t-22 -160q0 -215 88 -215zM860 1026q0 -196 -118 -310q-118 -112 -303 -112t-304 114t-119 310t121 308t301 112t301 -113t121 -309z" />
    <glyph glyph-name="one.num" horiz-adv-x="595" 
d="M27 621v170h79q8 0 21 11q12 11 12 19v363l-67 -47h-58v198l219 99h242v-613q0 -8 12 -19t21 -11h72v-170h-553z" />
    <glyph glyph-name="two.num" horiz-adv-x="706" 
d="M18 621v106q0 106 45 174t136 127q23 16 51 34q49 31 69 50l18 18q17 19 17 41q0 59 -68 59t-102 -61h-159v236q129 43 302 43t267 -62t94 -172q0 -108 -48 -162t-102 -84t-112 -57q-104 -48 -119 -84h160l14 50h191v-256h-654z" />
    <glyph glyph-name="three.num" horiz-adv-x="708" 
d="M690 846q0 -114 -100 -178t-274 -64q-175 0 -302 45v209h162q37 -61 111 -61t73 71q0 68 -96 68h-78v172h78q94 0 94 66t-68 66t-104 -52h-153v215q135 45 298 45t253 -54t90 -163q0 -158 -172 -195v-6q188 -23 188 -184z" />
    <glyph glyph-name="four.num" horiz-adv-x="774" 
d="M207 1018h158v180h-5l-153 -176v-4zM258 621v170h57q8 0 21 11q12 11 12 19v29h-334v192l344 392h318v-416h82v-168h-82v-29q0 -8 11 -19t20 -11h51v-170h-500z" />
    <glyph glyph-name="five.num" horiz-adv-x="704" 
d="M686 884q0 -130 -98 -205t-271 -75q-172 0 -303 45v207h162q29 -57 98 -57q39 1 62 23t22 61q0 76 -75 75q-51 0 -80 -32h-174v508h606v-250h-191l-12 45h-182v-148h4q57 53 172 53q116 0 188 -60t72 -190z" />
    <glyph glyph-name="six.num" horiz-adv-x="815" 
d="M406 973q-35 0 -64 -12q2 -99 19 -135t59 -35q70 0 70 91t-84 91zM426 604q-410 0 -410 406q0 210 120 324t356 114q164 0 251 -27v-219h-145q-37 41 -106 41q-133 0 -148 -172q78 70 199 70q254 0 254 -238q1 -139 -99 -219t-272 -80z" />
    <glyph glyph-name="seven.num" horiz-adv-x="688" 
d="M111 621v122l346 459v4h-238l-18 -76h-187v304h656v-240l-234 -573h-325z" />
    <glyph glyph-name="eight.num" horiz-adv-x="813" 
d="M336 1190q0 -80 69 -80t68 80t-69 80t-68 -80zM406 784q39 0 59 28t20 71t-20 71t-59 27q-82 -1 -82 -99t82 -98zM795 852q-1 -116 -101 -182t-289 -66t-289 66q-99 66 -100 182q0 152 166 199v4q-135 43 -135 172q0 101 99 161q98 60 258 60t259 -60t99 -161
q0 -131 -135 -172v-4q168 -47 168 -199z" />
    <glyph glyph-name="nine.num" horiz-adv-x="815" 
d="M410 1079q37 0 63 11q-2 98 -20 135t-60 37q-69 0 -69 -92t86 -91zM271 911q-255 0 -255 249q0 130 100 209t273 79q410 0 410 -404q1 -212 -119 -326t-358 -114q-162 0 -271 31v215h156q41 -37 117 -37q133 0 147 168q-80 -70 -200 -70z" />
    <glyph glyph-name="zero.den" horiz-adv-x="878" 
d="M438 186q88 0 88 215q0 117 -21 161q-22 44 -67 44q-44 0 -66 -45t-22 -160q0 -215 88 -215zM438 -14q-186 0 -304 112t-118 309q0 195 122 309t300 114t300 -114t122 -310t-118 -308t-304 -112z" />
    <glyph glyph-name="one.den" horiz-adv-x="595" 
d="M27 0v170h79q8 0 20 11t13 22v360l-67 -45h-58v199l219 96h242v-610q0 -9 12 -21t21 -12h72v-170h-553z" />
    <glyph glyph-name="two.den" horiz-adv-x="706" 
d="M18 0v106q0 106 45 174t136 128q130 81 148 115q7 13 7 28q0 59 -68 59t-102 -59h-159v235q141 43 308 43t261 -63t94 -180q0 -70 -30 -122t-62 -77q-64 -49 -158 -92t-109 -59q-15 -17 -22 -29h160l14 51h191v-258h-654z" />
    <glyph glyph-name="three.den" horiz-adv-x="708" 
d="M690 225q0 -113 -100 -176t-279 -63q-180 0 -297 45v207h162q35 -60 110 -60t74 70q0 70 -96 69h-78v170h78q94 0 94 68q0 63 -68 63t-104 -51h-153v215q141 47 301 47t250 -54t90 -163q0 -162 -172 -194v-6q188 -25 188 -187z" />
    <glyph glyph-name="four.den" horiz-adv-x="774" 
d="M207 397h158v181h-5l-153 -177v-4zM258 0v170h57q9 0 21 11t12 22v28h-334v193l344 389h318v-416h82v-166h-82v-28q0 -9 11 -21t20 -12h51v-170h-500z" />
    <glyph glyph-name="five.den" horiz-adv-x="704" 
d="M314 -14q-175 0 -300 43v209h162q29 -59 98 -60q39 0 62 24t22 62q0 76 -75 76q-49 0 -80 -35h-174v508h606v-250h-191l-12 47h-182v-147h4q59 51 173 51q115 0 187 -60t72 -190t-98 -205q-99 -73 -274 -73z" />
    <glyph glyph-name="six.den" horiz-adv-x="815" 
d="M406 354q-39 0 -64 -14q2 -100 19 -135t59 -35q70 0 70 92t-84 92zM426 -14q-410 0 -410 403q0 211 120 326t356 114q156 0 251 -28v-217h-145q-39 39 -106 39q-133 0 -148 -172q74 69 197 69q256 -1 256 -237q1 -137 -99 -217t-272 -80z" />
    <glyph glyph-name="seven.den" horiz-adv-x="688" 
d="M111 0v123l346 459v4h-238l-18 -74h-187v301h656v-240l-234 -573h-325z" />
    <glyph glyph-name="eight.den" horiz-adv-x="813" 
d="M405 492q69 0 69 78t-70 79q-68 -1 -68 -79t69 -78zM324 263q0 -97 81 -97t80 96q0 43 -20 71t-59 27q-82 0 -82 -97zM795 231q-1 -115 -101 -180t-289 -65t-289 65q-99 66 -100 180q0 152 166 199v4q-135 43 -135 172q0 102 99 162q98 60 258 61q160 0 259 -60t99 -163
q0 -131 -135 -172v-4q168 -47 168 -199z" />
    <glyph glyph-name="nine.den" horiz-adv-x="815" 
d="M410 459q31 0 63 12q-2 98 -20 135q-17 37 -55 37q-74 0 -74 -92t86 -92zM322 -14q-170 0 -271 28v217h156q39 -39 117 -38q133 0 147 167q-78 -68 -199 -68q-120 0 -188 60q-68 59 -68 188q0 130 100 210t273 79q410 0 410 -403q1 -212 -119 -326t-358 -114z" />
    <glyph glyph-name="dollar.tab" 
d="M475 1579h311v-158q162 -10 324 -47v-344h-242q-61 123 -221 123t-160 -106q0 -33 28 -57t98 -46t87 -22q256 -70 356 -166t101 -295q0 -379 -414 -443v-227h-309v217q-156 6 -368 45v373h249q27 -68 76 -98t148 -31q166 0 166 106q1 51 -45 75t-112 42t-69 19
q-197 45 -305 140t-106 306q-1 371 407 430v164z" />
    <glyph glyph-name="Euro.tab" 
d="M47 743v181h86q45 262 211 397t421 135t419 -72v-370h-246q-37 129 -156 129q-72 0 -110 -51t-49 -168h264l-29 -181h-246v-84h232l-29 -178h-192q12 -109 47 -149t114 -41q104 0 172 110h230v-301q-209 -123 -451 -123q-524 0 -604 504h-84v178h66v84h-66z" />
    <glyph glyph-name="sterling.tab" 
d="M1049 0q-412 0 -627 86q-59 -47 -150 -86h-198v252q172 49 172 217q0 59 -15 117h-151v248h78q-35 119 -35 204q0 201 146 310q147 108 399 108t469 -74v-374h-236q-53 115 -166 114q-61 0 -100 -36t-43 -83t4 -169h272v-248h-260q0 -135 -24 -236q127 -25 262 -24
l31 118h280v-444h-108z" />
    <glyph glyph-name="yen.tab" 
d="M74 639v178h180l-158 311q-27 43 -59 43h-14v263h600v-263h-64l117 -286h6l68 178q43 109 -48 108h-12v263h516v-263h-10q-35 0 -70 -59l-153 -295h180v-178h-301v-84h301v-178h-301v-66q0 -16 19 -38t38 -21h70v-252h-731v252h69q18 0 37 20q18 20 19 39v66h-299v178
h299v84h-299z" />
    <glyph glyph-name="zero.tab" 
d="M500 669q0 -212 26 -301t87 -89q62 0 89 90t27 340t-27 337t-90 87q-43 0 -65 -34q-47 -69 -47 -430zM1196 716q0 -374 -160 -556t-423 -183t-422 183t-158 557q0 373 162 556q163 183 419 183t419 -183t163 -557z" />
    <glyph glyph-name="one.tab" 
d="M135 0v252h199q18 0 38 21q19 22 19 38v760l-194 -104h-76v274l393 193h356v-1123q0 -16 20 -38t36 -21h182v-252h-973z" />
    <glyph glyph-name="two.tab" 
d="M59 0v174q0 127 49 230q48 103 115 168q68 65 134 110q67 45 115 78t68 47q71 51 101 92t30 98q1 57 -33 91t-95 34q-127 0 -197 -123h-233v377q231 80 501 80q543 0 543 -420q0 -176 -91 -287t-289 -216q-197 -106 -253 -167q-20 -24 -28 -51h321l35 115h281v-430h-1074
z" />
    <glyph glyph-name="three.tab" 
d="M1151 397q0 -201 -164 -311t-451 -109q-287 0 -475 76v334h242q68 -106 195 -106q76 1 120 39t44 110q0 150 -179 150h-127v274h117q188 0 189 145q0 131 -134 131t-196 -94h-228v344q220 76 478 76t400 -94t142 -285q0 -279 -299 -340v-8q326 -45 326 -332z" />
    <glyph glyph-name="four.tab" 
d="M346 649h260v371h-8l-252 -363v-8zM467 0v252h68q16 0 35 22t20 37v62h-524v319l546 742h447v-785h102v-276h-102v-62q0 -16 19 -38t38 -21h45v-252h-694z" />
    <glyph glyph-name="five.tab" 
d="M678 456q0 173 -166 173q-82 0 -152 -70h-260v875h979v-408h-280l-31 82h-342v-274h6q96 88 287 88t313 -115t123 -345q-1 -230 -161 -358t-440 -127q-280 0 -482 82v332h241q63 -111 197 -110q76 0 122 45t46 130z" />
    <glyph glyph-name="six.tab" 
d="M610 639q-51 0 -100 -23q4 -208 28 -282t93 -74q111 0 110 203q0 176 -131 176zM628 -23q-266 -1 -428 175t-161 538t193 564t532 202q221 0 373 -43v-344h-215q-63 59 -176 59t-167 -74t-65 -251q62 55 124 84t161 28q184 -1 287 -109q104 -108 104 -330t-148 -360
t-414 -139z" />
    <glyph glyph-name="seven.tab" 
d="M231 0v195l609 890v9h-439l-39 -152h-280v492h1065v-363l-438 -1071h-478z" />
    <glyph glyph-name="eight.tab" 
d="M723 1019q0 67 -29 107t-81 41q-51 0 -79 -41q-28 -42 -28 -108t28 -106t79 -40q52 0 81 40t29 107zM613 633q-67 0 -101 -51t-35 -132q1 -80 35 -132t101 -52t103 51t36 131t-36 133q-36 52 -103 52zM613 -23q-275 0 -429 115t-153 316q0 264 270 352v8
q-219 76 -219 301q0 176 150 282q151 105 382 105t382 -105t151 -282q0 -227 -217 -301v-8q268 -88 268 -352q0 -199 -155 -315t-430 -116z" />
    <glyph glyph-name="nine.tab" 
d="M618 786q51 0 101 23q-4 209 -28 281t-93 71q-111 1 -111 -187t131 -188zM594 1456q270 0 430 -174q162 -174 162 -542t-184 -565q-184 -198 -556 -198q-219 0 -368 48v333h215q67 -61 187 -61t175 76t62 250q-63 -55 -125 -84t-162 -29q-184 0 -288 112
q-103 112 -103 336t142 361q143 137 413 137z" />
    <glyph glyph-name="plus.tab" 
d="M106 551v313h338v363h344v-363h336v-313h-336v-363h-344v363h-338z" />
    <glyph glyph-name="minus.tab" 
d="M106 551v313h1018v-313h-1018z" />
    <glyph glyph-name="multiply.tab" 
d="M334 205l-223 221l280 276l-278 275l223 221l278 -276l283 276l221 -223l-278 -275l278 -272l-219 -223l-283 276z" />
    <glyph glyph-name="divide.tab" 
d="M823 306q-1 -83 -61 -140t-147 -57t-147 57t-60 140t60 141q60 59 147 59t147 -58t61 -142zM106 551v313h1018v-313h-1018zM823 1107q-1 -83 -61 -141t-147 -57q-87 -1 -147 57t-60 141t60 141t147 58t147 -58t61 -141z" />
    <glyph glyph-name="less.tab" 
d="M1047 1188v-322l-420 -190v-6l420 -195v-315h-107l-764 389v252l764 387h107z" />
    <glyph glyph-name="equal.tab" 
d="M143 272v303h942v-303h-942zM143 690v301h942v-301h-942z" />
    <glyph glyph-name="greater.tab" 
d="M182 160v321l420 191v6l-420 194v316h105l764 -389v-252l-764 -387h-105z" />
    <glyph glyph-name="comma.tab" horiz-adv-x="614" 
d="M231 -2q0 29 -31 46q-101 55 -102 163q0 78 56 127t147 49t153 -62t62 -180q0 -356 -414 -387v158q129 25 129 86z" />
    <glyph glyph-name="period.tab" horiz-adv-x="614" 
d="M308 383q88 0 148 -58q60 -57 60 -141t-60 -141t-148 -57q-87 0 -147 57q-61 57 -61 140t60 141t148 59z" />
    <glyph glyph-name="colon.tab" horiz-adv-x="614" 
d="M306 563q-85 0 -143 55q-59 56 -59 138t58 138t144 56q84 0 144 -56t60 -138t-59 -138q-60 -55 -145 -55zM510 178q0 -82 -60 -137t-144 -55q-85 0 -143 55t-59 137q0 82 58 139t144 57q84 0 144 -56q60 -58 60 -140z" />
    <glyph glyph-name="semicolon.tab" horiz-adv-x="614" 
d="M231 -2q0 29 -31 46t-40 26q-58 47 -58 128t54 129t143 48q87 1 149 -61t62 -175q0 -181 -102 -273t-304 -108v158q127 20 127 82zM306 563q-85 0 -143 55q-59 56 -59 138t58 138t144 56q84 0 144 -56t60 -138t-59 -138q-60 -55 -145 -55z" />
    <glyph glyph-name="percent.tab" horiz-adv-x="1638" 
d="M1169 374q0 -200 75 -200t75 201t-74 200q-76 -1 -76 -201zM1244 -18q-153 0 -256 100t-103 295t103 295t256 100t256 -100q104 -100 104 -295t-104 -295t-256 -100zM319 1054q0 -200 75 -200t75 201t-74 200q-76 -1 -76 -201zM190 -70l1010 1563h242l-1010 -1563h-242z
M394 662q-153 0 -256 100t-103 295t103 295t256 100t256 -100q104 -100 104 -295t-104 -295t-256 -100z" />
    <glyph glyph-name="perthousand.tab" horiz-adv-x="2457" 
d="M1988 374q0 -200 75 -200t75 201t-74 200q-76 -1 -76 -201zM2063 -18q-153 0 -256 100t-103 295t103 295t256 100t256 -100t103 -295t-102 -295q-104 -100 -257 -100zM1210 374q0 -200 75 -200t75 201t-74 200q-76 -1 -76 -201zM1285 -18q-153 0 -256 100t-103 295
t103 295t256 100t256 -100t103 -295t-102 -295q-104 -100 -257 -100zM319 1054q0 -200 75 -200t75 201t-74 200q-76 -1 -76 -201zM211 -70l1010 1563h241l-1009 -1563h-242zM394 662q-153 0 -256 100t-103 295t103 295t256 100t256 -100q104 -100 104 -295t-104 -295
t-256 -100z" />
    <glyph glyph-name="cent.tab" 
d="M524 -209v207q-424 80 -424 539q0 219 111 359t313 185v166h312v-149q166 -12 266 -51v-326h-236q-25 51 -55 74q-31 23 -86 22q-168 0 -168 -285q0 -152 41 -218q42 -66 144 -66t169 90h193v-254q-113 -74 -268 -94v-199h-312z" />
    <glyph glyph-name="florin.tab" 
d="M227 653v254h156l23 207q41 348 436 348q127 0 225 -32v-232h-82q-61 0 -90 -22t-35 -80l-24 -189h188v-254h-219l-53 -446q-18 -158 -94 -254t-209 -158h-252v221q49 18 73 56t31 110l53 471h-127z" />
    <glyph glyph-name="space.tab" horiz-adv-x="614" 
 />
    <glyph glyph-name="idotaccent" horiz-adv-x="681" 
d="M340 1124q-92 0 -150 52t-57 139q0 86 57 140q58 54 150 54t150 -53t58 -140q0 -88 -58 -140t-150 -52zM14 0v252h54q14 0 31 17t18 34v459q1 14 -17 32t-32 19h-60v268h494q66 0 65 -104v-674q-1 -15 17 -33t32 -18h54v-252h-656z" />
    <glyph glyph-name="Scaron.titling" horiz-adv-x="1150" 
d="M270 1772h193l127 -91l125 91h170v-82l-146 -211h-325l-144 211v82zM567 -23q-129 0 -241 23h-306v453h312l41 -179q43 -14 123 -14q174 0 174 127q0 63 -47 90t-117 47t-122 32q-135 36 -236 118q-123 100 -122 327t145 341t388 114q154 0 262 -22h262v-416h-307
l-41 153q-47 14 -106 15q-174 0 -174 -125q0 -78 94 -111q23 -10 78 -24l24 -6q267 -72 371 -167t104 -294q0 -482 -559 -482z" />
    <glyph glyph-name="Yacute.titling" horiz-adv-x="1419" 
d="M1061 1749v-115l-205 -178h-252l49 293h408zM346 0v252h70q18 0 37 20q18 20 18 39v232l-360 585q-27 43 -60 43h-33v263h689v-263h-125l192 -333h6l121 209q35 57 19 91t-84 33h-33v263h598v-263h-21q-41 0 -80 -59l-350 -559v-242q0 -16 20 -38t38 -21h69v-252h-731z
" />
    <glyph glyph-name="Zcaron.titling" horiz-adv-x="1212" 
d="M18 0v313l658 830v8h-303l-39 -172h-277v455h1137v-322l-657 -829v-9h327l39 201h291v-475h-1176zM303 1749h193l127 -90l125 90h170v-82l-146 -211h-326l-143 211v82z" />
    <glyph glyph-name="Adieresis.titling" horiz-adv-x="1540" 
d="M713 1077l-144 -422h269l-121 422h-4zM16 0v252h27q53 0 78 63l282 801q6 18 -6 36t-30 19h-68v263h772l359 -1135q6 -15 25 -31t36 -16h33v-252h-729v252h159l-53 186h-403q-31 -94 -16 -140t89 -46h54v-252h-609zM510 1454q-84 0 -136 49t-52 129t52 128t136 48
t136 -48t52 -128t-52 -129t-136 -49zM936 1454q-84 0 -136 49t-52 129t52 128t136 48t136 -48t52 -128t-52 -129t-136 -49z" />
    <glyph glyph-name="Aring.titling" horiz-adv-x="1540" 
d="M713 1077l-144 -422h269l-121 422h-4zM16 0v252h27q53 0 78 63l282 801q6 18 -6 36t-30 19h-68v263h772l359 -1135q6 -15 25 -31t36 -16h33v-252h-729v252h159l-53 186h-403q-31 -94 -16 -140t89 -46h54v-252h-609zM725 1575q41 0 67 26q26 27 26 69t-26 68t-67 26
t-66 -26t-25 -69t26 -69q24 -26 65 -25zM725 1458q-92 0 -158 58t-65 153q0 94 65 153q66 58 158 58t158 -58q65 -58 65 -152t-66 -154q-66 -58 -157 -58z" />
    <glyph glyph-name="Eacute.titling" horiz-adv-x="1282" 
d="M18 0v252h60q18 0 38 21q19 22 19 38v803q0 16 -19 36t-38 21h-60v263h1221v-465h-276l-41 182h-308v-274h330v-291h-330v-312h316l39 218h288v-492h-1239zM954 1749v-115l-204 -178h-252l49 293h407z" />
    <glyph glyph-name="Ntilde.titling" horiz-adv-x="1499" 
d="M18 0v252h60q18 0 38 21q19 22 19 38v803q0 16 -19 36t-38 21h-60v263h576l428 -740h6v477h-125v263h578v-263h-54q-16 0 -35 -20t-20 -37v-1114h-416l-473 813h-6v-561h131v-252h-590zM430 1458v172q57 125 211 125q47 0 128 -20t105 -21q49 0 70 49h174v-176
q-59 -125 -211 -125q-47 0 -128 23t-105 22q-49 0 -68 -49h-176z" />
    <glyph glyph-name="Odieresis.titling" horiz-adv-x="1525" 
d="M543 1456q-84 0 -136 49t-53 129q0 80 52 128t137 48q84 0 136 -48t52 -128t-52 -129t-136 -49zM969 1456q-84 0 -136 49t-53 129q0 80 52 128t137 48q84 0 136 -48t52 -128t-52 -129t-136 -49zM760 279q114 -1 182 109t68 320t-68 318t-184 107t-182 -107t-66 -317
t68 -321t182 -109zM760 -23q-326 0 -534 197t-208 542q0 344 211 542t531 198t530 -198q211 -198 211 -542q1 -344 -207 -542q-208 -197 -534 -197z" />
    <glyph glyph-name="Udieresis.titling" horiz-adv-x="1486" 
d="M588 1454q-84 0 -136 49t-53 129q1 80 53 128t136 48t136 -48t52 -128t-52 -129t-136 -49zM1014 1454q-84 0 -136 49t-53 129q1 80 53 128t136 48t136 -48t52 -128t-52 -129t-136 -49zM1362 522q0 -538 -618 -538t-617 538v592q0 16 -19 36t-38 21h-52v263h730v-263h-142
v-673q0 -113 47 -165t149 -52t151 52q48 52 48 165v673h-141v263h608v-263h-51q-15 0 -35 -20t-20 -37v-592z" />
    <glyph glyph-name="Agrave.titling" horiz-adv-x="1540" 
d="M713 1077l-144 -422h269l-121 422h-4zM16 0v252h27q53 0 78 63l282 801q6 18 -6 36t-30 19h-68v263h772l359 -1135q6 -15 25 -31t36 -16h33v-252h-729v252h159l-53 186h-403q-31 -94 -16 -140t89 -46h54v-252h-609zM416 1749h407l49 -293h-251l-205 178v115z" />
    <glyph glyph-name="Atilde.titling" horiz-adv-x="1540" 
d="M713 1077l-144 -422h269l-121 422h-4zM16 0v252h27q53 0 78 63l282 801q6 18 -6 36t-30 19h-68v263h772l359 -1135q6 -15 25 -31t36 -16h33v-252h-729v252h159l-53 186h-403q-31 -94 -16 -140t89 -46h54v-252h-609zM381 1458v172q57 125 211 125q47 0 128 -20t105 -21
q49 0 70 49h174v-176q-59 -125 -211 -125q-47 0 -128 23t-105 22q-49 0 -68 -49h-176z" />
    <glyph glyph-name="Otilde.titling" horiz-adv-x="1525" 
d="M762 279q114 -1 182 109t68 320t-68 318t-184 107t-182 -107t-66 -317t68 -321t182 -109zM762 -23q-326 0 -534 197t-208 542q0 344 211 542t531 198t530 -198q211 -198 211 -542q1 -344 -207 -542q-208 -197 -534 -197zM416 1468v172q57 125 211 125q47 0 128 -20
t105 -21q49 0 70 50h174v-177q-59 -125 -211 -124q-47 1 -128 23t-106 22q-49 0 -67 -50h-176z" />
    <glyph glyph-name="Acircumflex.titling" horiz-adv-x="1540" 
d="M416 1456v82l147 211h326l143 -211v-82h-192l-127 90l-125 -90h-172zM713 1077l-144 -422h269l-121 422h-4zM16 0v252h27q53 0 78 63l282 801q6 18 -6 36t-30 19h-68v263h772l359 -1135q6 -15 25 -31t36 -16h33v-252h-729v252h159l-53 186h-403q-31 -94 -16 -140t89 -46
h54v-252h-609z" />
    <glyph glyph-name="Ecircumflex.titling" horiz-adv-x="1282" 
d="M338 1456v82l147 211h326l143 -211v-82h-192l-127 90l-125 -90h-172zM18 0v252h60q18 0 38 21q19 22 19 38v803q0 16 -19 36t-38 21h-60v263h1221v-465h-276l-41 182h-308v-274h330v-291h-330v-312h316l39 218h288v-492h-1239z" />
    <glyph glyph-name="Aacute.titling" horiz-adv-x="1540" 
d="M1032 1749v-115l-205 -178h-252l50 293h407zM713 1077l-144 -422h269l-121 422h-4zM16 0v252h27q53 0 78 63l282 801q6 18 -6 36t-30 19h-68v263h772l359 -1135q6 -15 25 -31t36 -16h33v-252h-729v252h159l-53 186h-403q-31 -94 -16 -140t89 -46h54v-252h-609z" />
    <glyph glyph-name="Edieresis.titling" horiz-adv-x="1282" 
d="M432 1454q-84 0 -136 49t-52 129t52 128t136 48t136 -48t52 -128t-52 -129t-136 -49zM858 1454q-84 0 -136 49t-52 129t52 128t136 48t136 -48t52 -128t-52 -129t-136 -49zM18 0v252h60q18 0 38 21q19 22 19 38v803q0 16 -19 36t-38 21h-60v263h1221v-465h-276l-41 182
h-308v-274h330v-291h-330v-312h316l39 218h288v-492h-1239z" />
    <glyph glyph-name="Egrave.titling" horiz-adv-x="1282" 
d="M18 0v252h60q18 0 38 21q19 22 19 38v803q0 16 -19 36t-38 21h-60v263h1221v-465h-276l-41 182h-308v-274h330v-291h-330v-312h316l39 218h288v-492h-1239zM338 1749h407l50 -293h-252l-205 178v115z" />
    <glyph glyph-name="Iacute.titling" horiz-adv-x="768" 
d="M18 0v252h70q18 0 38 21q19 22 19 38v803q0 16 -19 36t-38 21h-70v263h734v-263h-72q-16 0 -36 -20t-19 -37v-803q0 -16 19 -38t36 -21h72v-252h-734zM692 1749v-115l-205 -178h-251l49 293h407z" />
    <glyph glyph-name="Icircumflex.titling" horiz-adv-x="768" 
d="M18 0v252h70q18 0 38 21q19 22 19 38v803q0 16 -19 36t-38 21h-70v263h734v-263h-72q-16 0 -36 -20t-19 -37v-803q0 -16 19 -38t36 -21h72v-252h-734zM76 1456v82l147 211h326l143 -211v-82h-192l-127 90l-125 -90h-172z" />
    <glyph glyph-name="Idieresis.titling" horiz-adv-x="768" 
d="M18 0v252h70q18 0 38 21q19 22 19 38v803q0 16 -19 36t-38 21h-70v263h734v-263h-72q-16 0 -36 -20t-19 -37v-803q0 -16 19 -38t36 -21h72v-252h-734zM170 1448q-84 0 -136 49t-52 129t52 128t136 48t136 -48t52 -128t-52 -129t-136 -49zM596 1448q-84 0 -136 49t-52 129
t52 128t136 48t136 -48t52 -128t-52 -129t-136 -49z" />
    <glyph glyph-name="Igrave.titling" horiz-adv-x="768" 
d="M18 0v252h70q18 0 38 21q19 22 19 38v803q0 16 -19 36t-38 21h-70v263h734v-263h-72q-16 0 -36 -20t-19 -37v-803q0 -16 19 -38t36 -21h72v-252h-734zM76 1749h407l49 -293h-251l-205 178v115z" />
    <glyph glyph-name="Oacute.titling" horiz-adv-x="1525" 
d="M1065 1772v-115l-205 -178h-252l49 293h408zM760 279q114 -1 182 109t68 320t-68 318t-184 107t-182 -107t-66 -317t68 -321t182 -109zM760 -23q-326 0 -534 197t-208 542q0 344 211 542t531 198t530 -198q211 -198 211 -542q1 -344 -207 -542q-208 -197 -534 -197z" />
    <glyph glyph-name="Ocircumflex.titling" horiz-adv-x="1525" 
d="M449 1479v82l147 211h326l143 -211v-82h-193l-127 90l-124 -90h-172zM760 279q114 -1 182 109t68 320t-68 318t-184 107t-182 -107t-66 -317t68 -321t182 -109zM760 -23q-326 0 -534 197t-208 542q0 344 211 542t531 198t530 -198q211 -198 211 -542q1 -344 -207 -542
q-208 -197 -534 -197z" />
    <glyph glyph-name="Ograve.titling" horiz-adv-x="1525" 
d="M760 279q114 -1 182 109t68 320t-68 318t-184 107t-182 -107t-66 -317t68 -321t182 -109zM760 -23q-326 0 -534 197t-208 542q0 344 211 542t531 198t530 -198q211 -198 211 -542q1 -344 -207 -542q-208 -197 -534 -197zM449 1772h407l49 -293h-252l-204 178v115z" />
    <glyph glyph-name="Uacute.titling" horiz-adv-x="1486" 
d="M1110 1749v-115l-205 -178h-252l49 293h408zM1362 522q0 -538 -618 -538t-617 538v592q0 16 -19 36t-38 21h-52v263h730v-263h-142v-673q0 -113 47 -165t149 -52t151 52q48 52 48 165v673h-141v263h608v-263h-51q-15 0 -35 -20t-20 -37v-592z" />
    <glyph glyph-name="Ucircumflex.titling" horiz-adv-x="1486" 
d="M1362 522q0 -538 -618 -538t-617 538v592q0 16 -19 36t-38 21h-52v263h730v-263h-142v-673q0 -113 47 -165t149 -52t151 52q48 52 48 165v673h-141v263h608v-263h-51q-15 0 -35 -20t-20 -37v-592zM494 1456v82l147 211h326l143 -211v-82h-192l-127 90l-125 -90h-172z" />
    <glyph glyph-name="Ugrave.titling" horiz-adv-x="1486" 
d="M1362 522q0 -538 -618 -538t-617 538v592q0 16 -19 36t-38 21h-52v263h730v-263h-142v-673q0 -113 47 -165t149 -52t151 52q48 52 48 165v673h-141v263h608v-263h-51q-15 0 -35 -20t-20 -37v-592zM494 1749h407l49 -293h-252l-204 178v115z" />
    <glyph glyph-name="Ydieresis.titling" horiz-adv-x="1419" 
d="M539 1454q-84 0 -137 49q-52 49 -52 129t52 128t136 48t137 -48q52 -48 52 -128t-52 -129t-136 -49zM965 1454q-84 0 -137 49q-52 49 -52 129t52 128t136 48t137 -48q52 -48 52 -128t-52 -129t-136 -49zM346 0v252h70q18 0 37 20q18 20 18 39v232l-360 585q-27 43 -60 43
h-33v263h689v-263h-125l192 -333h6l121 209q35 57 19 91t-84 33h-33v263h598v-263h-21q-41 0 -80 -59l-350 -559v-242q0 -16 20 -38t38 -21h69v-252h-731z" />
    <glyph glyph-name="Amacron.titling" horiz-adv-x="1540" 
d="M713 1077l-144 -422h269l-121 422h-4zM16 0v252h27q53 0 78 63l282 801q6 18 -6 36t-30 19h-68v263h772l359 -1135q6 -15 25 -31t36 -16h33v-252h-729v252h159l-53 186h-403q-31 -94 -16 -140t89 -46h54v-252h-609zM432 1468v246h586v-246h-586z" />
    <glyph glyph-name="Abreve.titling" horiz-adv-x="1540" 
d="M713 1077l-144 -422h269l-121 422h-4zM16 0v252h27q53 0 78 63l282 801q6 18 -6 36t-30 19h-68v263h772l359 -1135q6 -15 25 -31t36 -16h33v-252h-729v252h159l-53 186h-403q-31 -94 -16 -140t89 -46h54v-252h-609zM726 1454q-120 0 -196 53t-106 127v129h211
q14 -69 90 -69t90 69h211v-129q-32 -74 -106 -127t-194 -53z" />
    <glyph glyph-name="Cacute.titling" horiz-adv-x="1323" 
d="M1049 1772v-115l-205 -178h-252l49 293h408zM740 -23q-338 -1 -526 185t-189 544q0 358 185 554t519 196q131 0 240 -22h325v-512h-305l-47 206q-49 14 -113 15q-291 0 -290 -420q0 -221 62 -327q61 -106 205 -105q144 0 257 143h237v-309q-222 -148 -560 -148z" />
    <glyph glyph-name="Ccircumflex.titling" horiz-adv-x="1323" 
d="M434 1468v82l148 211h325l144 -211v-82h-193l-127 91l-125 -91h-172zM742 -23q-338 -1 -526 185t-189 544q0 358 185 554t519 196q131 0 240 -22h325v-512h-305l-47 206q-51 14 -113 15q-291 0 -290 -420q0 -221 62 -327q61 -106 205 -105q144 0 257 143h238v-309
q-223 -148 -561 -148z" />
    <glyph glyph-name="Cdotaccent.titling" horiz-adv-x="1323" 
d="M740 -23q-338 -1 -526 185t-189 544q0 358 185 554t519 196q131 0 240 -22h325v-512h-305l-47 206q-49 14 -113 15q-291 0 -290 -420q0 -221 62 -327q61 -106 205 -105q144 0 257 143h237v-309q-222 -148 -560 -148zM745 1468q-92 0 -150 52t-58 140q0 87 58 140t150 53
q93 0 151 -53t58 -140q0 -88 -58 -140t-151 -52z" />
    <glyph glyph-name="Ccaron.titling" horiz-adv-x="1323" 
d="M432 1772h193l127 -91l125 91h170v-82l-146 -211h-326l-143 211v82zM740 -23q-338 -1 -526 185t-189 544q0 358 185 554t519 196q131 0 240 -22h325v-512h-305l-47 206q-49 14 -113 15q-291 0 -290 -420q0 -221 62 -327q61 -106 205 -105q144 0 257 143h237v-309
q-222 -148 -560 -148z" />
    <glyph glyph-name="Dcaron.titling" horiz-adv-x="1499" 
d="M342 1749h193l127 -90l124 90h170v-82l-145 -211h-326l-143 211v82zM614 264h60q313 0 313 445q0 227 -77 335t-236 109h-60v-889zM18 0v252h60q18 0 38 21q19 22 19 38v803q0 16 -19 36t-38 21h-60v263h670q406 0 598 -172t193 -535q0 -727 -805 -727h-656z" />
    <glyph glyph-name="Emacron.titling" horiz-adv-x="1282" 
d="M18 0v252h60q18 0 38 21q19 22 19 38v803q0 16 -19 36t-38 21h-60v263h1221v-465h-276l-41 182h-308v-274h330v-291h-330v-312h316l39 218h288v-492h-1239zM354 1468v246h586v-246h-586z" />
    <glyph glyph-name="Edotaccent.titling" horiz-adv-x="1282" 
d="M18 0v252h60q18 0 38 21q19 22 19 38v803q0 16 -19 36t-38 21h-60v263h1221v-465h-276l-41 182h-308v-274h330v-291h-330v-312h316l39 218h288v-492h-1239zM651 1460q-92 0 -150 52q-59 52 -59 140t58 140q58 53 151 53t151 -53t58 -140t-58 -140q-59 -52 -151 -52z" />
    <glyph glyph-name="Ecaron.titling" horiz-adv-x="1282" 
d="M338 1749h192l127 -90l125 90h170v-82l-145 -211h-326l-143 211v82zM18 0v252h60q18 0 38 21q19 22 19 38v803q0 16 -19 36t-38 21h-60v263h1221v-465h-276l-41 182h-308v-274h330v-291h-330v-312h316l39 218h288v-492h-1239z" />
    <glyph glyph-name="Ebreve.titling" horiz-adv-x="1282" 
d="M652 1477q-120 0 -196 53t-106 127v129h211q14 -70 90 -70t90 70h211v-129q-32 -74 -106 -127t-194 -53zM18 0v252h60q18 0 38 21q19 22 19 38v803q0 16 -19 36t-38 21h-60v263h1221v-465h-276l-41 182h-308v-274h330v-291h-330v-312h316l39 218h288v-492h-1239z" />
    <glyph glyph-name="Gcircumflex.titling" horiz-adv-x="1427" 
d="M432 1470v82l148 211h325l144 -211v-82h-193l-127 91l-125 -91h-172zM735 -23q-717 0 -717 725q0 365 186 560t527 194q135 0 240 -22h325v-498h-307l-47 192q-61 14 -119 15q-141 0 -216 -96q-75 -97 -75 -323t56 -337t188 -111q59 0 98 9v198h-100v250h643v-256h-31
q-18 0 -37 -20t-20 -37v-420h-237q-18 41 -58 41q-113 -64 -299 -64z" />
    <glyph glyph-name="Gbreve.titling" horiz-adv-x="1427" 
d="M742 1477q-120 0 -196 53t-106 127v129h211q14 -70 90 -70t90 70h211v-129q-32 -74 -106 -127t-194 -53zM735 -23q-717 0 -717 725q0 365 186 560t527 194q135 0 240 -22h325v-498h-307l-47 192q-61 14 -119 15q-141 0 -216 -96q-75 -97 -75 -323t56 -337t188 -111
q59 0 98 9v198h-100v250h643v-256h-31q-18 0 -37 -20t-20 -37v-420h-237q-18 41 -58 41q-113 -64 -299 -64z" />
    <glyph glyph-name="Gdotaccent.titling" horiz-adv-x="1427" 
d="M735 -23q-717 0 -717 725q0 365 186 560t527 194q135 0 240 -22h325v-498h-307l-47 192q-61 14 -119 15q-141 0 -216 -96q-75 -97 -75 -323t56 -337t188 -111q59 0 98 9v198h-100v250h643v-256h-31q-18 0 -37 -20t-20 -37v-420h-237q-18 41 -58 41q-113 -64 -299 -64z
M745 1462q-92 0 -150 52t-58 140t58 140q58 53 150 53q93 0 151 -53t58 -140t-58 -140q-59 -52 -151 -52z" />
    <glyph glyph-name="Hcircumflex.titling" horiz-adv-x="1566" 
d="M473 1456v82l148 211h325l144 -211v-82h-193l-127 90l-125 -90h-172zM18 0v252h60q18 0 38 21q19 22 19 38v803q0 16 -19 36t-38 21h-60v263h719v-263h-123v-323h338v323h-123v263h719v-263h-59q-17 0 -37 -20t-20 -37v-803q0 -16 19 -38t38 -21h59v-252h-719v252h123
v352h-338v-352h123v-252h-719z" />
    <glyph glyph-name="Imacron.titling" horiz-adv-x="768" 
d="M18 0v252h70q18 0 38 21q19 22 19 38v803q0 16 -19 36t-38 21h-70v263h734v-263h-72q-16 0 -36 -20t-19 -37v-803q0 -16 19 -38t36 -21h72v-252h-734zM92 1468v246h586v-246h-586z" />
    <glyph glyph-name="Idotaccent.titling" horiz-adv-x="768" 
d="M18 0v252h70q18 0 38 21q19 22 19 38v803q0 16 -19 36t-38 21h-70v263h734v-263h-72q-16 0 -36 -20t-19 -37v-803q0 -16 19 -38t36 -21h72v-252h-734zM389 1460q-92 0 -150 52q-59 52 -59 140t58 140q58 53 151 53t151 -53t58 -140t-58 -140q-59 -52 -151 -52z" />
    <glyph glyph-name="Jcircumflex.titling" horiz-adv-x="1116" 
d="M438 -16q-268 0 -420 77v308h230q49 -86 135 -86q106 0 106 123v708q0 16 -19 36t-36 21h-82v263h744v-263h-70q-18 0 -36 -20t-19 -37v-668q0 -242 -133 -352q-132 -110 -400 -110zM414 1456v82l147 211h326l143 -211v-82h-192l-127 90l-125 -90h-172z" />
    <glyph glyph-name="Lacute.titling" horiz-adv-x="1245" 
d="M707 1749v-115l-205 -178h-252l49 293h408zM18 0v252h60q18 0 38 21q19 22 19 38v803q0 16 -19 36t-38 21h-60v263h758v-263h-162v-897h283l39 254h293v-528h-1211z" />
    <glyph glyph-name="Nacute.titling" horiz-adv-x="1499" 
d="M1081 1749v-115l-204 -178h-252l49 293h407zM18 0v252h60q18 0 38 21q19 22 19 38v803q0 16 -19 36t-38 21h-60v263h576l428 -740h6v477h-125v263h578v-263h-54q-16 0 -35 -20t-20 -37v-1114h-416l-473 813h-6v-561h131v-252h-590z" />
    <glyph glyph-name="Ncaron.titling" horiz-adv-x="1499" 
d="M465 1749h192l127 -90l125 90h170v-82l-145 -211h-326l-143 211v82zM18 0v252h60q18 0 38 21q19 22 19 38v803q0 16 -19 36t-38 21h-60v263h576l428 -740h6v477h-125v263h578v-263h-54q-16 0 -35 -20t-20 -37v-1114h-416l-473 813h-6v-561h131v-252h-590z" />
    <glyph glyph-name="Omacron.titling" horiz-adv-x="1525" 
d="M760 279q114 -1 182 109t68 320t-68 318t-184 107t-182 -107t-66 -317t68 -321t182 -109zM760 -23q-326 0 -534 197t-208 542q0 344 211 542t531 198t530 -198q211 -198 211 -542q1 -344 -207 -542q-208 -197 -534 -197zM465 1491v246h586v-246h-586z" />
    <glyph glyph-name="Ohungarumlaut.titling" horiz-adv-x="1525" 
d="M813 1772v-109l-147 -184h-230l35 293h342zM1212 1772v-109l-147 -184h-227l32 293h342zM760 279q114 -1 182 109t68 320t-68 318t-184 107t-182 -107t-66 -317t68 -321t182 -109zM760 -23q-326 0 -534 197t-208 542q0 344 211 542t531 198t530 -198q211 -198 211 -542
q1 -344 -207 -542q-208 -197 -534 -197z" />
    <glyph glyph-name="Racute.titling" horiz-adv-x="1449" 
d="M967 1749v-115l-205 -178h-252l49 293h408zM602 1153v-358h82q98 0 137 44t39 134t-40 135t-136 45h-82zM18 0v252h60q18 0 38 21q19 22 19 38v803q0 16 -19 36t-38 21h-60v263h713q311 0 459 -102t147 -308q-1 -129 -67 -208t-211 -118v-8q115 -25 173 -87t91 -208
l23 -92q12 -51 51 -51h35v-252h-525l-47 389q-10 88 -46 123t-114 35h-86v-295h129v-252h-725z" />
    <glyph glyph-name="Rcaron.titling" horiz-adv-x="1449" 
d="M602 1153v-358h82q98 0 137 44t39 134t-40 135t-136 45h-82zM18 0v252h60q18 0 38 21q19 22 19 38v803q0 16 -19 36t-38 21h-60v263h713q311 0 459 -102t147 -308q-1 -129 -67 -208t-211 -118v-8q115 -25 173 -87t91 -208l23 -92q12 -51 51 -51h35v-252h-525l-47 389
q-10 88 -46 123t-114 35h-86v-295h129v-252h-725zM350 1749h193l127 -90l125 90h170v-82l-146 -211h-325l-144 211v82z" />
    <glyph glyph-name="Sacute.titling" horiz-adv-x="1150" 
d="M885 1772v-115l-205 -178h-252l49 293h408zM565 -23q-129 0 -241 23h-306v453h312l41 -179q43 -14 123 -14q174 0 174 127q0 63 -47 90t-117 47t-122 32q-135 36 -236 118q-123 100 -122 327t145 341t388 114q154 0 262 -22h262v-416h-307l-41 153q-47 14 -106 15
q-174 0 -174 -125q0 -78 94 -111q23 -10 78 -24l24 -6q267 -72 371 -167t104 -294q0 -482 -559 -482z" />
    <glyph glyph-name="Scircumflex.titling" horiz-adv-x="1150" 
d="M268 1473v81l148 211h325l144 -211v-81h-193l-127 90l-125 -90h-172zM565 -23q-129 0 -241 23h-306v453h312l41 -179q43 -14 123 -14q174 0 174 127q0 63 -47 90t-117 47t-122 32q-135 36 -236 118q-123 100 -122 327t145 341t388 114q154 0 262 -22h262v-416h-307
l-41 153q-47 14 -106 15q-174 0 -174 -125q0 -78 94 -111q23 -10 78 -24l24 -6q267 -72 371 -167t104 -294q0 -482 -559 -482z" />
    <glyph glyph-name="Tcaron.titling" horiz-adv-x="1384" 
d="M383 1749h192l127 -90l125 90h170v-82l-145 -211h-326l-143 211v82zM328 0v252h67q18 0 38 21q19 22 20 38v848h-115l-31 -264h-284v539h1339v-539h-283l-32 264h-115v-848q0 -16 19 -38t38 -21h68v-252h-729z" />
    <glyph glyph-name="Umacron.titling" horiz-adv-x="1486" 
d="M1362 522q0 -538 -618 -538t-617 538v592q0 16 -19 36t-38 21h-52v263h730v-263h-142v-673q0 -113 47 -165t149 -52t151 52q48 52 48 165v673h-141v263h608v-263h-51q-15 0 -35 -20t-20 -37v-592zM510 1468v246h586v-246h-586z" />
    <glyph glyph-name="Ubreve.titling" horiz-adv-x="1486" 
d="M1362 522q0 -538 -618 -538t-617 538v592q0 16 -19 36t-38 21h-52v263h730v-263h-142v-673q0 -113 47 -165t149 -52t151 52q48 52 48 165v673h-141v263h608v-263h-51q-15 0 -35 -20t-20 -37v-592zM804 1454q-120 0 -196 53t-106 127v129h211q14 -69 90 -69t90 69h211
v-129q-32 -74 -106 -127t-194 -53z" />
    <glyph glyph-name="Uring.titling" horiz-adv-x="1486" 
d="M1362 522q0 -538 -618 -538t-617 538v592q0 16 -19 36t-38 21h-52v263h730v-263h-142v-673q0 -113 47 -165t149 -52t151 52q48 52 48 165v673h-141v263h608v-263h-51q-15 0 -35 -20t-20 -37v-592zM801 1563q41 -1 67 25t25 69q0 43 -26 69q-27 26 -67 25q-40 0 -65 -26
q-25 -27 -25 -69t25 -68q25 -25 66 -25zM801 1446q-92 0 -158 58q-65 58 -65 152t65 153q66 59 158 59q91 0 157 -58t66 -153t-66 -153t-157 -58z" />
    <glyph glyph-name="Uhungarumlaut.titling" horiz-adv-x="1486" 
d="M1362 522q0 -538 -618 -538t-617 538v592q0 16 -19 36t-38 21h-52v263h730v-263h-142v-673q0 -113 47 -165t149 -52t151 52q48 52 48 165v673h-141v263h608v-263h-51q-15 0 -35 -20t-20 -37v-592zM858 1749v-109l-147 -184h-230l35 293h342zM1257 1749v-109l-147 -184
h-227l32 293h342z" />
    <glyph glyph-name="Zacute.titling" horiz-adv-x="1212" 
d="M18 0v313l658 830v8h-303l-39 -172h-277v455h1137v-322l-657 -829v-9h327l39 201h291v-475h-1176zM920 1749v-115l-205 -178h-252l49 293h408z" />
    <glyph glyph-name="Zdotaccent.titling" horiz-adv-x="1212" 
d="M18 0v313l658 830v8h-303l-39 -172h-277v455h1137v-322l-657 -829v-9h327l39 201h291v-475h-1176zM616 1450q-92 0 -150 52t-58 139t58 141t150 53q92 0 150 -53q58 -52 59 -140q-1 -88 -59 -140t-150 -52z" />
    </font>
</defs>
</svg>
