<?xml version="1.0" standalone="no"?>
<!DOCTYPE svg PUBLIC "-//W3C//DTD SVG 1.1//EN" "http://www.w3.org/Graphics/SVG/1.1/DTD/svg11.dtd" >
<svg xmlns="http://www.w3.org/2000/svg">
<metadata>
Created by FontPrep 20130207 at Tue May 24 12:42:37 2016
 By Rudy GUILLERM
Copyright (c) Christian Schwartz, 2007. All rights reserved.
</metadata>
<defs>
<font id="838673efa3f97adb4a8c5112bfdc6416" horiz-adv-x='1024' >
  <font-face 
    font-family="StagSans-Light"
    font-weight="300"
    font-stretch="normal"
    units-per-em="2048"
    panose-1="2 11 3 3 4 0 0 2 0 4"
    ascent="1638"
    descent="-410"
    x-height="1067"
    cap-height="1434"
    bbox="-354 -356 2107 1839"
    underline-thickness="102"
    underline-position="-102"
    unicode-range="U+0020-FB02"
  />
<missing-glyph horiz-adv-x="1024" 
 />
    <glyph glyph-name="f_f" unicode="ff" horiz-adv-x="1077" 
d="M25 989v78h141v94q0 133 68 200q69 67 182 66q78 0 131 -12v-72h-107q-88 -1 -130 -41t-42 -147v-88h422v107q0 134 69 200t164 66t148 -13v-71h-106q-88 0 -130 -41t-42 -148v-100h258v-78h-258v-989h-103v989h-422v-989h-102v989h-141z" />
    <glyph glyph-name=".notdef" horiz-adv-x="1024" 
 />
    <glyph glyph-name=".null" horiz-adv-x="0" 
 />
    <glyph glyph-name="nonmarkingreturn" horiz-adv-x="681" 
 />
    <glyph glyph-name="space" unicode=" " horiz-adv-x="493" 
 />
    <glyph glyph-name="exclam" unicode="!" horiz-adv-x="464" 
d="M231 -8q-35 0 -57 22t-20 56q0 32 22 56t56 24q32 0 56 -24t24 -56t-23 -56q-23 -22 -58 -22zM178 1434h111v-74l-13 -1065h-86l-12 1065v74z" />
    <glyph glyph-name="quotedbl" unicode="&#x22;" horiz-adv-x="436" 
d="M272 1434h107v-93l-17 -266h-71l-19 266v93zM57 1434h107v-93l-19 -266h-69l-19 266v93z" />
    <glyph glyph-name="numbersign" unicode="#" horiz-adv-x="935" 
d="M346 872l-37 -256h281l39 256h-283zM100 872v97h185l67 465h76l-70 -465h281l70 465h75l-69 -465h172v-97h-185l-38 -256h174v-98h-187l-76 -518h-75l75 518h-280l-76 -518h-76l78 518h-174v98h186l39 256h-172z" />
    <glyph glyph-name="dollar" unicode="$" horiz-adv-x="1019" 
d="M178 1079q0 -117 68 -174t215 -98v547q-141 -12 -212 -85t-71 -190zM856 387q0 133 -72 191t-239 102v-600q311 24 311 307zM547 1565v-123q201 -8 346 -113v-92h-49q-129 111 -297 119v-572q223 -61 318 -141t95 -258q0 -177 -111 -279q-112 -102 -304 -112v-203h-86
v201q-246 8 -412 135v96h49q135 -135 363 -145v624q-201 56 -292 138t-91 236t101 252q101 97 284 112v125h86z" />
    <glyph glyph-name="percent" unicode="%" horiz-adv-x="1472" 
d="M1093 -8q-132 0 -222 93q-89 93 -89 263t89 263t221 93t222 -92q89 -94 89 -264t-89 -263t-221 -93zM1093 66q97 0 155 74t58 207q0 132 -58 207t-155 75t-155 -75t-57 -208q0 -133 57 -207q58 -73 155 -73zM182 -70l1010 1563h98l-1009 -1563h-99zM378 731
q-132 0 -221 93t-89 263q0 171 89 263t221 92t221 -93t89 -263t-89 -262q-89 -93 -221 -93zM378 1368q-98 0 -154 -75q-58 -75 -58 -208t58 -207t154 -73q97 0 156 74q58 75 58 207t-58 207t-156 75z" />
    <glyph glyph-name="ampersand" unicode="&#x26;" horiz-adv-x="1314" 
d="M565 80q221 0 359 170l-461 520q-133 -55 -205 -137t-72 -221q0 -140 96 -236t283 -96zM74 408q0 299 334 426q-111 135 -111 280q0 144 101 236q102 92 276 92t284 -92v-80h-51q-92 86 -226 86t-206 -67t-72 -177q0 -74 39 -144t127 -169l408 -457q117 219 143 453h92
v-37q-43 -270 -174 -488l201 -225v-45h-90l-166 184q-162 -193 -430 -192q-229 0 -354 117t-125 299z" />
    <glyph glyph-name="quotesingle" unicode="'" horiz-adv-x="221" 
d="M57 1434h107v-93l-19 -266h-69l-19 266v93z" />
    <glyph glyph-name="parenleft" unicode="(" horiz-adv-x="561" 
d="M526 1518v-70q-124 -67 -229 -216q-59 -85 -95 -220t-36 -302q0 -437 242 -657q55 -51 118 -84v-69h-32q-154 64 -280 239q-69 93 -111 241t-42 312t29 290q51 221 176 367q96 112 228 169h32z" />
    <glyph glyph-name="parenright" unicode=")" horiz-adv-x="561" 
d="M35 1518h33q127 -56 227 -169q205 -240 205 -640q0 -478 -290 -721q-69 -57 -142 -88h-33v69q127 66 232 219q58 84 93 220t35 302q0 435 -244 656q-55 49 -116 82v70z" />
    <glyph glyph-name="asterisk" unicode="*" horiz-adv-x="733" 
d="M319 1434h95v-70l-17 -217l193 86l63 22l27 -92l-64 -22l-202 -47l141 -160l39 -55l-72 -56l-39 56l-116 182l-117 -182l-41 -56l-70 56l39 55l141 160l-204 47l-62 22l27 92l63 -22l193 -86l-17 217v70z" />
    <glyph glyph-name="plus" unicode="+" horiz-adv-x="952" 
d="M887 662h-359v-386h-100v386h-360v92h360v385h100v-385h359v-92z" />
    <glyph glyph-name="comma" unicode="," horiz-adv-x="294" 
d="M133 -27q0 19 -6 24t-8 7t-9 6q-43 25 -43 62q1 37 23 57q22 21 56 21t58 -27t23 -82q0 -184 -180 -207v64q86 16 86 75z" />
    <glyph glyph-name="hyphen" unicode="-" horiz-adv-x="466" 
d="M51 565v90h365v-90h-365z" />
    <glyph glyph-name="period" unicode="." horiz-adv-x="294" 
d="M147 -8q-33 0 -55 22t-22 56q0 32 22 56t56 24q32 0 56 -24t24 -56t-24 -56q-24 -22 -57 -22z" />
    <glyph glyph-name="slash" unicode="/" horiz-adv-x="626" 
d="M600 1518v-29l-489 -1589h-88v28l485 1590h92z" />
    <glyph glyph-name="zero" unicode="0" horiz-adv-x="1310" 
d="M654 80q212 0 339 162t127 474t-127 475t-339 163t-339 -163t-127 -475t127 -474t339 -162zM655 -8q-249 0 -413 186t-164 536t165 539t413 189t412 -188q165 -188 165 -539t-164 -537t-414 -186z" />
    <glyph glyph-name="one" unicode="1" horiz-adv-x="602" 
d="M406 0h-111v1315l-225 -131h-47v71l309 179h74v-1434z" />
    <glyph glyph-name="two" unicode="2" horiz-adv-x="1026" 
d="M942 92v-92h-893v92l432 428q180 180 263 300t83 250t-79 206q-80 76 -232 76q-211 0 -354 -148h-53v78q172 160 413 160q201 0 307 -100q107 -100 107 -260t-94 -296t-283 -321l-381 -373h764z" />
    <glyph glyph-name="three" unicode="3" horiz-adv-x="1003" 
d="M932 410q0 -198 -125 -308t-363 -110t-401 135v84h55q126 -131 328 -131t299 88q96 88 96 241t-98 221t-256 68h-129v93h113q159 -1 249 71t91 211q0 281 -316 281q-207 0 -332 -113h-51v74q150 127 370 127q431 0 433 -363q0 -252 -248 -327v-4q285 -68 285 -338z" />
    <glyph glyph-name="four" unicode="4" horiz-adv-x="1105" 
d="M139 457h631v817h-4l-627 -813v-4zM881 0h-111v371h-729v104l739 959h101v-977h184v-86h-184v-371z" />
    <glyph glyph-name="five" unicode="5" horiz-adv-x="1034" 
d="M518 924q198 0 320 -111t123 -332t-145 -355t-376 -134t-393 127v86h53q123 -127 326 -127q204 0 314 108t110 290q0 184 -93 272t-249 88q-207 0 -326 -150h-80v748h787v-95h-699v-538h7q123 123 321 123z" />
    <glyph glyph-name="six" unicode="6" horiz-adv-x="1163" 
d="M985 450q0 174 -98 256q-99 80 -245 80t-263 -57t-189 -149q18 -258 132 -380t286 -122q174 0 276 99q101 99 101 273zM1094 454q0 -210 -136 -336t-360 -126t-372 174t-148 528t180 551t471 197q174 0 289 -62v-90h-51q-84 66 -242 66q-244 0 -390 -174t-149 -496v-8
q78 88 202 141t257 53q193 0 321 -104t128 -314z" />
    <glyph glyph-name="seven" unicode="7" horiz-adv-x="1015" 
d="M254 0v59l631 1276v4h-826v95h912v-105l-623 -1329h-94z" />
    <glyph glyph-name="eight" unicode="8" horiz-adv-x="1134" 
d="M567 809q154 0 240 74q86 73 86 199t-86 201t-240 75q-153 0 -239 -75t-86 -201t86 -200t239 -73zM566 76q192 0 293 88t102 233q-1 145 -103 235t-290 91q-188 0 -292 -90q-102 -89 -102 -235t100 -234t292 -88zM567 -8q-239 0 -369 110t-130 291q0 137 87 239t220 132
v4q-104 31 -173 117t-69 200q0 160 119 258q118 99 314 99t315 -98t118 -259q-1 -115 -69 -201t-170 -116v-4q137 -33 222 -132t85 -239q0 -181 -131 -291t-369 -110z" />
    <glyph glyph-name="nine" unicode="9" horiz-adv-x="1157" 
d="M549 1356q-175 0 -275 -100t-100 -273q0 -174 98 -255t242 -81t260 56t191 147q-18 258 -130 382t-286 124zM426 -8q-178 0 -297 61v90h51q84 -66 250 -65q260 0 399 171t140 499v8q-76 -88 -200 -142t-257 -53q-193 1 -321 105t-128 314q1 210 135 336t360 126t373 -174
q148 -174 148 -530t-174 -552q-174 -194 -479 -194z" />
    <glyph glyph-name="colon" unicode=":" horiz-adv-x="307" 
d="M154 150q34 0 56 -24t22 -56t-23 -56q-22 -22 -56 -22t-56 22t-21 56q0 32 22 56t56 24zM154 629q-33 1 -56 23q-22 22 -22 56t22 56t56 22t56 -24t22 -56t-23 -54q-22 -22 -55 -23z" />
    <glyph glyph-name="semicolon" unicode=";" horiz-adv-x="307" 
d="M154 629q-33 1 -56 23q-22 22 -22 56t22 56t56 22t56 -24t22 -56t-23 -54q-22 -22 -55 -23zM139 -27q0 19 -6 24t-8 7t-9 6q-43 25 -43 62q1 37 23 57q22 21 55 21t57 -27t23 -82q0 -184 -178 -207v64q86 16 86 75z" />
    <glyph glyph-name="less" unicode="&#x3c;" horiz-adv-x="927" 
d="M858 1120v-86l-694 -356v-4l694 -359v-86h-35l-764 404v84l764 403h35z" />
    <glyph glyph-name="equal" unicode="=" horiz-adv-x="974" 
d="M913 428h-854v90h854v-90zM913 770h-854v90h854v-90z" />
    <glyph glyph-name="greater" unicode="&#x3e;" horiz-adv-x="927" 
d="M68 229v86l694 357v2l-694 358v88h36l762 -405v-84l-762 -402h-36z" />
    <glyph glyph-name="question" unicode="?" horiz-adv-x="880" 
d="M348 -8q-34 0 -56 22t-22 56q0 32 23 56t55 24t56 -24t24 -56t-24 -56q-24 -22 -56 -22zM702 1120q0 113 -67 174q-68 61 -197 62q-219 0 -311 -123h-53v86q139 123 366 123q176 0 274 -83t99 -230q0 -147 -85 -246q-36 -43 -51 -61t-67 -65q-52 -48 -92 -87
q-41 -39 -73 -82q-79 -106 -60 -293h-88q-20 158 19 250t183 233q143 140 173 207t30 135z" />
    <glyph glyph-name="at" unicode="@" horiz-adv-x="1759" 
d="M567 406q0 -92 43 -138t110 -47q66 0 132 35t102 69t99 101l92 393q-76 57 -180 58q-160 1 -279 -145t-119 -326zM872 -244q-164 0 -304 43q-316 97 -433 363q-65 147 -65 342q0 196 78 360q141 298 479 425q152 56 305 57q328 0 543 -176t215 -484q0 -264 -134 -401
t-315 -138q-107 1 -155 51t-44 128q-162 -182 -335 -183q-104 0 -169 68t-65 195q0 202 142 376t348 174q127 0 211 -71q25 66 67 65h33l-129 -542q-47 -184 112 -185q139 0 241 115q101 115 101 348q0 274 -183 428t-480 154t-527 -193q-112 -91 -180 -241t-67 -332
q0 -340 196 -505t512 -165q156 0 294 39t227 109h39v-68q-96 -72 -245 -114t-313 -42z" />
    <glyph glyph-name="A" unicode="A" horiz-adv-x="1253" 
d="M623 1313l-279 -774h559l-276 774h-4zM61 0v45l504 1389h129l498 -1389v-45h-96l-162 449h-621l-159 -449h-93z" />
    <glyph glyph-name="B" unicode="B" horiz-adv-x="1187" 
d="M285 797h290q158 -1 254 65t97 211q0 270 -346 270h-295v-546zM285 90h327q174 0 278 76q103 76 103 233q0 307 -405 308h-303v-617zM176 0v1434h406q455 0 454 -357q0 -135 -66 -207t-188 -112v-2q152 -33 238 -115t86 -246q0 -199 -132 -297t-360 -98h-438z" />
    <glyph glyph-name="C" unicode="C" horiz-adv-x="1261" 
d="M719 -8q-283 0 -452 191t-169 535t180 533q180 190 451 191q158 0 252 -35t184 -109v-88h-51q-142 144 -376 144t-380 -164t-147 -470q0 -306 136 -473t383 -167t413 170h47v-82q-188 -176 -471 -176z" />
    <glyph glyph-name="D" unicode="D" horiz-adv-x="1366" 
d="M285 90h272q315 0 463 146t147 481q0 334 -147 480t-463 146h-272v-1253zM176 0v1434h383q361 0 541 -170t180 -545t-180 -547t-543 -172h-381z" />
    <glyph glyph-name="E" unicode="E" horiz-adv-x="1128" 
d="M176 0v1434h854v-93h-745v-557h563v-90h-563v-604h774v-90h-883z" />
    <glyph glyph-name="F" unicode="F" horiz-adv-x="1099" 
d="M285 0h-109v1434h854v-93h-745v-593h553v-91h-553v-657z" />
    <glyph glyph-name="G" unicode="G" horiz-adv-x="1372" 
d="M726 -8q-290 0 -465 186t-175 538t187 539q187 186 483 187q250 0 420 -113v-94h-54q-124 119 -370 119t-398 -159t-152 -474t142 -478q141 -163 401 -163q213 0 365 80v452h-317v90h426v-593q-203 -117 -493 -117z" />
    <glyph glyph-name="H" unicode="H" horiz-adv-x="1398" 
d="M285 0h-109v1434h109v-650h829v650h109v-1434h-109v694h-829v-694z" />
    <glyph glyph-name="I" unicode="I" horiz-adv-x="471" 
d="M291 0h-111v1434h111v-1434z" />
    <glyph glyph-name="J" unicode="J" horiz-adv-x="841" 
d="M674 328q0 -162 -90 -250t-264 -88q-173 0 -285 76v88h47q76 -76 227 -76q254 0 254 252v1104h111v-1106z" />
    <glyph glyph-name="K" unicode="K" horiz-adv-x="1265" 
d="M176 0v1434h109v-824l764 824h86v-43l-506 -543l557 -805v-43h-96l-533 772l-272 -289v-483h-109z" />
    <glyph glyph-name="L" unicode="L" horiz-adv-x="1103" 
d="M1032 0h-856v1434h109v-1344h747v-90z" />
    <glyph glyph-name="M" unicode="M" horiz-adv-x="1662" 
d="M176 0v1434h170l488 -1268h4l485 1268h166v-1434h-111v1303h-10l-502 -1303h-80l-499 1303h-8v-1303h-103z" />
    <glyph glyph-name="N" unicode="N" horiz-adv-x="1388" 
d="M176 0v1434h135l797 -1237h2v1237h104v-1434h-104l-827 1288h-4v-1288h-103z" />
    <glyph glyph-name="O" unicode="O" horiz-adv-x="1458" 
d="M728 78q234 0 383 167t149 471t-148 472t-383 168q-234 0 -382 -168t-148 -473t148 -471q147 -166 381 -166zM730 -8q-275 0 -460 192q-184 193 -184 533q0 341 184 533t460 192t458 -194q184 -194 184 -532t-183 -532q-184 -192 -459 -192z" />
    <glyph glyph-name="P" unicode="P" horiz-adv-x="1130" 
d="M285 1343v-655h262q201 0 300 77t99 254t-101 251t-298 73h-262zM176 0v1434h373q508 0 508 -410q0 -224 -131 -324t-379 -100h-262v-600h-109z" />
    <glyph glyph-name="Q" unicode="Q" horiz-adv-x="1466" 
d="M732 76q234 0 381 167t147 473t-148 473t-382 167q-235 0 -383 -167t-148 -473t149 -473q150 -167 384 -167zM86 717q0 341 184 533t460 192t458 -193q184 -193 184 -532q0 -295 -143 -480t-371 -223v-4l539 -106v-90h-62l-700 176q-549 139 -549 727z" />
    <glyph glyph-name="R" unicode="R" horiz-adv-x="1228" 
d="M291 1343v-606h268q193 0 289 67q96 68 96 234t-100 236t-285 69h-268zM563 649h-272v-649h-111v1434h383q492 0 492 -390q0 -291 -260 -366l342 -635v-43h-95l-354 655q-59 -6 -125 -6z" />
    <glyph glyph-name="S" unicode="S" horiz-adv-x="1044" 
d="M489 -8q-270 0 -442 135v96h49q143 -143 391 -143q172 0 272 76q99 76 99 231q0 108 -52 162q-30 31 -54 50q-54 42 -266 96t-308 136t-96 244t114 264q114 103 332 103t369 -113v-92h-51q-128 117 -312 117t-266 -74t-82 -205t88 -187q88 -55 286 -106q198 -52 301 -132
t103 -268t-128 -289t-347 -101z" />
    <glyph glyph-name="T" unicode="T" horiz-adv-x="1136" 
d="M625 0h-111v1343h-469v91h1047v-91h-467v-1343z" />
    <glyph glyph-name="U" unicode="U" horiz-adv-x="1380" 
d="M702 82q410 0 410 399v953h105v-949q-1 -257 -141 -375t-380 -118t-385 119t-145 374v949h108v-953q0 -399 428 -399z" />
    <glyph glyph-name="V" unicode="V" horiz-adv-x="1245" 
d="M59 1434h95l469 -1303h4l469 1303h90v-45l-506 -1389h-115l-506 1389v45z" />
    <glyph glyph-name="W" unicode="W" horiz-adv-x="1775" 
d="M63 1434h101l319 -1260h6l355 1260h94l356 -1260h6l318 1260h94v-43l-358 -1391h-119l-344 1243h-4l-346 -1243h-119l-359 1391v43z" />
    <glyph glyph-name="X" unicode="X" horiz-adv-x="1226" 
d="M72 0v45l471 700l-441 644v45h95l421 -617l412 617h86v-45l-432 -646l471 -698v-45h-94l-453 674l-450 -674h-86z" />
    <glyph glyph-name="Y" unicode="Y" horiz-adv-x="1126" 
d="M621 0h-111v600l-457 789v45h94l420 -732h2l420 732h86v-45l-454 -785v-604z" />
    <glyph glyph-name="Z" unicode="Z" horiz-adv-x="1150" 
d="M68 0v94l893 1249v3h-838v88h954v-97l-891 -1247v-4h869v-86h-987z" />
    <glyph glyph-name="bracketleft" unicode="[" horiz-adv-x="559" 
d="M156 -100v1618h356v-82h-254v-1454h254v-82h-356z" />
    <glyph glyph-name="backslash" unicode="\" horiz-adv-x="626" 
d="M29 1518h88l489 -1590v-28h-92l-485 1589v29z" />
    <glyph glyph-name="bracketright" unicode="]" horiz-adv-x="559" 
d="M403 1518v-1618h-354v82h252v1454h-252v82h354z" />
    <glyph glyph-name="asciicircum" unicode="^" horiz-adv-x="806" 
d="M55 956v35l303 443h95l299 -443v-35h-86l-258 379h-5l-264 -379h-84z" />
    <glyph glyph-name="underscore" unicode="_" horiz-adv-x="671" 
d="M676 -332h-680v80h680v-80z" />
    <glyph glyph-name="grave" unicode="`" 
d="M471 1174h-61l-193 219v41h100l154 -228v-32z" />
    <glyph glyph-name="a" unicode="a" horiz-adv-x="1009" 
d="M484 539q-140 1 -230 -57t-90 -177t70 -177t186 -58t196 44t152 130v262q-144 33 -284 33zM768 104v41q-74 -79 -157 -117t-223 -38t-234 81t-94 233t115 230q116 78 290 78t303 -32v192q0 225 -262 225q-213 0 -332 -94h-43v84q168 92 379 92q360 0 360 -301v-778h-28
q-45 0 -60 20q-14 21 -14 84z" />
    <glyph glyph-name="b" unicode="b" horiz-adv-x="1134" 
d="M639 995q-207 0 -389 -219v-563q129 -141 338 -141q156 0 264 108t109 357q1 250 -93 354t-229 104zM250 1335v-458q174 203 405 202q174 0 292 -125t118 -407q0 -413 -292 -527q-77 -29 -165 -28q-221 0 -360 125q-14 -117 -74 -117h-27v1434h37q46 0 56 -16t10 -83z
" />
    <glyph glyph-name="c" unicode="c" horiz-adv-x="983" 
d="M564 -8q-230 0 -363 145t-133 397t140 399q140 146 355 146t344 -102v-82h-53q-102 102 -282 102t-290 -123q-110 -124 -110 -340t106 -338t298 -122q194 0 303 123h47v-78q-132 -127 -362 -127z" />
    <glyph glyph-name="d" unicode="d" horiz-adv-x="1138" 
d="M502 72q221 0 381 217v565q-135 145 -340 145q-158 1 -263 -107q-106 -108 -106 -358t94 -356t234 -106zM883 1434h35q45 0 57 -18t12 -81v-1335h-53q-31 0 -40 22t-11 97v65q-152 -193 -391 -192q-180 0 -302 128q-121 128 -120 404q0 408 292 526q78 30 164 29
q227 0 357 -133v488z" />
    <glyph glyph-name="e" unicode="e" horiz-adv-x="1042" 
d="M541 1001q-152 0 -250 -100t-117 -293h703q-8 393 -336 393zM172 530q0 -454 416 -454q212 0 321 110h45v-75q-152 -119 -390 -119t-366 143q-130 143 -130 393t133 401t339 151t322 -125q116 -124 117 -375v-31l-2 -19h-805z" />
    <glyph glyph-name="f" unicode="f" horiz-adv-x="552" 
d="M25 989v78h141v107q0 134 68 200t164 66t149 -13v-71h-107q-88 0 -130 -41t-42 -148v-100h258v-78h-258v-989h-102v989h-141z" />
    <glyph glyph-name="g" unicode="g" horiz-adv-x="1134" 
d="M502 88q221 0 381 215v549q-137 147 -336 147q-143 0 -258 -98t-115 -352t94 -358q95 -103 234 -103zM987 1067v-1055q0 -170 -128 -261t-324 -91q-256 0 -408 94v80h41q119 -94 354 -94q162 0 261 68t100 210v179q-160 -188 -396 -189q-176 0 -297 127t-120 397
q0 400 292 518q78 30 166 29q225 0 355 -133q8 78 26 99q18 22 45 22h33z" />
    <glyph glyph-name="h" unicode="h" horiz-adv-x="1132" 
d="M250 1335v-438q229 182 469 182q276 0 276 -284v-795h-102v782q0 119 -56 165t-157 46q-195 0 -430 -180v-813h-103v1434h37q42 0 54 -16t12 -83z" />
    <glyph glyph-name="i" unicode="i" horiz-adv-x="407" 
d="M205 1231q-29 0 -49 20t-21 49q1 30 21 50t49 20t49 -20t20 -50t-20 -49q-20 -20 -49 -20zM254 0h-102v1067h32q46 0 58 -18t12 -93v-956z" />
    <glyph glyph-name="j" unicode="j" horiz-adv-x="407" 
d="M205 1231q-29 0 -49 20t-21 49q1 30 21 50t49 20t49 -20t20 -50t-20 -49q-20 -20 -49 -20zM254 -111q0 -225 -215 -225q-53 0 -86 8v70h57q141 0 142 152v1173h30q48 0 60 -18t12 -93v-1067z" />
    <glyph glyph-name="k" unicode="k" horiz-adv-x="974" 
d="M250 1335v-870l553 602h80v-41l-373 -403l405 -584v-39h-90l-383 553l-192 -207v-346h-103v1434h37q46 0 56 -16t10 -83z" />
    <glyph glyph-name="l" unicode="l" horiz-adv-x="401" 
d="M252 0h-102v1434h36q46 0 56 -16t10 -83v-1335z" />
    <glyph glyph-name="m" unicode="m" horiz-adv-x="1761" 
d="M250 961v-56q217 174 426 174q94 0 163 -43t91 -133q207 176 430 176q120 0 192 -63t72 -199v-817h-102v791q0 113 -50 157t-149 45q-170 0 -385 -172v-821h-102v791q0 111 -52 157t-145 45q-180 0 -389 -174v-819h-103v1067h48q35 0 45 -18t10 -88z" />
    <glyph glyph-name="n" unicode="n" horiz-adv-x="1132" 
d="M250 961v-64q229 182 469 182q276 0 276 -284v-795h-102v782q0 119 -56 165t-157 46q-195 0 -430 -180v-813h-103v1067h48q35 0 45 -18t10 -88z" />
    <glyph glyph-name="o" unicode="o" horiz-adv-x="1128" 
d="M172 534q0 -218 104 -340t288 -122q183 0 288 122q104 122 104 340t-105 342t-287 124t-288 -124q-104 -124 -104 -342zM564 -8q-224 0 -360 146t-136 396t136 398q136 147 360 147t360 -147t137 -398q0 -251 -136 -397q-137 -145 -361 -145z" />
    <glyph glyph-name="p" unicode="p" horiz-adv-x="1134" 
d="M639 995q-207 0 -389 -219v-555q129 -141 338 -141q143 0 251 91q56 48 89 143t33 227q1 248 -93 351t-229 103zM250 961v-84q174 203 405 202q174 0 292 -124t118 -404q0 -151 -40 -263q-39 -112 -107 -172q-133 -118 -331 -118t-337 125v-455h-103v1399h48q35 0 45 -18
t10 -88z" />
    <glyph glyph-name="q" unicode="q" horiz-adv-x="1134" 
d="M502 80q219 0 381 215v557q-137 147 -340 147q-158 0 -263 -106q-106 -107 -106 -357t94 -353t234 -103zM883 -332v522q-152 -193 -391 -192q-180 0 -302 126q-121 126 -120 402q0 405 291 524q77 30 165 29q233 0 359 -135q12 123 69 123h33v-1399h-104z" />
    <glyph glyph-name="r" unicode="r" horiz-adv-x="702" 
d="M250 950v-67q160 193 350 192q37 0 49 -6v-84q-27 2 -45 2q-182 0 -354 -201v-786h-103v1067h48q35 -1 45 -21t10 -96z" />
    <glyph glyph-name="s" unicode="s" horiz-adv-x="874" 
d="M803 301q0 -145 -96 -227t-297 -82t-338 100v84h41q113 -104 299 -104q291 0 290 229q0 94 -61 139t-226 72q-165 28 -249 92t-84 196t97 206t272 74t299 -81v-84h-41q-102 84 -267 84q-264 0 -264 -194q0 -90 60 -134t229 -72q168 -28 252 -91t84 -207z" />
    <glyph glyph-name="t" unicode="t" horiz-adv-x="608" 
d="M25 989v78h141v297h102v-297h285v-78h-285v-745q0 -94 44 -131t141 -37h122v-72q-66 -12 -157 -12q-252 0 -252 239v758h-141z" />
    <glyph glyph-name="u" unicode="u" horiz-adv-x="1124" 
d="M870 115v41q-221 -168 -444 -168q-289 0 -289 278v801h105v-791q0 -116 52 -160t146 -44q197 0 430 170v825h103v-1067h-47q-36 0 -46 20t-10 95z" />
    <glyph glyph-name="v" unicode="v" horiz-adv-x="1017" 
d="M53 1067h92l367 -928h4l365 928h84v-37l-406 -1030h-96l-410 1030v37z" />
    <glyph glyph-name="w" unicode="w" horiz-adv-x="1480" 
d="M57 1067h93l268 -911h4l283 911h86l276 -911h4l268 911h84v-39l-309 -1028h-90l-279 903h-4l-280 -903h-94l-310 1028v39z" />
    <glyph glyph-name="x" unicode="x" horiz-adv-x="980" 
d="M57 0v41l357 514l-342 473v39h92l323 -446l304 446h83v-39l-321 -471l373 -516v-41h-92l-353 492l-340 -492h-84z" />
    <glyph glyph-name="y" unicode="y" horiz-adv-x="1032" 
d="M315 -332v33l162 373l-426 962v31h94l381 -872h2l361 872h92v-31l-575 -1368h-91z" />
    <glyph glyph-name="z" unicode="z" horiz-adv-x="937" 
d="M70 0v80l708 907h-665v80h780v-82l-709 -905h697v-80h-811z" />
    <glyph glyph-name="braceleft" unicode="{" horiz-adv-x="626" 
d="M233 137v426q0 121 -129 121h-57v82h57q129 0 129 121v397q0 233 238 234h109v-82h-99q-143 0 -143 -152v-393q0 -133 -125 -164v-2q125 -31 125 -166v-424q0 -154 143 -153h99v-82h-109q-238 -1 -238 237z" />
    <glyph glyph-name="bar" unicode="|" horiz-adv-x="419" 
d="M254 1518v-1618h-88v1618h88z" />
    <glyph glyph-name="braceright" unicode="}" horiz-adv-x="626" 
d="M393 563v-426q0 -238 -235 -237h-109v82h96q143 0 144 153v424q0 135 125 166v2q-125 31 -125 164v393q0 152 -144 152h-96v82h109q236 0 235 -234v-397q0 -121 131 -121h56v-82h-56q-131 0 -131 -121z" />
    <glyph glyph-name="asciitilde" unicode="~" horiz-adv-x="671" 
d="M53 485v41q10 64 51 106q40 42 96 42t144 -41t117 -41q63 0 80 92h77v-39q-12 -67 -53 -107t-96 -40t-141 41t-117 41q-68 0 -80 -95h-78z" />
    <glyph glyph-name="exclamdown" unicode="&#xa1;" horiz-adv-x="464" 
d="M233 1130q-33 0 -57 23t-22 57q0 34 22 54q22 22 56 22t57 -22t23 -55q0 -35 -24 -57q-22 -22 -55 -22zM287 -156h-111v76l12 1063h86l13 -1063v-76z" />
    <glyph glyph-name="cent" unicode="&#xa2;" horiz-adv-x="987" 
d="M172 535q0 -203 92 -323t260 -136v919q-162 -17 -257 -137t-95 -323zM610 -209h-86v203q-215 14 -336 158q-120 144 -120 383q0 237 125 381t331 161v121h86v-121q182 -8 297 -100v-82h-53q-90 90 -244 100v-921q168 12 271 123h47v-80q-117 -113 -318 -123v-203z" />
    <glyph glyph-name="sterling" unicode="&#xa3;" horiz-adv-x="1036" 
d="M55 0v88q178 104 178 299q0 111 -30 277h-140v81h123q-45 221 -45 312q0 176 114 280q115 105 325 105t360 -129v-80h-55q-123 119 -310 119q-326 0 -325 -295q0 -100 43 -312h418v-81h-404q29 -154 29 -277q0 -174 -146 -295h773v-92h-908z" />
    <glyph glyph-name="yen" unicode="&#xa5;" horiz-adv-x="1054" 
d="M127 621v79h324l-398 689v45h94l388 -676h2l381 676h83v-45l-393 -689h326v-79h-348v-138h348v-82h-348v-401h-111v401h-348v82h348v138h-348z" />
    <glyph glyph-name="brokenbar" unicode="&#xa6;" horiz-adv-x="280" 
d="M94 786v732h90l2 -732h-92zM94 -100v737h92l-2 -737h-90z" />
    <glyph glyph-name="section" unicode="&#xa7;" horiz-adv-x="1038" 
d="M877 558q0 102 -82 160q-82 60 -250 97l-74 19q-309 -23 -309 -216q0 -96 68 -152t229 -104l137 -40q133 14 207 74t74 162zM61 602q0 223 279 281q-160 82 -160 264q0 133 98 214t282 81t298 -82v-84h-43q-101 86 -249 86t-219 -58t-71 -154t68 -150q68 -56 244 -99
t282 -119t107 -211q0 -229 -264 -297q149 -74 149 -228t-96 -234t-295 -80t-340 100v84h41q109 -104 307 -104q283 0 283 219q0 98 -69 144t-260 100t-281 127t-91 200z" />
    <glyph glyph-name="dieresis" unicode="&#xa8;" 
d="M569 1231q-29 0 -48 19t-19 48q0 30 19 50t48 20t49 -20t20 -50t-20 -48q-20 -19 -49 -19zM276 1231q-29 0 -49 19t-20 48q0 30 20 50t49 20q30 0 50 -20t20 -50t-20 -48q-20 -19 -50 -19z" />
    <glyph glyph-name="copyright" unicode="&#xa9;" horiz-adv-x="1626" 
d="M823 319q-176 1 -277 107q-102 106 -102 290t109 293q109 107 274 107t265 -74v-81h-56q-59 73 -194 73t-213 -83t-78 -235t74 -233q74 -80 214 -80t210 89h49v-78q-99 -95 -275 -95zM813 63q273 1 457 175t184 479t-183 480t-457 175t-458 -175q-182 -175 -182 -480
t182 -479t457 -175zM813 -12q-307 0 -517 194t-210 535t210 535t517 194t517 -195t210 -535t-210 -534t-517 -194z" />
    <glyph glyph-name="ordfeminine" unicode="&#xaa;" horiz-adv-x="864" 
d="M360 594q172 0 293 145v215q-139 25 -221 25q-281 0 -280 -193q-1 -192 208 -192zM653 629v22q-119 -131 -305 -131q-133 0 -213 66t-80 196q1 130 99 200q98 69 242 69t257 -29v149q0 107 -53 149t-168 42q-178 0 -280 -76h-37v74q137 82 331 82q303 0 304 -262v-654
h-39q-33 0 -45 22t-13 81z" />
    <glyph glyph-name="guillemotleft" unicode="&#xab;" horiz-adv-x="876" 
d="M813 969v-39l-305 -395v-5l305 -397v-35h-86l-321 406v55l321 410h86zM471 969v-39l-305 -395v-5l305 -397v-35h-86l-322 406v55l322 410h86z" />
    <glyph glyph-name="registered" unicode="&#xae;" horiz-adv-x="876" 
d="M446 1104q74 0 74 63t-74 64h-67v-127h67zM379 1049v-156h-80v395h154q145 0 145 -119q0 -80 -74 -108l82 -135v-33h-71l-89 156h-67zM434 778q131 0 217 81t86 225t-86 224t-217 81q-131 0 -217 -80q-86 -81 -86 -225t86 -225t217 -81zM438 717q-154 0 -264 99t-108 267
q0 168 108 268q110 99 264 99t264 -99t111 -267q-1 -168 -111 -267q-110 -100 -264 -100z" />
    <glyph glyph-name="macron" unicode="&#xaf;" 
d="M649 1327v-76h-450v76h450z" />
    <glyph glyph-name="degree" unicode="&#xb0;" horiz-adv-x="651" 
d="M326 1004q74 0 124 51t50 133t-49 132t-124 50t-125 -51t-50 -132t50 -132t124 -51zM326 1446q110 0 184 -72t74 -188t-74 -186q-74 -72 -182 -72t-185 71q-75 72 -75 188q0 115 74 187t184 72z" />
    <glyph glyph-name="two.superior" unicode="&#xb2;" horiz-adv-x="587" 
d="M545 748v-78h-504v78l233 213q96 90 135 145q37 55 37 120q0 64 -40 102t-129 38q-90 0 -171 -76h-43v64q97 86 223 86t192 -58t67 -143q0 -86 -49 -156t-160 -170l-180 -165h389z" />
    <glyph glyph-name="three.superior" unicode="&#xb3;" horiz-adv-x="569" 
d="M245 664q-136 0 -225 75v64h43q71 -66 173 -66q200 0 200 156q0 71 -52 105t-128 34h-76v68h70q78 0 124 36t46 101q0 129 -160 129q-104 0 -172 -59h-43v61q96 72 216 72q121 0 185 -50t64 -145q0 -127 -133 -172v-4q152 -37 151 -182q0 -106 -73 -165q-74 -58 -210 -58
z" />
    <glyph glyph-name="acute" unicode="&#xb4;" 
d="M377 1174v32l153 228h103v-41l-193 -219h-63z" />
    <glyph glyph-name="paragraph" unicode="&#xb6;" horiz-adv-x="1122" 
d="M582 -186v878h-33q-351 0 -444 191q-35 73 -35 181q1 220 135 294t356 76h387v-1620h-94v1529h-178v-1529h-94z" />
    <glyph glyph-name="periodcentered" unicode="&#xb7;" horiz-adv-x="294" 
d="M147 561q-33 0 -55 23q-22 24 -22 56t22 56t56 23q32 0 56 -24q24 -25 24 -57t-24 -54t-57 -23z" />
    <glyph glyph-name="cedilla" unicode="&#xb8;" 
d="M344 0h76v-82q78 -4 120 -40t42 -99t-48 -99t-126 -36t-142 41v63h43q31 -31 97 -31q88 0 88 64q0 70 -103 69h-47v150z" />
    <glyph glyph-name="one.superior" unicode="&#xb9;" horiz-adv-x="442" 
d="M315 670h-98v663l-166 -92h-28v68l223 125h69v-764z" />
    <glyph glyph-name="ordmasculine" unicode="&#xba;" horiz-adv-x="995" 
d="M498 600q154 0 242 98t87 282q0 184 -89 284q-88 100 -240 100t-241 -100t-89 -284t88 -282t242 -98zM499 520q-189 0 -311 123q-120 123 -120 337t120 338q122 124 310 124t309 -124t121 -338t-120 -337t-309 -123z" />
    <glyph glyph-name="guillemotright" unicode="&#xbb;" horiz-adv-x="876" 
d="M63 98v35l306 397v7l-306 393v39h87l321 -410v-53l-321 -408h-87zM406 98v35l305 397v7l-305 393v39h86l321 -410v-53l-321 -408h-86z" />
    <glyph glyph-name="onequarter" unicode="&#xbc;" horiz-adv-x="1341" 
d="M1188 1493l-1010 -1563h-98l1010 1563h98zM313 670h-96v663l-166 -92h-28v68l223 125h67v-764zM793 258h309v383h-4l-305 -379v-4zM1192 0h-90v188h-391v78l393 498h88v-506h111v-70h-111v-188z" />
    <glyph glyph-name="onehalf" unicode="&#xbd;" horiz-adv-x="1409" 
d="M1188 1493l-1010 -1563h-98l1010 1563h98zM313 670h-96v663l-166 -92h-28v68l223 125h67v-764zM1268 556q0 140 -170 140q-90 0 -170 -75h-43v61q96 88 222 88q127 0 193 -57t66 -145t-49 -156t-160 -170l-180 -164h389v-78h-504v78l234 213q96 90 134 145t38 120z" />
    <glyph glyph-name="threequarters" unicode="&#xbe;" horiz-adv-x="1413" 
d="M1292 1493l-1009 -1563h-99l1010 1563h98zM862 258h309v383h-4l-305 -379v-4zM1262 0h-91v188h-391v78l394 498h88v-506h110v-70h-110v-188zM245 664q-136 0 -225 75v64h43q71 -66 173 -66q200 0 200 156q0 71 -52 105t-128 34h-76v68h70q78 0 124 36t46 101
q0 129 -160 129q-104 0 -172 -59h-43v61q96 72 216 72q121 0 185 -50t64 -145q0 -127 -133 -172v-4q152 -37 151 -182q0 -106 -73 -165q-74 -58 -210 -58z" />
    <glyph glyph-name="questiondown" unicode="&#xbf;" horiz-adv-x="880" 
d="M534 1286q34 0 56 -22t22 -54t-22 -56t-56 -24t-57 23t-23 57t23 55t57 21zM807 45v-86q-135 -123 -367 -123q-174 0 -272 83t-98 243q0 65 36 162q10 26 50 72t49 58q10 12 68 68q58 55 65 62q98 96 136 175t24 224h86q23 -156 -21 -255t-216 -260q-50 -48 -66 -68
q-17 -20 -49 -64q-54 -72 -54 -181q0 -108 69 -169t197 -62q217 0 310 121h53z" />
    <glyph glyph-name="Agrave" unicode="&#xc0;" horiz-adv-x="1253" 
d="M670 1481h-62l-157 184v39h102l117 -193v-30zM623 1313l-279 -774h559l-276 774h-4zM61 0v45l504 1389h129l498 -1389v-45h-96l-162 449h-621l-159 -449h-93z" />
    <glyph glyph-name="Aacute" unicode="&#xc1;" horiz-adv-x="1253" 
d="M588 1481v30l121 193h98v-39l-156 -184h-63zM623 1313l-279 -774h559l-276 774h-4zM61 0v45l504 1389h129l498 -1389v-45h-96l-162 449h-621l-159 -449h-93z" />
    <glyph glyph-name="Acircumflex" unicode="&#xc2;" horiz-adv-x="1253" 
d="M406 1481v37l182 188h82l178 -188v-37h-62l-161 143l-160 -143h-59zM623 1313l-279 -774h559l-276 774h-4zM61 0v45l504 1389h129l498 -1389v-45h-96l-162 449h-621l-159 -449h-93z" />
    <glyph glyph-name="Atilde" unicode="&#xc3;" horiz-adv-x="1253" 
d="M367 1499v39q12 57 51 95t93 38t125 -41t97 -41q70 0 84 86h70v-37q-12 -59 -50 -96q-37 -37 -93 -37t-127 40t-95 40q-74 0 -86 -86h-69zM623 1313l-279 -774h559l-276 774h-4zM61 0v45l504 1389h129l498 -1389v-45h-96l-162 449h-621l-159 -449h-93z" />
    <glyph glyph-name="Adieresis" unicode="&#xc4;" horiz-adv-x="1253" 
d="M774 1501q-29 1 -48 21t-19 49t20 49t48 20t48 -20q21 -20 21 -49t-20 -49t-50 -21zM481 1501q-29 1 -49 21t-20 49t20 49t49 20t49 -20t20 -49t-20 -49t-49 -21zM623 1313l-279 -774h559l-276 774h-4zM61 0v45l504 1389h129l498 -1389v-45h-96l-162 449h-621l-159 -449
h-93z" />
    <glyph glyph-name="Aring" unicode="&#xc5;" horiz-adv-x="1253" 
d="M629 1556q45 0 75 30t29 77q0 47 -31 78q-30 31 -74 31t-74 -31t-30 -79t30 -77t75 -29zM628 1489q-73 0 -126 48t-53 126t53 127t126 49t126 -49t53 -127t-53 -126t-126 -48zM623 1313l-279 -774h559l-276 774h-4zM61 0v45l504 1389h129l498 -1389v-45h-96l-162 449
h-621l-159 -449h-93z" />
    <glyph glyph-name="AE" unicode="&#xc6;" horiz-adv-x="1888" 
d="M934 541v800h-105l-421 -800h526zM934 0v451h-574l-235 -451h-88v45l735 1389h1018v-93h-746v-557h562v-90h-562v-604h775v-90h-885z" />
    <glyph glyph-name="Ccedilla" unicode="&#xc7;" horiz-adv-x="1261" 
d="M717 -8h-15v-74q78 -4 120 -40t42 -99t-48 -99t-126 -36t-141 41v63h43q31 -31 96 -31q88 0 88 64q0 70 -102 69h-47v148q-242 31 -385 218q-144 187 -144 516t180 519t451 191q158 0 252 -35t184 -109v-88h-51q-142 144 -376 144t-380 -164t-147 -470q0 -306 136 -473
t383 -167t413 170h47v-82q-188 -176 -473 -176z" />
    <glyph glyph-name="Egrave" unicode="&#xc8;" horiz-adv-x="1128" 
d="M176 0v1434h854v-93h-745v-557h563v-90h-563v-604h774v-90h-883zM662 1481h-62l-158 184v39h103l117 -193v-30z" />
    <glyph glyph-name="Eacute" unicode="&#xc9;" horiz-adv-x="1128" 
d="M176 0v1434h854v-93h-745v-557h563v-90h-563v-604h774v-90h-883zM580 1481v30l120 193h99v-39l-156 -184h-63z" />
    <glyph glyph-name="Ecircumflex" unicode="&#xca;" horiz-adv-x="1128" 
d="M395 1481v37l183 188h81l179 -188v-37h-62l-162 143l-159 -143h-60zM176 0v1434h854v-93h-745v-557h563v-90h-563v-604h774v-90h-883z" />
    <glyph glyph-name="Edieresis" unicode="&#xcb;" horiz-adv-x="1128" 
d="M176 0v1434h854v-93h-745v-557h563v-90h-563v-604h774v-90h-883zM764 1501q-29 1 -48 21t-20 49q0 29 20 49t49 20q28 0 48 -20q21 -20 21 -49t-20 -49t-50 -21zM471 1501q-29 1 -49 21t-21 49q1 29 21 49t49 20t49 -20t20 -49t-20 -49t-49 -21z" />
    <glyph glyph-name="Igrave" unicode="&#xcc;" horiz-adv-x="471" 
d="M279 1481h-62l-158 184v39h103l117 -193v-30zM291 0h-111v1434h111v-1434z" />
    <glyph glyph-name="Iacute" unicode="&#xcd;" horiz-adv-x="471" 
d="M197 1481v30l120 193h99v-39l-156 -184h-63zM291 0h-111v1434h111v-1434z" />
    <glyph glyph-name="Icircumflex" unicode="&#xce;" horiz-adv-x="471" 
d="M14 1481v37l183 188h82l178 -188v-37h-62l-162 143l-159 -143h-60zM291 0h-111v1434h111v-1434z" />
    <glyph glyph-name="Idieresis" unicode="&#xcf;" horiz-adv-x="471" 
d="M383 1501q-29 1 -48 21t-20 49q1 29 21 49t48 20t48 -20t20 -49t-20 -49t-49 -21zM90 1501q-29 1 -49 21t-21 49q0 29 20 49t50 20q29 0 49 -20q21 -20 21 -49t-20 -49t-50 -21zM291 0h-111v1434h111v-1434z" />
    <glyph glyph-name="Eth" unicode="&#xd0;" horiz-adv-x="1366" 
d="M285 90h272q315 0 463 146t147 481q0 334 -147 480t-463 146h-272v-579h434v-90h-434v-584zM27 674v90h149v670h383q361 0 541 -170t180 -545t-180 -547t-543 -172h-381v674h-149z" />
    <glyph glyph-name="Ntilde" unicode="&#xd1;" horiz-adv-x="1388" 
d="M176 0v1434h135l797 -1237h2v1237h104v-1434h-104l-827 1288h-4v-1288h-103zM455 1499v39q12 57 51 95t93 38t125 -41t97 -41q70 0 84 86h70v-37q-12 -59 -50 -96q-37 -37 -93 -37t-126 40t-96 40q-74 0 -86 -86h-69z" />
    <glyph glyph-name="Ograve" unicode="&#xd2;" horiz-adv-x="1458" 
d="M728 78q234 0 383 167t149 471t-148 472t-383 168q-234 0 -382 -168t-148 -473t148 -471q147 -166 381 -166zM730 -8q-275 0 -460 192q-184 193 -184 533q0 341 184 533t460 192t458 -194q184 -194 184 -532t-183 -532q-184 -192 -459 -192zM770 1481h-61l-158 184v39
h102l117 -193v-30z" />
    <glyph glyph-name="Oacute" unicode="&#xd3;" horiz-adv-x="1458" 
d="M728 78q234 0 383 167t149 471t-148 472t-383 168q-234 0 -382 -168t-148 -473t148 -471q147 -166 381 -166zM730 -8q-275 0 -460 192q-184 193 -184 533q0 341 184 533t460 192t458 -194q184 -194 184 -532t-183 -532q-184 -192 -459 -192zM688 1481v30l121 193h98v-39
l-155 -184h-64z" />
    <glyph glyph-name="Ocircumflex" unicode="&#xd4;" horiz-adv-x="1458" 
d="M506 1481v37l182 188h82l178 -188v-37h-61l-162 143l-160 -143h-59zM728 78q234 0 383 167t149 471t-148 472t-383 168q-234 0 -382 -168t-148 -473t148 -471q147 -166 381 -166zM730 -8q-275 0 -460 192q-184 193 -184 533q0 341 184 533t460 192t458 -194
q184 -194 184 -532t-183 -532q-184 -192 -459 -192z" />
    <glyph glyph-name="Otilde" unicode="&#xd5;" horiz-adv-x="1458" 
d="M728 78q234 0 383 167t149 471t-148 472t-383 168q-234 0 -382 -168t-148 -473t148 -471q147 -166 381 -166zM730 -8q-275 0 -460 192q-184 193 -184 533q0 341 184 533t460 192t458 -194q184 -194 184 -532t-183 -532q-184 -192 -459 -192zM467 1499v39q12 57 51 95
t93 38t125 -41t98 -41q70 0 84 86h69v-37q-12 -59 -50 -96t-93 -37t-126 40t-95 40q-74 0 -86 -86h-70z" />
    <glyph glyph-name="Odieresis" unicode="&#xd6;" horiz-adv-x="1458" 
d="M728 78q234 0 383 167t149 471t-148 472t-383 168q-234 0 -382 -168t-148 -473t148 -471q147 -166 381 -166zM730 -8q-275 0 -460 192q-184 193 -184 533q0 341 184 533t460 192t458 -194q184 -194 184 -532t-183 -532q-184 -192 -459 -192zM874 1501q-29 1 -48 21
t-19 49t20 49t48 20q29 0 49 -20t20 -49t-20 -49t-50 -21zM582 1501q-30 1 -50 21t-20 49t20 49t50 20t49 -20q20 -20 20 -49t-20 -49t-49 -21z" />
    <glyph glyph-name="multiply" unicode="&#xd7;" horiz-adv-x="944" 
d="M784 309l-313 316l-313 -316l-62 68l314 315l-314 318l62 67l313 -315l313 315l64 -67l-316 -318l316 -315z" />
    <glyph glyph-name="Oslash" unicode="&#xd8;" horiz-adv-x="1458" 
d="M745 78q217 0 366 167t149 460t-132 462l-735 -972q135 -117 352 -117zM199 722q0 -298 135 -466l737 973q-137 127 -340 127q-236 0 -384 -168t-148 -466zM731 -8q-227 0 -393 131l-135 -178h-80v32l151 201q-188 199 -188 539q0 341 184 533t461 192q229 0 397 -137
l127 168h80v-33l-145 -193q182 -199 182 -535t-183 -528q-184 -192 -458 -192z" />
    <glyph glyph-name="Ugrave" unicode="&#xd9;" horiz-adv-x="1380" 
d="M702 82q410 0 410 399v953h105v-949q-1 -257 -141 -375t-380 -118t-385 119t-145 374v949h108v-953q0 -399 428 -399zM733 1481h-61l-158 184v39h102l117 -193v-30z" />
    <glyph glyph-name="Uacute" unicode="&#xda;" horiz-adv-x="1380" 
d="M702 82q410 0 410 399v953h105v-949q-1 -257 -141 -375t-380 -118t-385 119t-145 374v949h108v-953q0 -399 428 -399zM653 1481v30l121 193h98v-39l-155 -184h-64z" />
    <glyph glyph-name="Ucircumflex" unicode="&#xdb;" horiz-adv-x="1380" 
d="M469 1481v37l182 188h82l178 -188v-37h-61l-162 143l-160 -143h-59zM702 82q410 0 410 399v953h105v-949q-1 -257 -141 -375t-380 -118t-385 119t-145 374v949h108v-953q0 -399 428 -399z" />
    <glyph glyph-name="Udieresis" unicode="&#xdc;" horiz-adv-x="1380" 
d="M702 82q410 0 410 399v953h105v-949q-1 -257 -141 -375t-380 -118t-385 119t-145 374v949h108v-953q0 -399 428 -399zM838 1501q-29 1 -48 21t-20 49q0 29 20 49t49 20q28 0 48 -20t20 -49t-20 -49t-49 -21zM545 1501q-29 1 -49 21t-21 49q1 29 21 49t49 20t49 -20
t20 -49t-20 -49t-49 -21z" />
    <glyph glyph-name="Yacute" unicode="&#xdd;" horiz-adv-x="1126" 
d="M528 1481v30l121 193h99v-39l-156 -184h-64zM621 0h-111v600l-457 789v45h94l420 -732h2l420 732h86v-45l-454 -785v-604z" />
    <glyph glyph-name="Thorn" unicode="&#xde;" horiz-adv-x="1130" 
d="M285 1049v-631h262q203 0 301 72t98 247q0 174 -100 243t-299 69h-262zM176 0v1434h109v-293h264q244 0 376 -93q132 -92 132 -308t-130 -313t-380 -97h-262v-330h-109z" />
    <glyph glyph-name="germandbls" unicode="&#xdf;" horiz-adv-x="1159" 
d="M147 0v1014q0 210 125 320t334 110q162 0 261 -60t100 -190q1 -82 -59 -151t-152 -134t-120 -101q-30 -36 -30 -77t42 -72t172 -79t201 -108q71 -62 71 -194t-96 -209t-264 -77q-167 0 -271 78v75h41q92 -73 225 -73q268 1 266 207q0 88 -55 133t-184 92t-186 93
q-56 46 -56 118t37 120q37 47 143 129t135 126q37 49 37 102q0 86 -70 129q-71 43 -188 43q-168 0 -262 -93t-94 -261v-1010h-103z" />
    <glyph glyph-name="agrave" unicode="&#xe0;" horiz-adv-x="1009" 
d="M547 1174h-62l-192 219v41h100l154 -228v-32zM484 539q-140 1 -230 -57t-90 -177t70 -177t186 -58t196 44t152 130v262q-144 33 -284 33zM768 104v41q-74 -79 -157 -117t-223 -38t-234 81t-94 233t115 230q116 78 290 78t303 -32v192q0 225 -262 225q-213 0 -332 -94h-43
v84q168 92 379 92q360 0 360 -301v-778h-28q-45 0 -60 20q-14 21 -14 84z" />
    <glyph glyph-name="aacute" unicode="&#xe1;" horiz-adv-x="1009" 
d="M475 1174v32l154 228h102v-41l-192 -219h-64zM484 539q-140 1 -230 -57t-90 -177t70 -177t186 -58t196 44t152 130v262q-144 33 -284 33zM768 104v41q-74 -79 -157 -117t-223 -38t-234 81t-94 233t115 230q116 78 290 78t303 -32v192q0 225 -262 225q-213 0 -332 -94h-43
v84q168 92 379 92q360 0 360 -301v-778h-28q-45 0 -60 20q-14 21 -14 84z" />
    <glyph glyph-name="acircumflex" unicode="&#xe2;" horiz-adv-x="1009" 
d="M283 1174v38l188 222h82l184 -222v-38h-61l-168 178l-168 -178h-57zM484 539q-140 1 -230 -57t-90 -177t70 -177t186 -58t196 44t152 130v262q-144 33 -284 33zM768 104v41q-74 -79 -157 -117t-223 -38t-234 81t-94 233t115 230q116 78 290 78t303 -32v192
q0 225 -262 225q-213 0 -332 -94h-43v84q168 92 379 92q360 0 360 -301v-778h-28q-45 0 -60 20q-14 21 -14 84z" />
    <glyph glyph-name="atilde" unicode="&#xe3;" horiz-adv-x="1009" 
d="M250 1202v37q12 57 51 95t93 38t125 -40t97 -40q70 0 84 86h70v-39q-12 -59 -50 -96t-93 -37t-126 41t-95 41q-72 0 -87 -86h-69zM484 539q-140 1 -230 -57t-90 -177t70 -177t186 -58t196 44t152 130v262q-144 33 -284 33zM768 104v41q-74 -79 -157 -117t-223 -38
t-234 81t-94 233t115 230q116 78 290 78t303 -32v192q0 225 -262 225q-213 0 -332 -94h-43v84q168 92 379 92q360 0 360 -301v-778h-28q-45 0 -60 20q-14 21 -14 84z" />
    <glyph glyph-name="adieresis" unicode="&#xe4;" horiz-adv-x="1009" 
d="M657 1368q29 0 49 -20t21 -50q-1 -30 -21 -48q-20 -19 -48 -19t-48 19t-20 48q0 30 19 50t48 20zM365 1231q-29 0 -50 19q-20 19 -20 48q0 30 20 50q19 20 49 20t50 -20t20 -50t-20 -48q-20 -19 -49 -19zM484 539q-140 1 -230 -57t-90 -177t70 -177t186 -58t196 44
t152 130v262q-144 33 -284 33zM768 104v41q-74 -79 -157 -117t-223 -38t-234 81t-94 233t115 230q116 78 290 78t303 -32v192q0 225 -262 225q-213 0 -332 -94h-43v84q168 92 379 92q360 0 360 -301v-778h-28q-45 0 -60 20q-14 21 -14 84z" />
    <glyph glyph-name="aring" unicode="&#xe5;" horiz-adv-x="1009" 
d="M511 1243q44 0 75 30q30 30 30 78t-30 79q-31 30 -75 30t-74 -30q-29 -30 -29 -79q0 -48 30 -78t73 -30zM511 1176q-73 0 -126 48t-53 126t53 127t126 49t126 -49t53 -127t-53 -126t-126 -48zM484 539q-140 1 -230 -57t-90 -177t70 -177t186 -58t196 44t152 130v262
q-144 33 -284 33zM768 104v41q-74 -79 -157 -117t-223 -38t-234 81t-94 233t115 230q116 78 290 78t303 -32v192q0 225 -262 225q-213 0 -332 -94h-43v84q168 92 379 92q360 0 360 -301v-778h-28q-45 0 -60 20q-14 21 -14 84z" />
    <glyph glyph-name="ae" unicode="&#xe6;" horiz-adv-x="1742" 
d="M1241 1001q-152 0 -250 -100t-117 -291h701q-6 391 -334 391zM418 70q240 0 385 227q-35 104 -35 233v2h-274q-152 0 -241 -55t-89 -173t70 -176t184 -58zM872 530q0 -454 416 -454q211 0 322 110h45v-75q-152 -119 -387 -119q-307 0 -432 231q-158 -233 -430 -233
q-156 0 -251 82t-95 232t115 228q116 78 312 78h281v162q0 225 -262 225q-213 0 -332 -94h-43v84q168 92 379 92q299 0 344 -217q60 102 162 160t225 57q205 0 322 -123t116 -376v-29l-2 -19h-805v-2z" />
    <glyph glyph-name="ccedilla" unicode="&#xe7;" horiz-adv-x="983" 
d="M68 550q0 237 140 383t355 146t344 -102v-82h-53q-102 102 -282 102t-290 -123q-110 -124 -110 -340t106 -338t298 -122q194 0 303 123h47v-78q-131 -127 -359 -127q-23 0 -32 2v-76q77 -4 119 -40t42 -99t-48 -99t-126 -36t-141 41v63h43q31 -31 96 -31q88 0 88 64
q0 70 -102 69h-47v150q-183 32 -287 172t-104 378z" />
    <glyph glyph-name="egrave" unicode="&#xe8;" horiz-adv-x="1042" 
d="M575 1174h-61l-192 219v41h100l153 -228v-32zM541 1001q-152 0 -250 -100t-117 -293h703q-8 393 -336 393zM172 530q0 -454 416 -454q212 0 321 110h45v-75q-152 -119 -390 -119t-366 143q-130 143 -130 393t133 401t339 151t322 -125q116 -124 117 -375v-31l-2 -19h-805
z" />
    <glyph glyph-name="eacute" unicode="&#xe9;" horiz-adv-x="1042" 
d="M504 1174v32l153 228h103v-41l-193 -219h-63zM541 1001q-152 0 -250 -100t-117 -293h703q-8 393 -336 393zM172 530q0 -454 416 -454q212 0 321 110h45v-75q-152 -119 -390 -119t-366 143q-130 143 -130 393t133 401t339 151t322 -125q116 -124 117 -375v-31l-2 -19h-805
z" />
    <glyph glyph-name="ecircumflex" unicode="&#xea;" horiz-adv-x="1042" 
d="M311 1174v38l189 222h82l184 -222v-38h-61l-168 178l-168 -178h-58zM541 1001q-152 0 -250 -100t-117 -293h703q-8 393 -336 393zM172 530q0 -454 416 -454q212 0 321 110h45v-75q-152 -119 -390 -119t-366 143q-130 143 -130 393t133 401t339 151t322 -125
q116 -124 117 -375v-31l-2 -19h-805z" />
    <glyph glyph-name="edieresis" unicode="&#xeb;" horiz-adv-x="1042" 
d="M687 1231q-28 0 -48 19t-21 48q0 30 20 50t48 20q29 0 49 -20q21 -20 21 -50t-20 -48q-20 -19 -49 -19zM393 1231q-29 0 -49 19t-20 48q0 30 20 50t49 20t49 -20t20 -50t-20 -48q-20 -19 -49 -19zM541 1001q-152 0 -250 -100t-117 -293h703q-8 393 -336 393zM172 530
q0 -454 416 -454q212 0 321 110h45v-75q-152 -119 -390 -119t-366 143q-130 143 -130 393t133 401t339 151t322 -125q116 -124 117 -375v-31l-2 -19h-805z" />
    <glyph glyph-name="igrave" unicode="&#xec;" horiz-adv-x="407" 
d="M242 1174h-62l-192 219v41h100l154 -228v-32zM254 0h-102v1067h32q46 0 58 -18t12 -93v-956z" />
    <glyph glyph-name="iacute" unicode="&#xed;" horiz-adv-x="407" 
d="M254 0h-102v1067h32q46 0 58 -18t12 -93v-956zM166 1174v32l153 228h103v-41l-193 -219h-63z" />
    <glyph glyph-name="icircumflex" unicode="&#xee;" horiz-adv-x="407" 
d="M254 0h-102v1067h32q46 0 58 -18t12 -93v-956zM-25 1174v38l189 222h82l184 -222v-38h-61l-168 178l-168 -178h-58z" />
    <glyph glyph-name="idieresis" unicode="&#xef;" horiz-adv-x="407" 
d="M254 0h-102v1067h32q46 0 58 -18t12 -93v-956zM351 1231q-28 0 -48 19t-20 48q0 30 19 50t48 20t49 -20q21 -20 21 -50t-20 -48q-20 -19 -49 -19zM57 1231q-29 0 -49 19t-20 48q0 30 20 50t49 20t49 -20t20 -50t-20 -48q-20 -19 -49 -19z" />
    <glyph glyph-name="eth" unicode="&#xf0;" horiz-adv-x="1126" 
d="M566 72q185 0 288 124q102 124 102 339t-103 339t-287 123q-184 0 -288 -125q-106 -125 -106 -339q0 -213 104 -337t290 -124zM383 1128v29l182 129q-100 51 -215 74v74h43q137 -33 250 -95l131 95h76v-31l-143 -100q354 -242 354 -746q0 -273 -136 -419
q-137 -146 -361 -146t-360 146t-136 394t133 396t348 147q131 0 215 -44t158 -142q-100 236 -293 358l-170 -119h-76z" />
    <glyph glyph-name="ntilde" unicode="&#xf1;" horiz-adv-x="1132" 
d="M317 1202v37q11 57 51 95t94 38t125 -40t97 -40q70 0 84 86h70v-39q-12 -59 -50 -96t-94 -37q-55 0 -126 41t-95 41q-72 0 -86 -86h-70zM250 961v-64q229 182 469 182q276 0 276 -284v-795h-102v782q0 119 -56 165t-157 46q-195 0 -430 -180v-813h-103v1067h48
q35 0 45 -18t10 -88z" />
    <glyph glyph-name="ograve" unicode="&#xf2;" horiz-adv-x="1128" 
d="M598 1174h-61l-193 219v41h100l154 -228v-32zM172 534q0 -218 104 -340t288 -122q183 0 288 122q104 122 104 340t-105 342t-287 124t-288 -124q-104 -124 -104 -342zM564 -8q-224 0 -360 146t-136 396t136 398q136 147 360 147t360 -147t137 -398q0 -251 -136 -397
q-137 -145 -361 -145z" />
    <glyph glyph-name="oacute" unicode="&#xf3;" horiz-adv-x="1128" 
d="M172 534q0 -218 104 -340t288 -122q183 0 288 122q104 122 104 340t-105 342t-287 124t-288 -124q-104 -124 -104 -342zM564 -8q-224 0 -360 146t-136 396t136 398q136 147 360 147t360 -147t137 -398q0 -251 -136 -397q-137 -145 -361 -145zM526 1174v32l154 228h102
v-41l-192 -219h-64z" />
    <glyph glyph-name="ocircumflex" unicode="&#xf4;" horiz-adv-x="1128" 
d="M172 534q0 -218 104 -340t288 -122q183 0 288 122q104 122 104 340t-105 342t-287 124t-288 -124q-104 -124 -104 -342zM564 -8q-224 0 -360 146t-136 396t136 398q136 147 360 147t360 -147t137 -398q0 -251 -136 -397q-137 -145 -361 -145zM334 1174v38l188 222h82
l184 -222v-38h-61l-168 178l-168 -178h-57z" />
    <glyph glyph-name="otilde" unicode="&#xf5;" horiz-adv-x="1128" 
d="M303 1202v37q12 57 51 95q40 38 94 38t124 -40t98 -40q70 0 84 86h69v-39q-12 -59 -50 -96t-93 -37t-126 41t-95 41q-72 0 -86 -86h-70zM172 534q0 -218 104 -340t288 -122q183 0 288 122q104 122 104 340t-105 342t-287 124t-288 -124q-104 -124 -104 -342zM564 -8
q-224 0 -360 146t-136 396t136 398q136 147 360 147t360 -147t137 -398q0 -251 -136 -397q-137 -145 -361 -145z" />
    <glyph glyph-name="odieresis" unicode="&#xf6;" horiz-adv-x="1128" 
d="M172 534q0 -218 104 -340t288 -122q183 0 288 122q104 122 104 340t-105 342t-287 124t-288 -124q-104 -124 -104 -342zM564 -8q-224 0 -360 146t-136 396t136 398q136 147 360 147t360 -147t137 -398q0 -251 -136 -397q-137 -145 -361 -145zM709 1231q-29 0 -49 19
q-19 19 -19 48q0 30 19 50q18 20 48 20t50 -20t20 -50t-20 -48q-20 -19 -49 -19zM416 1231q-29 0 -49 19t-21 48q0 30 20 50t50 20q29 0 49 -20t20 -50t-20 -48q-20 -19 -49 -19z" />
    <glyph glyph-name="divide" unicode="&#xf7;" horiz-adv-x="952" 
d="M399 1010q1 32 23 56t56 24t57 -23t23 -57t-24 -56t-57 -22t-55 22t-23 56zM478 483q34 -1 57 -23t23 -56t-24 -56q-22 -22 -56 -22t-56 22t-23 56q1 32 23 56t56 23zM887 662h-819v92h819v-92z" />
    <glyph glyph-name="oslash" unicode="&#xf8;" horiz-adv-x="1128" 
d="M172 540q0 -212 86 -329l555 707q-98 82 -265 82t-272 -124q-104 -124 -104 -336zM578 72q169 0 274 122q104 122 104 333t-88 333l-557 -706q98 -82 267 -82zM563 -8q-180 0 -305 94l-106 -135h-74v33l123 155q-133 150 -133 398t136 395t359 147q178 0 303 -96l99 125
h75v-31l-114 -145q135 -147 135 -398t-136 -397q-137 -145 -362 -145z" />
    <glyph glyph-name="ugrave" unicode="&#xf9;" horiz-adv-x="1124" 
d="M594 1174h-62l-192 219v41h100l154 -228v-32zM870 115v41q-221 -168 -444 -168q-289 0 -289 278v801h105v-791q0 -116 52 -160t146 -44q197 0 430 170v825h103v-1067h-47q-36 0 -46 20t-10 95z" />
    <glyph glyph-name="uacute" unicode="&#xfa;" horiz-adv-x="1124" 
d="M522 1174v32l154 228h102v-41l-192 -219h-64zM870 115v41q-221 -168 -444 -168q-289 0 -289 278v801h105v-791q0 -116 52 -160t146 -44q197 0 430 170v825h103v-1067h-47q-36 0 -46 20t-10 95z" />
    <glyph glyph-name="ucircumflex" unicode="&#xfb;" horiz-adv-x="1124" 
d="M330 1174v38l188 222h82l184 -222v-38h-61l-168 178l-168 -178h-57zM870 115v41q-221 -168 -444 -168q-289 0 -289 278v801h105v-791q0 -116 52 -160t146 -44q197 0 430 170v825h103v-1067h-47q-36 0 -46 20t-10 95z" />
    <glyph glyph-name="udieresis" unicode="&#xfc;" horiz-adv-x="1124" 
d="M705 1231q-29 0 -49 19q-19 19 -19 48q0 30 19 50q18 20 48 20t50 -20t20 -50t-20 -48q-20 -19 -49 -19zM412 1231q-29 0 -50 19q-20 19 -20 48q0 30 20 50t50 20t49 -20q20 -20 20 -50t-20 -48q-20 -19 -49 -19zM870 115v41q-221 -168 -444 -168q-289 0 -289 278v801
h105v-791q0 -116 52 -160t146 -44q197 0 430 170v825h103v-1067h-47q-36 0 -46 20t-10 95z" />
    <glyph glyph-name="yacute" unicode="&#xfd;" horiz-adv-x="1032" 
d="M315 -332v33l162 373l-426 962v31h94l381 -872h2l361 872h92v-31l-575 -1368h-91zM489 1174v32l154 228h102v-41l-192 -219h-64z" />
    <glyph glyph-name="thorn" unicode="&#xfe;" horiz-adv-x="1132" 
d="M639 995q-207 0 -389 -219v-555q129 -141 338 -141q143 0 251 91q56 48 89 143t33 227q1 248 -93 351t-229 103zM250 1329v-452q174 203 405 202q174 0 292 -124t118 -404q0 -151 -40 -263q-39 -112 -107 -172q-133 -118 -331 -118t-337 125v-455h-103v1766h46
q37 0 47 -18t10 -87z" />
    <glyph glyph-name="ydieresis" unicode="&#xff;" horiz-adv-x="1032" 
d="M315 -332v33l162 373l-426 962v31h94l381 -872h2l361 872h92v-31l-575 -1368h-91zM672 1231q-29 0 -48 19t-20 48q0 30 20 50t48 20q29 0 49 -20t20 -50t-20 -48q-20 -19 -49 -19zM379 1231q-29 0 -49 19t-21 48q1 30 21 50t49 20t49 -20t20 -50t-20 -48q-20 -19 -49 -19
z" />
    <glyph glyph-name="Amacron" unicode="&#x100;" horiz-adv-x="1253" 
d="M864 1616v-80h-471v80h471zM623 1313l-279 -774h559l-276 774h-4zM61 0v45l504 1389h129l498 -1389v-45h-96l-162 449h-621l-159 -449h-93z" />
    <glyph glyph-name="amacron" unicode="&#x101;" horiz-adv-x="1009" 
d="M729 1327v-76h-450v76h450zM484 539q-140 1 -230 -57t-90 -177t70 -177t186 -58t196 44t152 130v262q-144 33 -284 33zM768 104v41q-74 -79 -157 -117t-223 -38t-234 81t-94 233t115 230q116 78 290 78t303 -32v192q0 225 -262 225q-213 0 -332 -94h-43v84q168 92 379 92
q360 0 360 -301v-778h-28q-45 0 -60 20q-14 21 -14 84z" />
    <glyph glyph-name="Abreve" unicode="&#x102;" horiz-adv-x="1253" 
d="M629 1485q-92 0 -154 48q-61 48 -78 124v41h74q17 -129 159 -129t154 129h76v-41q-18 -76 -78 -124t-153 -48zM623 1313l-279 -774h559l-276 774h-4zM61 0v45l504 1389h129l498 -1389v-45h-96l-162 449h-621l-159 -449h-93z" />
    <glyph glyph-name="abreve" unicode="&#x103;" horiz-adv-x="1009" 
d="M512 1178q-92 0 -154 54q-61 54 -77 136v39h75q8 -70 48 -109q40 -38 108 -38t109 38t47 109h75v-39q-19 -84 -79 -137t-152 -53zM484 539q-140 1 -230 -57t-90 -177t70 -177t186 -58t196 44t152 130v262q-144 33 -284 33zM768 104v41q-74 -79 -157 -117t-223 -38
t-234 81t-94 233t115 230q116 78 290 78t303 -32v192q0 225 -262 225q-213 0 -332 -94h-43v84q168 92 379 92q360 0 360 -301v-778h-28q-45 0 -60 20q-14 21 -14 84z" />
    <glyph glyph-name="Aogonek" unicode="&#x104;" horiz-adv-x="1253" 
d="M623 1313l-279 -774h559l-276 774h-4zM1124 -336q-68 0 -112 39q-45 39 -45 107q0 100 129 190l-162 449h-621l-159 -449h-93v45l504 1389h129l498 -1389v-43q-129 -96 -129 -176q0 -88 100 -88h66v-60q-37 -14 -105 -14z" />
    <glyph glyph-name="aogonek" unicode="&#x105;" horiz-adv-x="1009" 
d="M484 539q-140 1 -230 -57t-90 -177t70 -177t186 -58t196 44t152 130v262q-144 33 -284 33zM806 -336q-68 0 -112 39q-45 39 -45 107q0 104 144 200q-25 18 -25 94v41q-74 -79 -157 -117t-223 -38t-234 81t-94 233t115 230q116 78 290 78t303 -32v192q0 225 -262 225
q-213 0 -332 -94h-43v84q168 92 379 92q360 0 360 -301v-778q-125 -96 -125 -174q0 -88 101 -88h65v-60q-37 -14 -105 -14z" />
    <glyph glyph-name="Cacute" unicode="&#x106;" horiz-adv-x="1261" 
d="M674 1481v30l121 193h98v-39l-156 -184h-63zM719 -8q-283 0 -452 191t-169 535t180 533q180 190 451 191q158 0 252 -35t184 -109v-88h-51q-142 144 -376 144t-380 -164t-147 -470q0 -306 136 -473t383 -167t413 170h47v-82q-188 -176 -471 -176z" />
    <glyph glyph-name="cacute" unicode="&#x107;" horiz-adv-x="983" 
d="M564 -8q-230 0 -363 145t-133 397t140 399q140 146 355 146t344 -102v-82h-53q-102 102 -282 102t-290 -123q-110 -124 -110 -340t106 -338t298 -122q194 0 303 123h47v-78q-132 -127 -362 -127zM510 1174v32l154 228h102v-41l-193 -219h-63z" />
    <glyph glyph-name="Ccircumflex" unicode="&#x108;" horiz-adv-x="1261" 
d="M489 1481v37l183 188h82l178 -188v-37h-62l-161 143l-160 -143h-60zM719 -8q-283 0 -452 191t-169 535t180 533q180 190 451 191q158 0 252 -35t184 -109v-88h-51q-142 144 -376 144t-380 -164t-147 -470q0 -306 136 -473t383 -167t413 170h47v-82q-188 -176 -471 -176z
" />
    <glyph glyph-name="ccircumflex" unicode="&#x109;" horiz-adv-x="983" 
d="M564 -8q-230 0 -363 145t-133 397t140 399q140 146 355 146t344 -102v-82h-53q-102 102 -282 102t-290 -123q-110 -124 -110 -340t106 -338t298 -122q194 0 303 123h47v-78q-132 -127 -362 -127zM317 1174v38l189 222h82l184 -222v-38h-61l-168 178l-168 -178h-58z" />
    <glyph glyph-name="Cdotaccent" unicode="&#x10a;" horiz-adv-x="1261" 
d="M719 -8q-283 0 -452 191t-169 535t180 533q180 190 451 191q158 0 252 -35t184 -109v-88h-51q-142 144 -376 144t-380 -164t-147 -470q0 -306 136 -473t383 -167t413 170h47v-82q-188 -176 -471 -176zM713 1503q-29 1 -49 21t-21 49q1 29 21 49t49 20t49 -20t20 -49
t-20 -49t-49 -21z" />
    <glyph glyph-name="cdotaccent" unicode="&#x10b;" horiz-adv-x="983" 
d="M547 1231q-29 0 -49 20t-21 49q1 30 21 50t48 20t50 -22t20 -49q0 -28 -20 -48t-49 -20zM564 -8q-230 0 -363 145t-133 397t140 399q140 146 355 146t344 -102v-82h-53q-102 102 -282 102t-290 -123q-110 -124 -110 -340t106 -338t298 -122q194 0 303 123h47v-78
q-132 -127 -362 -127z" />
    <glyph glyph-name="Ccaron" unicode="&#x10c;" horiz-adv-x="1261" 
d="M932 1706v-37l-182 -188h-82l-179 188v37h60l162 -143l161 143h60zM719 -8q-283 0 -452 191t-169 535t180 533q180 190 451 191q158 0 252 -35t184 -109v-88h-51q-142 144 -376 144t-380 -164t-147 -470q0 -306 136 -473t383 -167t413 170h47v-82q-188 -176 -471 -176z
" />
    <glyph glyph-name="ccaron" unicode="&#x10d;" horiz-adv-x="983" 
d="M564 -8q-230 0 -363 145t-133 397t140 399q140 146 355 146t344 -102v-82h-53q-102 102 -282 102t-290 -123q-110 -124 -110 -340t106 -338t298 -122q194 0 303 123h47v-78q-132 -127 -362 -127zM772 1434v-37l-188 -223h-82l-185 223v37h62l168 -177l168 177h57z" />
    <glyph glyph-name="Dcaron" unicode="&#x10e;" horiz-adv-x="1366" 
d="M285 90h272q315 0 463 146t147 481q0 334 -147 480t-463 146h-272v-1253zM176 0v1434h383q361 0 541 -170t180 -545t-180 -547t-543 -172h-381zM852 1706v-37l-182 -188h-82l-178 188v37h59l162 -143l162 143h59z" />
    <glyph glyph-name="dcaron" unicode="&#x10f;" horiz-adv-x="1138" 
d="M1210 1434v-41l-47 -219h-63l16 260h94zM502 72q221 0 381 217v565q-135 145 -340 145q-158 1 -263 -107q-106 -108 -106 -358t94 -356t234 -106zM987 1335v-1335h-53q-31 0 -40 22t-11 97v65q-152 -193 -391 -192q-180 0 -302 128q-121 128 -120 404q0 408 292 526
q78 30 164 29q227 0 357 -133v488h35q45 0 57 -18t12 -81z" />
    <glyph glyph-name="Dcroat" unicode="&#x110;" horiz-adv-x="1366" 
d="M285 90h272q315 0 463 146t147 481q0 334 -147 480t-463 146h-272v-579h434v-90h-434v-584zM27 674v90h149v670h383q361 0 541 -170t180 -545t-180 -547t-543 -172h-381v674h-149z" />
    <glyph glyph-name="dcroat" unicode="&#x111;" horiz-adv-x="1138" 
d="M502 72q221 0 381 217v565q-135 145 -340 145q-158 1 -263 -107q-106 -108 -106 -358t94 -356t234 -106zM987 1337v-67h135v-76h-135v-1194h-53q-31 0 -40 22t-11 97v65q-152 -193 -391 -192q-180 0 -302 128q-121 128 -120 404q0 408 292 526q78 30 164 29
q227 0 357 -133v248h-318v76h318v164h35q45 0 57 -17t12 -80z" />
    <glyph glyph-name="Emacron" unicode="&#x112;" horiz-adv-x="1128" 
d="M176 0v1434h854v-93h-745v-557h563v-90h-563v-604h774v-90h-883zM854 1616v-80h-471v80h471z" />
    <glyph glyph-name="emacron" unicode="&#x113;" horiz-adv-x="1042" 
d="M766 1327v-76h-451v76h451zM541 1001q-152 0 -250 -100t-117 -293h703q-8 393 -336 393zM172 530q0 -454 416 -454q212 0 321 110h45v-75q-152 -119 -390 -119t-366 143q-130 143 -130 393t133 401t339 151t322 -125q116 -124 117 -375v-31l-2 -19h-805z" />
    <glyph glyph-name="Ebreve" unicode="&#x114;" horiz-adv-x="1128" 
d="M176 0v1434h854v-93h-745v-557h563v-90h-563v-604h774v-90h-883zM616 1485q-92 0 -153 48t-78 124v41h74q16 -129 158 -129t155 129h76v-41q-18 -76 -79 -124t-153 -48z" />
    <glyph glyph-name="ebreve" unicode="&#x115;" horiz-adv-x="1042" 
d="M539 1178q-92 0 -154 54q-61 54 -78 136v39h76q8 -70 48 -109q40 -38 108 -38q69 0 109 38t46 109h76v-39q-18 -84 -78 -137t-153 -53zM541 1001q-152 0 -250 -100t-117 -293h703q-8 393 -336 393zM172 530q0 -454 416 -454q212 0 321 110h45v-75q-152 -119 -390 -119
t-366 143q-130 143 -130 393t133 401t339 151t322 -125q116 -124 117 -375v-31l-2 -19h-805z" />
    <glyph glyph-name="Edotaccent" unicode="&#x116;" horiz-adv-x="1128" 
d="M176 0v1434h854v-93h-745v-557h563v-90h-563v-604h774v-90h-883zM618 1503q-29 1 -49 21t-20 49t20 49t49 20q30 0 50 -20t20 -49t-20 -49t-50 -21z" />
    <glyph glyph-name="edotaccent" unicode="&#x117;" horiz-adv-x="1042" 
d="M541 1231q-29 0 -49 20t-21 49q1 30 21 50t49 20t49 -22t20 -49q0 -28 -20 -48t-49 -20zM541 1001q-152 0 -250 -100t-117 -293h703q-8 393 -336 393zM172 530q0 -454 416 -454q212 0 321 110h45v-75q-152 -119 -390 -119t-366 143q-130 143 -130 393t133 401t339 151
t322 -125q116 -124 117 -375v-31l-2 -19h-805z" />
    <glyph glyph-name="Eogonek" unicode="&#x118;" horiz-adv-x="1128" 
d="M176 0v1434h854v-93h-745v-557h563v-90h-563v-604h774v-90h-78q-125 -96 -125 -174q0 -88 100 -88h66v-60q-36 -14 -104 -14t-113 39t-45 107q0 100 129 190h-713z" />
    <glyph glyph-name="eogonek" unicode="&#x119;" horiz-adv-x="1042" 
d="M541 1001q-152 0 -250 -101t-115 -292h701q-8 393 -336 393zM662 -174q0 -88 100 -88h65v-60q-37 -14 -105 -14t-112 39q-45 39 -45 107q0 102 133 194q-55 -12 -131 -12q-239 0 -369 143t-130 393t133 401t339 151t322 -125q116 -124 117 -375v-31l-2 -19h-805v-4
q4 -451 406 -450q221 0 331 110h45v-75q-24 -19 -102 -67q-190 -118 -190 -218z" />
    <glyph glyph-name="Ecaron" unicode="&#x11a;" horiz-adv-x="1128" 
d="M176 0v1434h854v-93h-745v-557h563v-90h-563v-604h774v-90h-883zM838 1706v-37l-183 -188h-82l-178 188v37h60l161 -143l162 143h60z" />
    <glyph glyph-name="ecaron" unicode="&#x11b;" horiz-adv-x="1042" 
d="M766 1434v-37l-188 -223h-82l-185 223v37h62l168 -177l168 177h57zM541 1001q-152 0 -250 -100t-117 -293h703q-8 393 -336 393zM172 530q0 -454 416 -454q212 0 321 110h45v-75q-152 -119 -390 -119t-366 143q-130 143 -130 393t133 401t339 151t322 -125
q116 -124 117 -375v-31l-2 -19h-805z" />
    <glyph glyph-name="Gcircumflex" unicode="&#x11c;" horiz-adv-x="1372" 
d="M524 1481v37l183 188h81l179 -188v-37h-62l-162 143l-159 -143h-60zM726 -8q-290 0 -465 186t-175 538t187 539q187 186 483 187q250 0 420 -113v-94h-54q-124 119 -370 119t-398 -159t-152 -474t142 -478q141 -163 401 -163q213 0 365 80v452h-317v90h426v-593
q-203 -117 -493 -117z" />
    <glyph glyph-name="gcircumflex" unicode="&#x11d;" horiz-adv-x="1134" 
d="M324 1174v38l188 222h82l184 -222v-38h-61l-168 178l-168 -178h-57zM502 88q221 0 381 215v549q-137 147 -336 147q-143 0 -258 -98t-115 -352t94 -358q95 -103 234 -103zM987 1067v-1055q0 -170 -128 -261t-324 -91q-256 0 -408 94v80h41q119 -94 354 -94q162 0 261 68
t100 210v179q-160 -188 -396 -189q-176 0 -297 127t-120 397q0 400 292 518q78 30 166 29q225 0 355 -133q8 78 26 99q18 22 45 22h33z" />
    <glyph glyph-name="Gbreve" unicode="&#x11e;" horiz-adv-x="1372" 
d="M726 -8q-290 0 -465 186t-175 538t187 539q187 186 483 187q250 0 420 -113v-94h-54q-124 119 -370 119t-398 -159t-152 -474t142 -478q141 -163 401 -163q213 0 365 80v452h-317v90h426v-593q-203 -117 -493 -117zM748 1485q-92 0 -154 48q-61 48 -78 124v41h74
q16 -129 158 -129t155 129h76v-41q-19 -76 -79 -124t-152 -48z" />
    <glyph glyph-name="gbreve" unicode="&#x11f;" horiz-adv-x="1134" 
d="M553 1178q-92 0 -154 54q-61 54 -77 136v39h75q8 -70 48 -109q40 -38 108 -38t109 38t47 109h75v-39q-18 -84 -78 -137t-153 -53zM502 88q221 0 381 215v549q-137 147 -336 147q-143 0 -258 -98t-115 -352t94 -358q95 -103 234 -103zM987 1067v-1055q0 -170 -128 -261
t-324 -91q-256 0 -408 94v80h41q119 -94 354 -94q162 0 261 68t100 210v179q-160 -188 -396 -189q-176 0 -297 127t-120 397q0 400 292 518q78 30 166 29q225 0 355 -133q8 78 26 99q18 22 45 22h33z" />
    <glyph glyph-name="Gdotaccent" unicode="&#x120;" horiz-adv-x="1372" 
d="M726 -8q-290 0 -465 186t-175 538t187 539q187 186 483 187q250 0 420 -113v-94h-54q-124 119 -370 119t-398 -159t-152 -474t142 -478q141 -163 401 -163q213 0 365 80v452h-317v90h426v-593q-203 -117 -493 -117zM817 1573q0 -29 -21 -49t-49 -21q-29 1 -49 21t-20 49
t20 49t50 20t49 -20q20 -20 20 -49z" />
    <glyph glyph-name="gdotaccent" unicode="&#x121;" horiz-adv-x="1134" 
d="M553 1231q-29 0 -49 20t-21 49q1 30 21 50t49 20t49 -22t20 -49q0 -28 -20 -48t-49 -20zM502 88q221 0 381 215v549q-137 147 -336 147q-143 0 -258 -98t-115 -352t94 -358q95 -103 234 -103zM987 1067v-1055q0 -170 -128 -261t-324 -91q-256 0 -408 94v80h41
q119 -94 354 -94q162 0 261 68t100 210v179q-160 -188 -396 -189q-176 0 -297 127t-120 397q0 400 292 518q78 30 166 29q225 0 355 -133q8 78 26 99q18 22 45 22h33z" />
    <glyph glyph-name="Gcommaaccent" unicode="&#x122;" horiz-adv-x="1372" 
d="M726 -8q-290 0 -465 186t-175 538t187 539q187 186 483 187q250 0 420 -113v-94h-54q-124 119 -370 119t-398 -159t-152 -474t142 -478q141 -163 401 -163q213 0 365 80v452h-317v90h426v-593q-203 -117 -493 -117zM676 -140q0 34 20 52t52 18q78 0 77 -102
q1 -153 -155 -184v61q70 16 69 59q1 20 -31 41t-32 55z" />
    <glyph glyph-name="gcommaaccent" unicode="&#x123;" horiz-adv-x="1134" 
d="M569 1370q-1 -16 7 -22t17 -12t11 -9q29 -18 29 -52q-1 -34 -21 -52t-51 -19q-78 0 -78 103q0 153 156 184v-61q-70 -16 -70 -60zM502 88q221 0 381 215v549q-137 147 -336 147q-143 0 -258 -98t-115 -352t94 -358q95 -103 234 -103zM987 1067v-1055q0 -170 -128 -261
t-324 -91q-256 0 -408 94v80h41q119 -94 354 -94q162 0 261 68t100 210v179q-160 -188 -396 -189q-176 0 -297 127t-120 397q0 400 292 518q78 30 166 29q225 0 355 -133q8 78 26 99q18 22 45 22h33z" />
    <glyph glyph-name="Hcircumflex" unicode="&#x124;" horiz-adv-x="1398" 
d="M475 1481v37l182 188h82l179 -188v-37h-62l-162 143l-159 -143h-60zM285 0h-109v1434h109v-650h829v650h109v-1434h-109v694h-829v-694z" />
    <glyph glyph-name="hcircumflex" unicode="&#x125;" horiz-adv-x="1132" 
d="M348 1491v39l189 221h81l185 -221v-39h-62l-168 178l-167 -178h-58zM250 1335v-438q229 182 469 182q276 0 276 -284v-795h-102v782q0 119 -56 165t-157 46q-195 0 -430 -180v-813h-103v1434h37q42 0 54 -16t12 -83z" />
    <glyph glyph-name="Hbar" unicode="&#x126;" horiz-adv-x="1398" 
d="M285 784h829v277h-829v-277zM12 1061v84h164v289h109v-289h829v289h109v-289h163v-84h-163v-1061h-109v694h-829v-694h-109v1061h-164z" />
    <glyph glyph-name="hbar" unicode="&#x127;" horiz-adv-x="1132" 
d="M250 1337v-67h319v-76h-319v-297q229 182 469 182q276 0 276 -284v-795h-102v782q0 119 -56 165t-157 46q-195 0 -430 -180v-813h-103v1194h-135v76h135v164h37q42 0 54 -17t12 -80z" />
    <glyph glyph-name="Imacron" unicode="&#x12a;" horiz-adv-x="471" 
d="M473 1616v-80h-471v80h471zM291 0h-111v1434h111v-1434z" />
    <glyph glyph-name="imacron" unicode="&#x12b;" horiz-adv-x="407" 
d="M389 1327v-76h-371v76h371zM254 0h-102v1067h32q46 0 58 -18t12 -93v-956z" />
    <glyph glyph-name="Iogonek" unicode="&#x12e;" horiz-adv-x="471" 
d="M226 -336q-68 0 -113 39t-45 107q0 100 129 190h-17v1434h111v-1434q-127 -94 -127 -174q0 -88 100 -88h66v-60q-36 -14 -104 -14z" />
    <glyph glyph-name="iogonek" unicode="&#x12f;" horiz-adv-x="407" 
d="M205 1231q-29 0 -49 20t-21 49q1 30 21 50t49 20t49 -20t20 -50t-20 -49q-20 -20 -49 -20zM190 -336q-68 0 -112 39q-45 39 -45 107q0 98 119 184v1073h32q46 0 58 -18t12 -93v-956q-125 -96 -125 -174q0 -88 100 -88h66v-60q-37 -14 -105 -14z" />
    <glyph glyph-name="Idotaccent" unicode="&#x130;" horiz-adv-x="471" 
d="M238 1503q-30 1 -50 21t-20 49t20 49t50 20t49 -20q20 -20 20 -49t-20 -49t-49 -21zM291 0h-111v1434h111v-1434z" />
    <glyph glyph-name="dotlessi" unicode="&#x131;" horiz-adv-x="407" 
d="M254 0h-102v1067h32q46 0 58 -18t12 -93v-956z" />
    <glyph glyph-name="Jcircumflex" unicode="&#x134;" horiz-adv-x="841" 
d="M397 1481v37l183 188h82l178 -188v-37h-62l-162 143l-159 -143h-60zM674 328q0 -162 -90 -250t-264 -88q-173 0 -285 76v88h47q76 -76 227 -76q254 0 254 252v1104h111v-1106z" />
    <glyph glyph-name="jcircumflex" unicode="&#x135;" horiz-adv-x="407" 
d="M-25 1174v38l189 222h82l184 -222v-38h-61l-168 178l-168 -178h-58zM254 -111q0 -225 -215 -225q-53 0 -86 8v70h57q141 0 142 152v1173h30q48 0 60 -18t12 -93v-1067z" />
    <glyph glyph-name="Kcommaaccent" unicode="&#x136;" horiz-adv-x="1265" 
d="M621 -236q-1 19 -17 30t-18 13q-29 19 -29 53q1 34 21 52t51 18q78 0 78 -102q0 -153 -156 -184v61q70 16 70 59zM176 0v1434h109v-824l764 824h86v-43l-506 -543l557 -805v-43h-96l-533 772l-272 -289v-483h-109z" />
    <glyph glyph-name="kcommaaccent" unicode="&#x137;" horiz-adv-x="974" 
d="M510 -236q0 21 -16 31t-19 12q-29 19 -29 53t20 52t52 18q78 0 78 -102q0 -153 -156 -184v61q70 16 70 59zM250 1335v-870l553 602h80v-41l-373 -403l405 -584v-39h-90l-383 553l-192 -207v-346h-103v1434h37q46 0 56 -16t10 -83z" />
    <glyph glyph-name="Lacute" unicode="&#x139;" horiz-adv-x="1103" 
d="M1032 0h-856v1434h109v-1344h747v-90zM195 1481v30l120 193h99v-39l-156 -184h-63z" />
    <glyph glyph-name="lacute" unicode="&#x13a;" horiz-adv-x="401" 
d="M252 0h-102v1434h36q46 0 56 -16t10 -83v-1335zM166 1491v33l153 227h103v-41l-193 -219h-63z" />
    <glyph glyph-name="Lcommaaccent" unicode="&#x13b;" horiz-adv-x="1103" 
d="M1032 0h-856v1434h109v-1344h747v-90zM596 -236q0 21 -16 31t-19 12q-29 19 -29 53t20 52t52 18q78 0 78 -102q0 -153 -156 -184v61q70 16 70 59z" />
    <glyph glyph-name="lcommaaccent" unicode="&#x13c;" horiz-adv-x="401" 
d="M252 0h-102v1434h36q46 0 56 -16t10 -83v-1335zM195 -236q-1 19 -17 30t-18 13q-29 19 -29 53q1 34 21 52t51 18q78 0 78 -102q0 -153 -156 -184v61q70 16 70 59z" />
    <glyph glyph-name="Lcaron" unicode="&#x13d;" horiz-adv-x="1103" 
d="M1032 0h-856v1434h109v-1344h747v-90zM752 1434v-41l-54 -219h-69l16 260h107z" />
    <glyph glyph-name="lcaron" unicode="&#x13e;" horiz-adv-x="401" 
d="M252 0h-102v1434h36q46 0 56 -16t10 -83v-1335zM477 1434v-41l-47 -219h-63l14 260h96z" />
    <glyph glyph-name="Lslash" unicode="&#x141;" horiz-adv-x="1105" 
d="M1034 0h-856v543l-174 -74v92l174 74v799h109v-752l487 209v-90l-487 -211v-500h747v-90z" />
    <glyph glyph-name="lslash" unicode="&#x142;" horiz-adv-x="403" 
d="M254 0h-102v758l-156 -105v88l156 105v588h34q44 0 56 -16t12 -83v-420l160 109v-88l-160 -109v-827z" />
    <glyph glyph-name="Nacute" unicode="&#x143;" horiz-adv-x="1388" 
d="M176 0v1434h135l797 -1237h2v1237h104v-1434h-104l-827 1288h-4v-1288h-103zM676 1481v30l121 193h98v-39l-156 -184h-63z" />
    <glyph glyph-name="nacute" unicode="&#x144;" horiz-adv-x="1132" 
d="M543 1174v32l153 228h103v-41l-193 -219h-63zM250 961v-64q229 182 469 182q276 0 276 -284v-795h-102v782q0 119 -56 165t-157 46q-195 0 -430 -180v-813h-103v1067h48q35 0 45 -18t10 -88z" />
    <glyph glyph-name="Ncommaaccent" unicode="&#x145;" horiz-adv-x="1388" 
d="M176 0v1434h135l797 -1237h2v1237h104v-1434h-104l-827 1288h-4v-1288h-103zM686 -236q0 20 -16 30l-19 13q-29 19 -29 53t21 52q20 18 51 18q78 0 78 -102q0 -153 -156 -184v61q70 16 70 59z" />
    <glyph glyph-name="ncommaaccent" unicode="&#x146;" horiz-adv-x="1132" 
d="M508 -140q0 34 20 52t52 18q78 0 77 -102q1 -153 -155 -184v61q70 16 69 59q1 20 -31 41t-32 55zM250 961v-64q229 182 469 182q276 0 276 -284v-795h-102v782q0 119 -56 165t-157 46q-195 0 -430 -180v-813h-103v1067h48q35 0 45 -18t10 -88z" />
    <glyph glyph-name="Ncaron" unicode="&#x147;" horiz-adv-x="1388" 
d="M176 0v1434h135l797 -1237h2v1237h104v-1434h-104l-827 1288h-4v-1288h-103zM936 1706v-37l-182 -188h-82l-178 188v37h59l162 -143l162 143h59z" />
    <glyph glyph-name="ncaron" unicode="&#x148;" horiz-adv-x="1132" 
d="M805 1434v-37l-189 -223h-81l-185 223v37h62l168 -177l168 177h57zM250 961v-64q229 182 469 182q276 0 276 -284v-795h-102v782q0 119 -56 165t-157 46q-195 0 -430 -180v-813h-103v1067h48q35 0 45 -18t10 -88z" />
    <glyph glyph-name="Omacron" unicode="&#x14c;" horiz-adv-x="1458" 
d="M728 78q234 0 383 167t149 471t-148 472t-383 168q-234 0 -382 -168t-148 -473t148 -471q147 -166 381 -166zM730 -8q-275 0 -460 192q-184 193 -184 533q0 341 184 533t460 192t458 -194q184 -194 184 -532t-183 -532q-184 -192 -459 -192zM965 1616v-80h-471v80h471z
" />
    <glyph glyph-name="omacron" unicode="&#x14d;" horiz-adv-x="1128" 
d="M172 534q0 -218 104 -340t288 -122q183 0 288 122q104 122 104 340t-105 342t-287 124t-288 -124q-104 -124 -104 -342zM564 -8q-224 0 -360 146t-136 396t136 398q136 147 360 147t360 -147t137 -398q0 -251 -136 -397q-137 -145 -361 -145zM788 1327v-76h-450v76h450z
" />
    <glyph glyph-name="Ohungarumlaut" unicode="&#x150;" horiz-adv-x="1458" 
d="M813 1481v26l84 197h90v-39l-110 -184h-64zM571 1481v26l84 197h90v-39l-110 -184h-64zM728 78q234 0 383 167t149 471t-148 472t-383 168q-234 0 -382 -168t-148 -473t148 -471q147 -166 381 -166zM730 -8q-275 0 -460 192q-184 193 -184 533q0 341 184 533t460 192
t458 -194q184 -194 184 -532t-183 -532q-184 -192 -459 -192z" />
    <glyph glyph-name="ohungarumlaut" unicode="&#x151;" horiz-adv-x="1128" 
d="M172 534q0 -218 104 -340t288 -122q183 0 288 122q104 122 104 340t-105 342t-287 124t-288 -124q-104 -124 -104 -342zM564 -8q-224 0 -360 146t-136 396t136 398q136 147 360 147t360 -147t137 -398q0 -251 -136 -397q-137 -145 -361 -145zM653 1174v26l103 234h88v-41
l-127 -219h-64zM412 1174v26l102 234h88v-41l-127 -219h-63z" />
    <glyph glyph-name="OE" unicode="&#x152;" horiz-adv-x="1959" 
d="M1026 1341h-217q-315 0 -463 -145t-147 -479q0 -334 147 -480t463 -147h217v1251zM807 0q-362 0 -542 170q-179 170 -179 545t180 547t543 172h1053v-93h-725v-557h540v-90h-540v-604h753v-90h-1083z" />
    <glyph glyph-name="oe" unicode="&#x153;" horiz-adv-x="1931" 
d="M1430 1001q-152 0 -250 -100t-117 -293h700q-5 393 -333 393zM172 534q0 -218 104 -340t288 -122q183 0 288 122q104 122 104 340t-105 342t-287 124t-288 -124q-104 -124 -104 -342zM1061 530q0 -454 415 -454q211 0 322 110h45v-75q-152 -119 -387 -119q-172 0 -287 76
t-163 215q-53 -139 -168 -215t-275 -76q-223 0 -359 146t-136 396t136 398q136 147 359 147q162 0 277 -79t168 -222q53 141 163 221q111 80 259 80q206 0 322 -124t116 -375v-31l-2 -19h-805z" />
    <glyph glyph-name="Racute" unicode="&#x154;" horiz-adv-x="1228" 
d="M549 1481v30l121 193h98v-39l-156 -184h-63zM291 1343v-606h268q193 0 289 67q96 68 96 234t-100 236t-285 69h-268zM563 649h-272v-649h-111v1434h383q492 0 492 -390q0 -291 -260 -366l342 -635v-43h-95l-354 655q-59 -6 -125 -6z" />
    <glyph glyph-name="racute" unicode="&#x155;" horiz-adv-x="702" 
d="M369 1174v32l153 228h103v-41l-193 -219h-63zM250 950v-67q160 193 350 192q37 0 49 -6v-84q-27 2 -45 2q-182 0 -354 -201v-786h-103v1067h48q35 -1 45 -21t10 -96z" />
    <glyph glyph-name="Rcommaaccent" unicode="&#x156;" horiz-adv-x="1228" 
d="M618 -70q78 0 78 -102q1 -153 -155 -184v61q70 16 69 59q0 20 -16 30l-19 13q-29 19 -29 53t21 52q20 18 51 18zM291 1343v-606h268q193 0 289 67q96 68 96 234t-100 236t-285 69h-268zM563 649h-272v-649h-111v1434h383q492 0 492 -390q0 -291 -260 -366l342 -635v-43
h-95l-354 655q-59 -6 -125 -6z" />
    <glyph glyph-name="rcommaaccent" unicode="&#x157;" horiz-adv-x="700" 
d="M127 -140q0 34 20 52t52 18q78 0 77 -102q1 -153 -155 -184v61q70 16 69 59q0 20 -32 41t-31 55zM250 950v-67q160 193 350 192q37 0 49 -6v-84q-27 2 -45 2q-182 0 -354 -201v-786h-103v1067h48q35 -1 45 -21t10 -96z" />
    <glyph glyph-name="Rcaron" unicode="&#x158;" horiz-adv-x="1228" 
d="M809 1706v-37l-182 -188h-82l-178 188v37h59l162 -143l162 143h59zM291 1343v-606h268q193 0 289 67q96 68 96 234t-100 236t-285 69h-268zM563 649h-272v-649h-111v1434h383q492 0 492 -390q0 -291 -260 -366l342 -635v-43h-95l-354 655q-59 -6 -125 -6z" />
    <glyph glyph-name="rcaron" unicode="&#x159;" horiz-adv-x="700" 
d="M631 1434v-37l-189 -223h-82l-184 223v37h62l168 -177l167 177h58zM250 950v-67q160 193 350 192q37 0 49 -6v-84q-27 2 -45 2q-182 0 -354 -201v-786h-103v1067h48q35 -1 45 -21t10 -96z" />
    <glyph glyph-name="Sacute" unicode="&#x15a;" horiz-adv-x="1044" 
d="M477 1481v30l121 193h98v-39l-155 -184h-64zM489 -8q-270 0 -442 135v96h49q143 -143 391 -143q172 0 272 76q99 76 99 231q0 108 -52 162q-30 31 -54 50q-54 42 -266 96t-308 136t-96 244t114 264q114 103 332 103t369 -113v-92h-51q-128 117 -312 117t-266 -74
t-82 -205t88 -187q88 -55 286 -106q198 -52 301 -132t103 -268t-128 -289t-347 -101z" />
    <glyph glyph-name="sacute" unicode="&#x15b;" horiz-adv-x="874" 
d="M803 301q0 -145 -96 -227t-297 -82t-338 100v84h41q113 -104 299 -104q291 0 290 229q0 94 -61 139t-226 72q-165 28 -249 92t-84 196t97 206t272 74t299 -81v-84h-41q-102 84 -267 84q-264 0 -264 -194q0 -90 60 -134t229 -72q168 -28 252 -91t84 -207zM397 1174v32
l154 228h102v-41l-192 -219h-64z" />
    <glyph glyph-name="Scircumflex" unicode="&#x15c;" horiz-adv-x="1044" 
d="M293 1481v37l182 188h82l178 -188v-37h-61l-162 143l-160 -143h-59zM489 -8q-270 0 -442 135v96h49q143 -143 391 -143q172 0 272 76q99 76 99 231q0 108 -52 162q-30 31 -54 50q-54 42 -266 96t-308 136t-96 244t114 264q114 103 332 103t369 -113v-92h-51
q-128 117 -312 117t-266 -74t-82 -205t88 -187q88 -55 286 -106q198 -52 301 -132t103 -268t-128 -289t-347 -101z" />
    <glyph glyph-name="scircumflex" unicode="&#x15d;" horiz-adv-x="874" 
d="M803 301q0 -145 -96 -227t-297 -82t-338 100v84h41q113 -104 299 -104q291 0 290 229q0 94 -61 139t-226 72q-165 28 -249 92t-84 196t97 206t272 74t299 -81v-84h-41q-102 84 -267 84q-264 0 -264 -194q0 -90 60 -134t229 -72q168 -28 252 -91t84 -207zM205 1174v38
l188 222h82l184 -222v-38h-61l-168 178l-168 -178h-57z" />
    <glyph glyph-name="Scedilla" unicode="&#x15e;" horiz-adv-x="1044" 
d="M965 384q0 -186 -122 -286t-331 -106v-74q78 -4 120 -40t42 -99t-48 -99t-126 -36t-142 41v63h43q31 -31 97 -31q88 0 88 64q0 70 -103 69h-47v144q-233 10 -389 133v96h49q143 -143 391 -143q172 0 272 76q99 76 99 231q0 108 -52 162q-30 31 -54 50q-54 42 -266 96
t-308 136t-96 244t114 264q114 103 332 103t369 -113v-92h-51q-128 117 -312 117t-266 -74t-82 -205t88 -187q88 -55 286 -106q198 -52 302 -132t103 -266z" />
    <glyph glyph-name="scedilla" unicode="&#x15f;" horiz-adv-x="874" 
d="M178 805q0 -90 60 -134t229 -72q168 -27 252 -91t84 -204t-90 -223t-273 -89v-74q78 -4 120 -40t42 -99t-48 -99t-126 -36t-141 41v63h43q31 -31 96 -31q88 0 88 64q0 70 -102 69h-47v144q-172 10 -293 98v84h41q113 -104 299 -104q291 0 290 229q0 94 -61 139t-226 72
q-165 28 -249 92t-84 196t97 206t272 74t299 -81v-84h-41q-102 84 -267 84q-264 0 -264 -194z" />
    <glyph glyph-name="Scaron" unicode="&#x160;" horiz-adv-x="1042" 
d="M735 1706v-37l-182 -188h-82l-178 188v37h59l162 -143l162 143h59zM489 -8q-270 0 -442 135v96h49q143 -143 391 -143q172 0 272 76q99 76 99 231q0 108 -52 162q-30 31 -54 50q-54 42 -266 96t-308 136t-96 244t114 264q114 103 332 103t369 -113v-92h-51
q-128 117 -312 117t-266 -74t-82 -205t88 -187q88 -55 286 -106q198 -52 301 -132t103 -268t-128 -289t-347 -101z" />
    <glyph glyph-name="scaron" unicode="&#x161;" horiz-adv-x="874" 
d="M803 301q0 -145 -96 -227t-297 -82t-338 100v84h41q113 -104 299 -104q291 0 290 229q0 94 -61 139t-226 72q-165 28 -249 92t-84 196t97 206t272 74t299 -81v-84h-41q-102 84 -267 84q-264 0 -264 -194q0 -90 60 -134t229 -72q168 -28 252 -91t84 -207zM659 1434v-37
l-188 -223h-82l-184 223v37h61l168 -177l168 177h57z" />
    <glyph glyph-name="Tcommaaccent" unicode="&#x162;" horiz-adv-x="1136" 
d="M625 0h-111v1343h-469v91h1047v-91h-467v-1343zM559 -236q0 20 -16 30l-19 13q-28 19 -28 53t20 52t51 18q78 0 78 -102q0 -153 -156 -184v61q70 16 70 59z" />
    <glyph glyph-name="tcommaaccent" unicode="&#x163;" horiz-adv-x="608" 
d="M25 989v78h141v297h102v-297h285v-78h-285v-745q0 -94 44 -131t141 -37h122v-72q-66 -12 -157 -12q-252 0 -252 239v758h-141zM299 -140q0 34 20 52t52 18q78 0 78 -102q0 -153 -156 -184v61q70 16 69 59q0 20 -32 41t-31 55z" />
    <glyph glyph-name="Tcaron" unicode="&#x164;" horiz-adv-x="1136" 
d="M625 0h-111v1343h-469v91h1047v-91h-467v-1343zM786 1706v-37l-182 -188h-82l-178 188v37h59l162 -143l162 143h59z" />
    <glyph glyph-name="tcaron" unicode="&#x165;" horiz-adv-x="608" 
d="M25 989v78h141v297h102v-297h285v-78h-285v-745q0 -94 44 -131t141 -37h122v-72q-66 -12 -157 -12q-252 0 -252 239v758h-141zM510 1434v-41l-49 -219h-62l15 260h96z" />
    <glyph glyph-name="Umacron" unicode="&#x16a;" horiz-adv-x="1380" 
d="M702 82q410 0 410 399v953h105v-949q-1 -257 -141 -375t-380 -118t-385 119t-145 374v949h108v-953q0 -399 428 -399zM928 1616v-80h-471v80h471z" />
    <glyph glyph-name="umacron" unicode="&#x16b;" horiz-adv-x="1124" 
d="M784 1327v-76h-450v76h450zM870 115v41q-221 -168 -444 -168q-289 0 -289 278v801h105v-791q0 -116 52 -160t146 -44q197 0 430 170v825h103v-1067h-47q-36 0 -46 20t-10 95z" />
    <glyph glyph-name="Ubreve" unicode="&#x16c;" horiz-adv-x="1380" 
d="M702 82q410 0 410 399v953h105v-949q-1 -257 -141 -375t-380 -118t-385 119t-145 374v949h108v-953q0 -399 428 -399zM692 1485q-92 0 -153 48t-78 124v41h74q16 -129 158 -129t155 129h76v-41q-18 -76 -79 -124t-153 -48z" />
    <glyph glyph-name="ubreve" unicode="&#x16d;" horiz-adv-x="1124" 
d="M559 1178q-92 0 -153 54t-78 136v39h75q9 -70 49 -109q40 -38 108 -38t108 38q41 38 47 109h76v-39q-18 -84 -79 -137t-153 -53zM870 115v41q-221 -168 -444 -168q-289 0 -289 278v801h105v-791q0 -116 52 -160t146 -44q197 0 430 170v825h103v-1067h-47q-36 0 -46 20
t-10 95z" />
    <glyph glyph-name="Uring" unicode="&#x16e;" horiz-adv-x="1380" 
d="M692 1495q45 0 75 30t30 77q0 48 -31 78t-75 30t-74 -31q-29 -31 -29 -79t30 -76q30 -29 74 -29zM870 1602q0 -78 -53 -126t-126 -49q-73 1 -126 49t-53 126t53 127t126 49t126 -49t53 -127zM702 82q410 0 410 399v953h105v-949q-1 -257 -141 -375t-380 -118t-385 119
t-145 374v949h108v-953q0 -399 428 -399z" />
    <glyph glyph-name="uring" unicode="&#x16f;" horiz-adv-x="1124" 
d="M558 1243q44 0 75 30t31 78t-31 79q-31 30 -75 30t-74 -30t-30 -79q0 -48 30 -78t74 -30zM558 1176q-73 0 -126 48t-53 126t53 127t126 49t126 -49t53 -127t-53 -126t-126 -48zM870 115v41q-221 -168 -444 -168q-289 0 -289 278v801h105v-791q0 -116 52 -160t146 -44
q197 0 430 170v825h103v-1067h-47q-36 0 -46 20t-10 95z" />
    <glyph glyph-name="Uhungarumlaut" unicode="&#x170;" horiz-adv-x="1380" 
d="M776 1481v26l84 197h90v-39l-110 -184h-64zM535 1481v26l83 197h91v-39l-111 -184h-63zM702 82q410 0 410 399v953h105v-949q-1 -257 -141 -375t-380 -118t-385 119t-145 374v949h108v-953q0 -399 428 -399z" />
    <glyph glyph-name="uhungarumlaut" unicode="&#x171;" horiz-adv-x="1124" 
d="M406 1174v26l102 234h88v-41l-127 -219h-63zM647 1174v26l103 234h88v-41l-127 -219h-64zM870 115v41q-221 -168 -444 -168q-289 0 -289 278v801h105v-791q0 -116 52 -160t146 -44q197 0 430 170v825h103v-1067h-47q-36 0 -46 20t-10 95z" />
    <glyph glyph-name="Uogonek" unicode="&#x172;" horiz-adv-x="1380" 
d="M768 -336q-68 0 -114 39t-46 107q0 102 123 184q-10 -2 -37 -2q-238 0 -383 119t-145 374v949h108v-953q0 -399 428 -399q410 0 410 399v953h105v-949q0 -352 -281 -456q-20 -8 -62 -22t-63 -28q-104 -68 -104 -155q0 -86 98 -86h65v-60q-34 -14 -102 -14z" />
    <glyph glyph-name="uogonek" unicode="&#x173;" horiz-adv-x="1124" 
d="M870 115v41q-221 -168 -444 -168q-289 0 -289 278v801h105v-791q0 -116 52 -160t146 -44q197 0 430 170v825h103v-1067h-2q-125 -96 -125 -174q0 -88 100 -88h66v-60q-36 -14 -104 -14t-113 39t-45 107q0 106 139 198q-19 17 -19 107z" />
    <glyph glyph-name="Ydieresis" unicode="&#x178;" horiz-adv-x="1126" 
d="M715 1501q-29 1 -48 21t-20 49q1 29 21 49t48 20t48 -20t20 -49t-20 -49t-49 -21zM422 1501q-29 1 -49 21t-21 49q0 29 20 49t50 20q29 0 49 -20q21 -20 21 -49t-20 -49t-50 -21zM621 0h-111v600l-457 789v45h94l420 -732h2l420 732h86v-45l-454 -785v-604z" />
    <glyph glyph-name="Zacute" unicode="&#x179;" horiz-adv-x="1150" 
d="M543 1481v30l121 193h98v-39l-156 -184h-63zM37 0v94l893 1249v3h-838v88h955v-97l-891 -1247v-4h868v-86h-987z" />
    <glyph glyph-name="zacute" unicode="&#x17a;" horiz-adv-x="937" 
d="M70 0v80l708 907h-665v80h780v-82l-709 -905h697v-80h-811zM471 1174v32l154 228h102v-41l-192 -219h-64z" />
    <glyph glyph-name="Zdotaccent" unicode="&#x17b;" horiz-adv-x="1089" 
d="M37 0v94l893 1249v3h-838v88h955v-97l-891 -1247v-4h868v-86h-987zM582 1503q-30 1 -50 21t-20 49t20 49t50 20t49 -20q20 -20 20 -49t-20 -49t-49 -21z" />
    <glyph glyph-name="zdotaccent" unicode="&#x17c;" horiz-adv-x="937" 
d="M508 1231q-29 0 -49 20t-21 49q0 30 20 50t50 20q29 0 49 -22q21 -22 21 -49q0 -28 -20 -48t-50 -20zM70 0v80l708 907h-665v80h780v-82l-709 -905h697v-80h-811z" />
    <glyph glyph-name="Zcaron" unicode="&#x17d;" horiz-adv-x="1089" 
d="M37 0v94l893 1249v3h-838v88h955v-97l-891 -1247v-4h868v-86h-987zM801 1706v-37l-183 -188h-81l-179 188v37h60l162 -143l161 143h60z" />
    <glyph glyph-name="zcaron" unicode="&#x17e;" horiz-adv-x="937" 
d="M70 0v80l708 907h-665v80h780v-82l-709 -905h697v-80h-811zM733 1434v-37l-188 -223h-82l-184 223v37h61l168 -177l168 177h57z" />
    <glyph glyph-name="florin" unicode="&#x192;" horiz-adv-x="675" 
d="M74 874h155l37 300q31 266 283 266q68 0 115 -15v-69h-93q-176 0 -198 -191l-37 -291h235v-81h-245l-117 -967h-107l117 967h-145v81z" />
    <glyph glyph-name="Scommaaccent" unicode="&#x218;" horiz-adv-x="1044" 
d="M489 -8q-270 0 -442 135v96h49q143 -143 391 -143q172 0 272 76q99 76 99 231q0 108 -52 162q-30 31 -54 50q-54 42 -266 96t-308 136t-96 244t114 264q114 103 332 103t369 -113v-92h-51q-128 117 -312 117t-266 -74t-82 -205t88 -187q88 -55 286 -106q198 -52 301 -132
t103 -268t-128 -289t-347 -101zM496 -236q0 17 -8 23l-16 12q-40 27 -40 61t20 52t52 18q78 0 78 -102q0 -153 -156 -184v61q70 16 70 59z" />
    <glyph glyph-name="scommaaccent" unicode="&#x219;" horiz-adv-x="874" 
d="M803 301q0 -145 -96 -227t-297 -82t-338 100v84h41q113 -104 299 -104q291 0 290 229q0 94 -61 139t-226 72q-165 28 -249 92t-84 196t97 206t272 74t299 -81v-84h-41q-102 84 -267 84q-264 0 -264 -194q0 -90 60 -134t229 -72q168 -28 252 -91t84 -207zM426 -236
q0 21 -16 31t-19 12q-29 19 -29 53t20 52t52 18q78 0 78 -102q0 -153 -156 -184v61q70 16 70 59z" />
    <glyph glyph-name="uni0237" unicode="&#x237;" horiz-adv-x="407" 
d="M254 -111q0 -225 -215 -225q-53 0 -86 8v70h57q141 0 142 152v1173h30q48 0 60 -18t12 -93v-1067z" />
    <glyph glyph-name="circumflex" unicode="&#x2c6;" 
d="M197 1174v38l188 222h82l184 -222v-38h-61l-168 178l-168 -178h-57z" />
    <glyph glyph-name="caron" unicode="&#x2c7;" 
d="M651 1434v-37l-188 -223h-82l-184 223v37h61l168 -177l168 177h57z" />
    <glyph glyph-name="breve" unicode="&#x2d8;" 
d="M424 1178q-92 0 -154 54q-61 54 -77 136v39h75q8 -70 48 -109q40 -38 108 -38t108 38t48 109h75v-39q-19 -84 -79 -137t-152 -53z" />
    <glyph glyph-name="dotaccent" unicode="&#x2d9;" 
d="M426 1231q-29 0 -49 20t-21 49q0 30 20 50t50 20q29 0 49 -22q21 -22 21 -49q0 -28 -20 -48t-50 -20z" />
    <glyph glyph-name="ring" unicode="&#x2da;" 
d="M423 1243q44 0 75 30q30 30 30 78t-30 79q-31 30 -75 30t-74 -30t-30 -79q0 -48 30 -78t74 -30zM423 1176q-73 0 -126 48t-53 126t53 127t126 49t126 -49t53 -127t-53 -126t-126 -48z" />
    <glyph glyph-name="ogonek" unicode="&#x2db;" horiz-adv-x="823" 
d="M456 -336q-68 0 -112 39q-45 39 -45 107q0 100 129 190h92q-125 -96 -125 -174q0 -88 101 -88h65v-60q-37 -14 -105 -14z" />
    <glyph glyph-name="tilde" unicode="&#x2dc;" 
d="M160 1202v37q12 57 51 95t93 38t125 -40t97 -40q70 0 84 86h70v-39q-12 -59 -50 -96t-94 -37t-126 41t-95 41q-72 0 -86 -86h-69z" />
    <glyph glyph-name="hungarumlaut" unicode="&#x2dd;" 
d="M518 1174v26l103 234h88v-41l-127 -219h-64zM276 1174v26l103 234h88v-41l-127 -219h-64z" />
    <glyph glyph-name="endash" unicode="&#x2013;" horiz-adv-x="808" 
d="M57 543v92h695v-92h-695z" />
    <glyph glyph-name="emdash" unicode="&#x2014;" horiz-adv-x="1351" 
d="M57 543v92h1237v-92h-1237z" />
    <glyph glyph-name="quoteleft" unicode="&#x2018;" horiz-adv-x="299" 
d="M223 1198q1 -35 -21 -54t-55 -20q-82 0 -81 109q0 180 167 209v-64q-35 -8 -55 -30t-20 -42q0 -26 32 -50q32 -23 33 -58z" />
    <glyph glyph-name="quoteright" unicode="&#x2019;" horiz-adv-x="299" 
d="M141 1268q0 26 -35 43q-30 25 -30 59t21 52q22 19 55 20q82 0 81 -107q1 -180 -167 -209v64q35 8 55 30t20 48z" />
    <glyph glyph-name="quotesinglbase" unicode="&#x201a;" horiz-adv-x="299" 
d="M141 -12q0 24 -33 46q-32 21 -32 57q1 73 76 75q82 0 81 -109q0 -180 -167 -209v64q35 8 55 30t20 46z" />
    <glyph glyph-name="quotedblleft" unicode="&#x201c;" horiz-adv-x="538" 
d="M463 1198q0 -34 -22 -54q-22 -19 -54 -20q-82 0 -82 109q0 180 168 209v-64q-74 -17 -76 -78q0 -23 35 -45q31 -23 31 -57zM223 1198q1 -35 -21 -54t-55 -20q-82 0 -81 109q0 180 167 209v-64q-35 -8 -55 -30t-20 -42q0 -26 32 -50q32 -23 33 -58z" />
    <glyph glyph-name="quotedblright" unicode="&#x201d;" horiz-adv-x="538" 
d="M141 1268q0 26 -35 43q-30 25 -30 59t21 52q22 19 55 20q82 0 81 -107q1 -180 -167 -209v64q35 8 55 30t20 48zM383 1268q0 20 -35 43q-33 25 -33 59t22 52q22 19 54 20q82 0 82 -107q0 -180 -168 -209v64q78 18 78 78z" />
    <glyph glyph-name="quotedblbase" unicode="&#x201e;" horiz-adv-x="538" 
d="M141 -12q0 24 -33 46q-32 21 -32 57q1 73 76 75q82 0 81 -109q0 -180 -167 -209v64q35 8 55 30t20 46zM383 -10q-1 20 -17 32q-16 11 -18 13q-33 20 -33 56t22 55t54 20q82 0 82 -109q0 -180 -168 -209v64q78 18 78 78z" />
    <glyph glyph-name="dagger" unicode="&#x2020;" horiz-adv-x="858" 
d="M61 928v100h115l221 -20l-20 184v242h106v-242l-18 -184l219 20h115v-100h-115l-219 22l20 -211v-155l-14 -684h-82l-14 684v153l22 213l-221 -22h-115z" />
    <glyph glyph-name="daggerdbl" unicode="&#x2021;" horiz-adv-x="858" 
d="M377 -100v229l18 182l-219 -18h-115v98h115l219 -20l-20 207v178l22 207l-221 -21h-115v98h115l221 -18l-20 184v228h108v-228l-20 -184l219 18h115v-98h-115l-219 21l22 -207v-178l-24 -207l221 20h115v-98h-115l-221 18l22 -182v-229h-108z" />
    <glyph glyph-name="bullet" unicode="&#x2022;" horiz-adv-x="585" 
d="M294 379q-103 1 -172 65t-69 171t69 173t172 66t171 -66q67 -66 67 -174t-68 -171q-68 -64 -170 -64z" />
    <glyph glyph-name="ellipsis" unicode="&#x2026;" horiz-adv-x="956" 
d="M731 70q0 32 23 56q24 24 56 24t56 -24t23 -56q1 -32 -23 -56q-24 -22 -58 -22t-56 22t-21 56zM478 -8q-34 0 -56 22t-23 56q0 32 23 56q24 24 56 24t56 -24t24 -56t-23 -56q-23 -22 -57 -22zM147 -8q-33 0 -55 22t-22 56q0 32 22 56t56 24q32 0 56 -24t24 -56t-24 -56
q-24 -22 -57 -22z" />
    <glyph glyph-name="perthousand" unicode="&#x2030;" horiz-adv-x="2174" 
d="M1796 -8q-133 0 -222 93t-89 263t89 263t222 93t222 -92q89 -94 89 -264t-89 -263t-222 -93zM1796 66q96 0 155 74q58 75 58 207t-58 207q-59 75 -155 75t-154 -75t-59 -207q0 -132 58 -207q59 -74 155 -74zM1093 -8q-132 0 -222 93q-89 93 -89 263t89 263t221 93
t222 -92q89 -94 89 -264t-89 -263t-221 -93zM1093 66q97 0 155 74t58 207q0 132 -58 207t-155 75t-155 -75t-57 -208q0 -133 57 -207q58 -73 155 -73zM182 -70l1010 1563h98l-1009 -1563h-99zM378 731q-132 0 -221 93t-89 263q0 171 89 263t221 92t221 -93t89 -263t-89 -262
q-89 -93 -221 -93zM378 1368q-98 0 -154 -75q-58 -75 -58 -208t58 -207t154 -73q97 0 156 74q58 75 58 207t-58 207t-156 75z" />
    <glyph glyph-name="guilsinglleft" unicode="&#x2039;" horiz-adv-x="534" 
d="M471 969v-39l-305 -395v-5l305 -397v-35h-86l-322 406v55l322 410h86z" />
    <glyph glyph-name="guilsinglright" unicode="&#x203a;" horiz-adv-x="534" 
d="M63 98v35l306 397v7l-306 393v39h87l321 -410v-53l-321 -408h-87z" />
    <glyph glyph-name="fraction" unicode="&#x2044;" horiz-adv-x="399" 
d="M754 1493l-1010 -1563h-98l1009 1563h99z" />
    <glyph glyph-name="Euro" unicode="&#x20ac;" horiz-adv-x="1214" 
d="M1163 215v-70q-163 -153 -407 -153t-392 148t-180 429h-149v80h143q-2 23 -2 72t2 74h-143v82h151q37 268 193 416t375 149q133 0 217 -30t164 -87v-82h-50q-69 53 -141 82t-184 29q-184 0 -308 -123t-155 -354h537l-17 -82h-528q-2 -23 -2 -72t2 -74h502l-15 -80h-481
q59 -489 463 -489q204 0 352 135h53z" />
    <glyph glyph-name="trademark" unicode="&#x2122;" horiz-adv-x="1267" 
d="M586 872v562h139l147 -422h2l150 422h141v-562h-90v478h-2l-170 -478h-67l-168 478h-2v-478h-80zM311 872h-94v488h-174v74h444v-74h-176v-488z" />
    <glyph glyph-name="onethird" unicode="&#x2153;" horiz-adv-x="1374" 
d="M1053 -6q-135 0 -226 74v65h43q66 -65 170 -65t154 41q49 41 49 113t-52 107q-52 34 -128 33h-76v66h70q78 0 124 37t46 102q0 129 -160 129q-104 0 -172 -59h-43v61q96 72 216 72t184 -50t65 -145q0 -127 -133 -172v-4q152 -37 151 -182q0 -106 -73 -165
q-74 -58 -209 -58zM1171 1493l-1009 -1563h-99l1010 1563h98zM313 670h-96v663l-166 -92h-28v68l223 125h67v-764z" />
    <glyph glyph-name="twothirds" unicode="&#x2154;" horiz-adv-x="1513" 
d="M1473 217q0 -107 -74 -165t-209 -58t-225 74v65h43q66 -65 170 -65t153 41t49 113t-52 107q-52 34 -128 33h-76v66h70q78 0 124 37t46 102q0 129 -160 129q-104 0 -172 -59h-43v61q96 72 216 72t185 -50t64 -145q0 -127 -133 -172v-4q152 -37 152 -182zM1337 1493
l-1009 -1563h-99l1010 1563h98zM545 748v-78h-504v78l233 213q96 90 135 145q37 55 37 120q0 64 -40 102t-129 38q-90 0 -171 -76h-43v64q97 86 223 86t192 -58t67 -143q0 -86 -49 -156t-160 -170l-180 -165h389z" />
    <glyph glyph-name="oneeighth" unicode="&#x215b;" horiz-adv-x="1409" 
d="M1083 438q78 0 121 37t43 96t-43 95t-121 34q-79 0 -121 -34t-42 -94t42 -97t121 -37zM1084 61q95 0 146 43q50 43 50 113t-50 112t-146 42t-144 -42q-49 -42 -49 -112t49 -113t144 -43zM1370 211q0 -97 -76 -157t-210 -60t-210 59t-75 158q0 143 159 195v4
q-123 37 -122 168q0 88 67 140t179 52t182 -53t69 -139q0 -119 -121 -168v-4q158 -45 158 -195zM1184 1493l-1010 -1563h-98l1009 1563h99zM313 670h-96v663l-166 -92h-28v68l223 125h67v-764z" />
    <glyph glyph-name="threeeighths" unicode="&#x215c;" horiz-adv-x="1435" 
d="M1112 438q78 0 121 37t43 96t-43 95t-121 34q-78 0 -121 -34t-43 -94t43 -97t121 -37zM1113 61q95 0 145 43t51 113q-1 70 -51 112t-145 42t-144 -42t-49 -112t49 -113t144 -43zM1399 211q0 -97 -76 -157t-210 -60t-210 59t-76 158q0 143 160 195v4q-123 37 -123 168
q0 88 68 140t180 52t180 -53q70 -53 70 -139q0 -119 -121 -168v-4q158 -45 158 -195zM1249 1493l-1009 -1563h-99l1010 1563h98zM245 664q-136 0 -225 75v64h43q71 -66 173 -66q200 0 200 156q0 71 -52 105t-128 34h-76v68h70q78 0 124 36t46 101q0 129 -160 129
q-104 0 -172 -59h-43v61q96 72 216 72q121 0 185 -50t64 -145q0 -127 -133 -172v-4q152 -37 151 -182q0 -106 -73 -165q-74 -58 -210 -58z" />
    <glyph glyph-name="fiveeighths" unicode="&#x215d;" horiz-adv-x="1456" 
d="M1133 438q79 0 121 37t42 96t-43 95t-121 34q-78 0 -120 -34q-43 -34 -43 -94t43 -97t121 -37zM940 217q0 -70 50 -113t144 -43q95 0 145 43t50 113t-50 112t-145 42q-94 0 -144 -42t-50 -112zM1134 -6q-134 0 -210 59t-76 158q0 143 160 195v4q-123 37 -123 168
q0 88 67 140q68 52 180 52t182 -53t68 -139q0 -119 -120 -168v-4q158 -45 157 -195q1 -97 -75 -157t-210 -60zM1266 1493l-1010 -1563h-98l1009 1563h99zM461 920q0 168 -172 168q-84 0 -158 -74h-63v420h438v-74h-365v-268h2q65 66 173 66t174 -61q66 -60 65 -175
q0 -115 -82 -187q-82 -71 -213 -71t-223 69v66h45q56 -63 162 -63t162 50q55 50 55 134z" />
    <glyph glyph-name="seveneighths" unicode="&#x215e;" horiz-adv-x="1409" 
d="M143 670v39l328 645v4h-430v76h512v-82l-322 -682h-88zM1083 438q78 0 121 37t43 96t-43 95t-121 34q-79 0 -121 -34t-42 -94t42 -97t121 -37zM1084 61q95 0 146 43q50 43 50 113t-50 112t-146 42t-144 -42q-49 -42 -49 -112t49 -113t144 -43zM1370 211q0 -97 -76 -157
t-210 -60t-210 59t-75 158q0 143 159 195v4q-123 37 -122 168q0 88 67 140t179 52t182 -53t69 -139q0 -119 -121 -168v-4q158 -45 158 -195zM1169 1493l-1009 -1563h-99l1010 1563h98z" />
    <glyph glyph-name="minus" unicode="&#x2212;" horiz-adv-x="952" 
d="M887 662h-819v92h819v-92z" />
    <glyph glyph-name="fi" unicode="&#xfb01;" horiz-adv-x="958" 
d="M756 1231q-29 0 -49 20t-21 49q0 30 20 50t50 20q29 0 49 -20t20 -50t-20 -49q-20 -20 -49 -20zM805 0h-103v1067h33q47 0 59 -18t11 -93v-956zM25 989v78h141v107q0 134 68 200t182 66q57 0 110 -13v-71h-86q-88 0 -130 -41t-42 -148v-100h258v-78h-258v-989h-102v989
h-141z" />
    <glyph glyph-name="fl" unicode="&#xfb02;" horiz-adv-x="952" 
d="M803 0h-103v1434h37q45 0 55 -16t11 -83v-1335zM25 989v78h141v107q0 134 68 200t182 66q57 0 110 -13v-71h-86q-88 0 -130 -41t-42 -148v-100h258v-78h-258v-989h-102v989h-141z" />
    <glyph glyph-name="space_uni0326" 
d="M412 -236q0 17 -8 23l-16 12q-40 27 -40 61t20 52t52 18q78 0 78 -102q0 -153 -156 -184v61q70 16 70 59z" />
    <glyph glyph-name="zero.numerator" horiz-adv-x="765" 
d="M383 737q106 0 170 78q63 78 63 235q0 156 -64 236t-170 80q-104 0 -168 -79t-64 -237t64 -235q64 -78 169 -78zM383 664q-141 0 -237 101q-95 101 -95 287t95 287q94 101 236 101t238 -100t95 -287q0 -186 -95 -288q-96 -101 -237 -101z" />
    <glyph glyph-name="one.numerator" horiz-adv-x="442" 
d="M313 670h-96v663l-166 -92h-28v68l223 125h67v-764z" />
    <glyph glyph-name="two.numerator" horiz-adv-x="587" 
d="M545 748v-78h-504v78l233 213q96 90 135 145q37 55 37 120q0 64 -40 102t-129 38q-90 0 -171 -76h-43v64q97 86 223 86t192 -58t67 -143q0 -86 -49 -156t-160 -170l-180 -165h389z" />
    <glyph glyph-name="three.numerator" horiz-adv-x="569" 
d="M245 664q-136 0 -225 75v64h43q71 -66 173 -66q200 0 200 156q0 71 -52 105t-128 34h-76v68h70q78 0 124 36t46 101q0 129 -160 129q-104 0 -172 -59h-43v61q96 72 216 72q121 0 185 -50t64 -145q0 -127 -133 -172v-4q152 -37 151 -182q0 -106 -73 -165q-74 -58 -210 -58
z" />
    <glyph glyph-name="four.numerator" horiz-adv-x="669" 
d="M121 928h309v383h-4l-305 -379v-4zM520 670h-90v188h-391v78l393 498h88v-506h111v-70h-111v-188z" />
    <glyph glyph-name="five.numerator" horiz-adv-x="604" 
d="M553 922q0 -115 -82 -187q-82 -71 -213 -71t-223 69v66h45q56 -63 162 -63t161 50t55 134t-43 126q-44 42 -128 42t-158 -74h-63v420h438v-74h-365v-268h2q66 66 173 66t173 -61q66 -60 66 -175z" />
    <glyph glyph-name="six.numerator" horiz-adv-x="671" 
d="M352 1071q-125 0 -205 -88q18 -248 205 -248q84 0 132 46t48 130q0 160 -180 160zM348 664q-127 0 -212 92t-85 281q1 189 103 295t266 108q94 0 168 -39v-72h-43q-43 35 -127 35q-123 0 -197 -80t-76 -231q92 88 217 88q125 -1 195 -57t70 -171t-76 -182t-203 -67z" />
    <glyph glyph-name="seven.numerator" horiz-adv-x="587" 
d="M143 670v39l328 645v4h-430v76h512v-82l-322 -682h-88z" />
    <glyph glyph-name="eight.numerator" horiz-adv-x="649" 
d="M324 1110q78 0 120 36t43 95q0 59 -43 95q-42 36 -120 36t-121 -36t-43 -95t43 -95t121 -36zM520 887q0 71 -50 113t-145 42t-145 -43t-49 -113q-1 -70 49 -112q50 -43 145 -43t145 43t50 113zM199 1081q-123 35 -123 179q0 74 67 128q68 52 180 52q111 0 181 -52
t69 -139q0 -119 -120 -168v-4q158 -47 157 -194q0 -100 -75 -160q-76 -59 -210 -59t-210 59t-76 160q0 143 160 194v4z" />
    <glyph glyph-name="nine.numerator" horiz-adv-x="669" 
d="M317 1032q131 0 209 88q-8 132 -65 192t-141 60t-134 -45q-49 -45 -49 -131t50 -125t130 -39zM47 1194q1 114 75 180t201 66t213 -92t85 -283t-95 -296t-272 -105q-111 0 -174 43v69h41q55 -37 133 -37q262 0 274 308q-88 -84 -212 -84t-197 58q-72 58 -72 173z" />
    <glyph glyph-name="zero.denominator" horiz-adv-x="765" 
d="M383 68q106 0 170 77q63 78 63 235q0 156 -64 236t-170 80q-104 0 -168 -79t-64 -237t63 -236q64 -76 170 -76zM383 -6q-141 0 -237 100q-95 100 -95 288t95 288q94 100 236 100t238 -100t95 -286q0 -186 -95 -289q-96 -101 -237 -101z" />
    <glyph glyph-name="one.denominator" horiz-adv-x="442" 
d="M313 0h-96v664l-166 -93h-28v68l223 125h67v-764z" />
    <glyph glyph-name="two.denominator" horiz-adv-x="587" 
d="M545 78v-78h-504v78l233 213q96 90 135 145q37 55 37 120q0 64 -40 102t-129 38q-90 0 -171 -75h-43v61q97 88 223 88t192 -57t67 -145q0 -88 -49 -156t-160 -170l-180 -164h389z" />
    <glyph glyph-name="three.denominator" horiz-adv-x="569" 
d="M246 -6q-135 0 -226 74v65h43q67 -65 171 -65t153 41t49 113t-52 107q-52 34 -128 33h-76v66h70q78 0 124 37t46 102q0 129 -160 129q-104 0 -172 -59h-43v61q96 72 216 72q121 0 185 -50t64 -145q0 -127 -133 -172v-4q152 -37 151 -182q0 -106 -73 -165
q-74 -58 -209 -58z" />
    <glyph glyph-name="four.denominator" horiz-adv-x="669" 
d="M121 258h309v383h-4l-305 -379v-4zM520 0h-90v188h-391v78l393 498h88v-506h111v-70h-111v-188z" />
    <glyph glyph-name="five.denominator" horiz-adv-x="604" 
d="M553 251q0 -113 -82 -185t-211 -72t-225 67v68h45q56 -63 162 -63t161 51t55 134t-43 125q-44 42 -128 42t-158 -74h-63v420h438v-74h-365v-270h2q61 66 171 66t175 -61q66 -60 66 -174z" />
    <glyph glyph-name="six.denominator" horiz-adv-x="671" 
d="M352 401q-121 0 -205 -88q9 -131 65 -190t139 -59t132 46t49 130q0 161 -180 161zM627 243q0 -113 -76 -181t-202 -68t-212 92t-86 280q1 188 103 297q102 108 266 107q94 0 168 -39v-72h-43q-43 35 -127 35q-123 0 -196 -79t-77 -232q92 88 236 88q104 0 175 -57
t71 -171z" />
    <glyph glyph-name="seven.denominator" horiz-adv-x="587" 
d="M143 0v39l328 643v4h-430v78h512v-82l-322 -682h-88z" />
    <glyph glyph-name="eight.denominator" horiz-adv-x="649" 
d="M324 438q78 0 120 37t43 96q0 59 -43 95q-42 36 -120 34q-78 0 -121 -34t-43 -94t43 -97t121 -37zM131 217q-1 -70 49 -113t145 -43t145 43t50 113t-50 112t-145 42t-145 -42t-49 -112zM325 -6q-134 0 -210 59t-76 158q0 143 160 195v4q-123 37 -123 168q0 88 67 140
q68 52 180 52q111 0 181 -53t69 -139q0 -119 -120 -168v-4q158 -45 157 -195q0 -98 -75 -158q-76 -59 -210 -59z" />
    <glyph glyph-name="nine.denominator" horiz-adv-x="669" 
d="M317 362q133 0 209 87q-8 133 -65 192t-141 59t-134 -44q-49 -44 -49 -130t50 -125t130 -39zM47 524q1 114 75 180t201 66t213 -92t85 -283t-95 -296t-272 -105q-111 0 -174 43v69h41q55 -37 133 -36q262 0 274 307q-88 -84 -212 -84t-197 58q-72 58 -72 173z" />
    <glyph glyph-name="Q.alt" horiz-adv-x="1466" 
d="M728 78q234 0 383 167t149 471t-148 472t-383 168q-234 0 -382 -168t-148 -473t148 -471q147 -166 381 -166zM86 717q0 341 184 533t460 192t458 -193q184 -193 184 -532q0 -279 -120 -451t-306 -221v-2q350 -29 498 -244v-49h-103q-72 119 -217 172q-146 54 -372 66
t-363 98q-303 195 -303 631z" />
    <glyph glyph-name="Q.alt1" horiz-adv-x="1466" 
d="M716 78q222 0 349 115l-244 198v53h82l227 -184q130 170 130 466t-148 463t-382 167q-235 0 -383 -167t-148 -474t148 -472q147 -165 369 -165zM731 -8q-276 0 -461 192q-184 193 -184 533q0 341 184 533t460 192t458 -193q184 -193 184 -520t-170 -528l178 -144v-57h-82
l-161 133q-173 -141 -406 -141z" />
    <glyph glyph-name="f.short" horiz-adv-x="538" 
d="M25 989v78h141v107q0 134 68 200t182 66q57 0 110 -13v-71h-86q-88 0 -130 -41t-42 -148v-100h258v-78h-258v-989h-102v989h-141z" />
    <glyph glyph-name="f_f.short" horiz-adv-x="1062" 
d="M268 989v-989h-102v989h-141v78h141v94q0 133 68 200q69 67 182 66q78 0 131 -12v-72h-107q-88 -1 -130 -41t-42 -147v-88h422v107q0 134 69 200t181 66q57 0 111 -13v-71h-86q-88 0 -130 -41t-42 -148v-100h258v-78h-258v-989h-103v989h-422z" />
    <glyph glyph-name="less.cap" horiz-adv-x="913" 
d="M842 1434v-48l-670 -665v-6l670 -670v-45h-84l-690 682v70l690 682h84z" />
    <glyph glyph-name="greater.cap" horiz-adv-x="913" 
d="M72 0v45l671 672v4l-671 665v48h84l690 -680v-70l-690 -684h-84z" />
    <glyph glyph-name="questiondown.cap" horiz-adv-x="880" 
d="M534 1442q34 0 56 -23t22 -55t-22 -56q-22 -22 -56 -22q-32 0 -56 23t-24 55t24 56q22 22 56 22zM444 80q217 0 310 121h53v-86q-135 -123 -367 -123q-174 0 -272 83t-98 242q0 68 36 162q10 27 50 73q39 46 49 58t68 68t65 61q98 96 136 175t24 225h86q23 -156 -21 -255
t-216 -260q-50 -48 -66 -68q-17 -20 -49 -66q-54 -75 -54 -182q0 -108 69 -168t197 -60z" />
    <glyph glyph-name="exclamdown.cap" horiz-adv-x="464" 
d="M233 1286q-33 0 -57 23t-22 55q0 32 22 56q22 22 56 22t57 -23t23 -55t-24 -56q-22 -22 -55 -22zM287 0h-111v74l12 1065h86l13 -1065v-74z" />
    <glyph glyph-name="bullet.cap" horiz-adv-x="610" 
d="M305 438q-102 0 -171 64q-68 64 -68 171t68 173t171 66q102 0 171 -66t69 -173t-69 -171t-171 -64z" />
    <glyph glyph-name="hyphen.cap" horiz-adv-x="491" 
d="M49 641v96h395v-96h-395z" />
    <glyph glyph-name="endash.cap" horiz-adv-x="798" 
d="M53 643v90h692v-90h-692z" />
    <glyph glyph-name="emdash.cap" horiz-adv-x="1341" 
d="M53 643v90h1235v-90h-1235z" />
    <glyph glyph-name="dagger.cap" horiz-adv-x="858" 
d="M61 936v98h115l221 -18l-20 182v236h106v-236l-18 -182l219 18h115v-98h-115l-219 20l20 -211v-153l-14 -592h-82l-14 592v153l22 211l-221 -20h-115z" />
    <glyph glyph-name="daggerdbl.cap" horiz-adv-x="858" 
d="M61 954v99h115l221 -19l-20 183v217h108v-217l-20 -183l219 19h115v-99h-115l-219 21l22 -207v-102l-24 -207l221 20h115v-98h-115l-221 18l22 -182v-217h-108v217l18 182l-219 -18h-115v98h115l219 -20l-20 207v102l22 207l-221 -21h-115z" />
    <glyph glyph-name="quoteleft.cap" horiz-adv-x="1038" 
d="M969 368q0 -154 -110 -266q-111 -110 -313 -110t-339 146t-137 425q0 377 234 608t650 263v-86q-311 -33 -485 -173t-174 -307q0 -110 88 -135q64 -18 158 -21q93 -3 129 -7q131 -11 215 -97t84 -240z" />
    <glyph glyph-name="quoteright.cap" horiz-adv-x="1040" 
d="M70 1066q0 156 110 266t312 110t340 -146t139 -426q-1 -377 -235 -608t-650 -262v86q309 35 482 175t173 304q0 110 -86 136q-59 18 -154 21t-130 7q-133 12 -217 97t-84 240z" />
    <glyph glyph-name="quotedblleft.cap" horiz-adv-x="2025" 
d="M1956 368q0 -154 -110 -266q-110 -110 -312 -110t-340 146q-137 146 -137 425q0 377 234 608t651 263v-86q-310 -33 -484 -174t-174 -306q0 -109 88 -136q56 -17 153 -20t132 -7q133 -11 216 -97t83 -240zM969 368q0 -154 -110 -266q-111 -110 -313 -110t-339 146
t-137 425q0 377 234 608t650 263v-86q-311 -33 -485 -173t-174 -307q0 -110 88 -135q64 -18 158 -21q93 -3 129 -7q131 -11 215 -97t84 -240z" />
    <glyph glyph-name="quotedblright.cap" horiz-adv-x="2027" 
d="M70 1066q0 156 110 266t312 110t340 -146t139 -426q-1 -377 -235 -608t-650 -262v86q309 35 482 175t173 304q0 110 -86 136q-59 18 -154 21t-130 7q-133 12 -217 97t-84 240zM1057 1066q-1 156 109 266t312 110t342 -146q138 -146 138 -426q0 -377 -234 -608t-651 -262
v86q311 35 485 175q173 140 173 304q0 108 -87 134q-69 20 -160 23t-126 7q-133 12 -217 97t-84 240z" />
    <glyph glyph-name="guillemotleft.cap" horiz-adv-x="1255" 
d="M748 1434v-48l-578 -665v-6l578 -670v-45h-82l-598 682v70l598 682h82zM1182 1434v-48l-580 -665v-6l580 -670v-45h-84l-598 682v70l598 682h84z" />
    <glyph glyph-name="guillemotright.cap" horiz-adv-x="1255" 
d="M506 0v45l579 672v4l-579 665v48h84l598 -680v-70l-598 -684h-84zM72 0v45l579 672v4l-579 665v48h86l596 -680v-70l-596 -684h-86z" />
    <glyph glyph-name="at.cap" horiz-adv-x="1726" 
d="M948 1018q-154 0 -262 -132t-108 -300t158 -168q77 0 146 46t144 132l86 371q-70 51 -164 51zM855 -43q-314 0 -533 170q-109 84 -171 224q-63 141 -63 323t75 338q136 283 461 404q144 54 291 54q311 0 518 -168q206 -169 205 -460q0 -126 -39 -226t-102 -157
q-129 -117 -287 -117q-102 0 -147 44t-45 114q-141 -162 -313 -162q-96 0 -160 62q-63 62 -64 184q0 194 136 354t325 160q125 0 197 -68q23 63 67 64h33l-121 -523q-39 -154 101 -153q133 0 233 103t100 321q0 256 -176 404t-458 148t-500 -182q-106 -88 -171 -229
t-65 -311q0 -319 186 -478t494 -159q309 0 486 139h43v-70q-91 -66 -235 -106t-301 -41z" />
    <glyph glyph-name="paragraph.cap" horiz-adv-x="1122" 
d="M582 0v692h-33q-351 0 -444 191q-35 73 -35 181q1 220 135 294t356 76h387v-1434h-94v1343h-178v-1343h-94z" />
    <glyph glyph-name="grave.cap" 
d="M471 1481h-61l-158 184v39h102l117 -193v-30z" />
    <glyph glyph-name="dieresis.cap" 
d="M569 1501q-29 1 -48 21t-19 49t20 49t48 20t48 -20t20 -49t-20 -49t-49 -21zM276 1501q-29 1 -49 21t-20 49t20 49t49 20q30 0 50 -20t20 -49t-20 -49t-50 -21z" />
    <glyph glyph-name="macron.cap" 
d="M659 1616v-80h-471v80h471z" />
    <glyph glyph-name="acute.cap" 
d="M377 1481v30l121 193h98v-39l-156 -184h-63z" />
    <glyph glyph-name="circumflex.cap" 
d="M203 1481v37l182 188h82l178 -188v-37h-61l-162 143l-160 -143h-59z" />
    <glyph glyph-name="caron.cap" 
d="M645 1706v-37l-182 -188h-82l-178 188v37h59l162 -143l162 143h59z" />
    <glyph glyph-name="breve.cap" 
d="M424 1485q-92 0 -154 48q-61 48 -77 124v41h73q16 -129 158 -129t156 129h75v-41q-19 -76 -79 -124t-152 -48z" />
    <glyph glyph-name="dotaccent.cap" 
d="M426 1503q-29 1 -49 21t-21 49q0 29 20 49t50 20q29 0 49 -20q21 -20 21 -49t-20 -49t-50 -21z" />
    <glyph glyph-name="ring.cap" 
d="M424 1556q45 0 75 30t29 77q0 47 -30 78q-31 31 -75 31t-74 -31t-30 -79t30 -77t75 -29zM423 1489q-73 0 -126 48t-53 126t53 127t126 49t126 -49t53 -127t-53 -126t-126 -48z" />
    <glyph glyph-name="tilde.cap" 
d="M160 1499v39q12 57 51 95t93 38t125 -41t97 -41q70 0 84 86h70v-37q-12 -59 -50 -96t-94 -37t-126 40t-95 40q-74 0 -86 -86h-69z" />
    <glyph glyph-name="hungarumlaut.cap" 
d="M518 1481v26l84 197h90v-39l-110 -184h-64zM276 1481v26l84 197h91v-39l-111 -184h-64z" />
    </font>
</defs>
</svg>
