<svg xmlns="http://www.w3.org/2000/svg" viewBox="0 0 239.67 239.67"><path fill="none" stroke-width="7" stroke="#0066a1" stroke-linecap="round" stroke-miterlimit="10" d="M5 138.59a116.28 116.28 0 1 1 11.64 35"/><path fill="none" stroke-width="7" stroke="#0066a1" stroke-linecap="round" stroke-linejoin="round" d="M16.67 173.6h83.57s2-8.53 8.87-7.17l28-.34s6.48 1.71 5.46 7.51h12.62s1-14.33 14.33-29c0 0 5.8-11.94 5.12-21.5l2.73-2.73s2 7.31 7.51 5.87 2.73-16.79-2.39-16.79-1.71 3.07-4.44 3.07-4.78.34-6.48-3.07-8.82-20.58-27.24-19.22-39.89 7.59-50 .52c-4.43-3.08-8.38-12.37-12.12-11.67 0 0-6.82-2.73-7.17 11.94-.33 14.39 5.69 22-7.43 24.67-.45.09-6.9 2.42-6.9 8.57 0 7.51.34 15.55 4.44 16.57s14.33-1.71 17.06 7.51c.38 1.28.72 2.39 1 3.4"/><circle fill="#0066a1" cx="91.99" cy="107.3" r="4.42"/><path fill="none" stroke-width="7" stroke="#0066a1" stroke-linecap="round" stroke-miterlimit="10" d="M107.5 84.58a21.49 21.49 0 1 1 42.71-3.46"/></svg>