<?xml version="1.0" encoding="UTF-8" standalone="no"?>
<!DOCTYPE svg PUBLIC "-//W3C//DTD SVG 1.1//EN" "http://www.w3.org/Graphics/SVG/1.1/DTD/svg11.dtd">
<svg width="100%" height="100%" viewBox="0 0 36 30" version="1.1" xmlns="http://www.w3.org/2000/svg" xmlns:xlink="http://www.w3.org/1999/xlink" xml:space="preserve" xmlns:serif="http://www.serif.com/" style="fill-rule:evenodd;clip-rule:evenodd;stroke-linejoin:round;stroke-miterlimit:1.41421;">
    <g id="path38" transform="matrix(0.0869194,0,0,0.0869194,-8.62217,-21.5934)">
        <path d="M266.567,532.328L280.4,532.328C315.656,532.328 346.004,527.861 346.004,484.133C346.004,440.399 310.301,438.611 277.28,438.611L266.567,438.611L266.567,532.328ZM266.567,388.631L274.601,388.631C306.734,388.631 322.349,379.262 322.349,344.453C322.349,310.094 302.717,301.169 275.048,301.169L266.567,301.169L266.567,388.631ZM200.969,248.507L282.638,248.507C345.11,248.507 383.489,273.053 383.489,339.992C383.489,364.091 375.008,391.757 354.035,405.146C393.752,412.286 411.602,452.45 411.602,489.488C411.602,555.536 365.189,584.987 304.058,584.987L200.969,584.987L200.969,248.507" style="fill:rgb(133,133,133);fill-rule:nonzero;"/>
    </g>
</svg>
