<svg xmlns="http://www.w3.org/2000/svg" viewBox="0 0 36 29.26"><path fill="#FFF" d="M36 3.46a14.8 14.8 0 0 1-4.24 1.16A7.38 7.38 0 0 0 35 .54a14.73 14.73 0 0 1-4.69 1.79 7.39 7.39 0 0 0-12.77 5.06 7.28 7.28 0 0 0 .19 1.68A21 21 0 0 1 2.5 1.35a7.4 7.4 0 0 0 2.29 9.86 7.4 7.4 0 0 1-3.35-.92v.09a7.39 7.39 0 0 0 5.93 7.24 7.2 7.2 0 0 1-1.95.26A7.31 7.31 0 0 1 4 17.75a7.38 7.38 0 0 0 6.9 5.13A14.82 14.82 0 0 1 1.76 26 14.87 14.87 0 0 1 0 25.94a20.92 20.92 0 0 0 11.32 3.32c13.59 0 21-11.25 21-21v-1A15 15 0 0 0 36 3.46"/></svg>