<svg version="1.1" id="Calque_1" xmlns="http://www.w3.org/2000/svg" xmlns:xlink="http://www.w3.org/1999/xlink" x="0px" y="0px"
            viewBox="0 0 45 31.6" style="enable-background:new 0 0 45 31.6;" xml:space="preserve">
<style type="text/css">.st0{fill:#FFFFFF;}</style>
<path class="st0" d="M44.5,6.8c0,0-0.4-3.1-1.8-4.5c-1.2-1.2-2.8-1.9-4.5-1.9C32,0,22.5,0,22.5,0S13,0,6.8,0.5
            c-1.7,0-3.3,0.7-4.5,1.9C0.9,3.7,0.4,6.8,0.4,6.8C0.2,9.2,0,11.7,0,14.1v3.4c0,2.4,0.2,4.9,0.4,7.3c0,0,0.4,3.1,1.8,4.5
            c1.8,1.8,4,1.7,5,1.9c3.6,0.4,15.3,0.5,15.3,0.5s9.5,0,15.8-0.5c1.7,0,3.3-0.7,4.5-1.9c1.3-1.4,1.8-4.5,1.8-4.5
            c0.3-2.4,0.4-4.8,0.5-7.3v-3.4C45,11.7,44.8,9.2,44.5,6.8z M17.8,21.7V9L30,15.4L17.8,21.7z"/>
</svg>