<svg id="Calque_1" data-name="Calque 1" xmlns="http://www.w3.org/2000/svg" viewBox="0 0 45 31.65"><defs><style>.cls-1{fill:#858585;}</style></defs><title>icon-youtube-grey</title><path class="cls-1" d="M44.55,6.83s-0.44-3.1-1.79-4.47A6.44,6.44,0,0,0,38.25.46C32,0,22.51,0,22.51,0S13,0,6.75.46a6.44,6.44,0,0,0-4.51,1.9C0.89,3.73.45,6.83,0.45,6.83A68.06,68.06,0,0,0,0,14.11v3.41A68.06,68.06,0,0,0,.45,24.8s0.44,3.1,1.79,4.47c1.76,1.8,4,1.73,5,1.93,3.6,0.35,15.3.45,15.3,0.45s9.46,0,15.75-.47a6.44,6.44,0,0,0,4.51-1.91c1.35-1.37,1.79-4.47,1.79-4.47A68.16,68.16,0,0,0,45,17.53V14.11A68.16,68.16,0,0,0,44.55,6.83ZM17.85,21.66V9L30,15.36Z" transform="translate(0 0)"/></svg>