<?xml version="1.0" standalone="no"?>
<!DOCTYPE svg PUBLIC "-//W3C//DTD SVG 20010904//EN"
 "http://www.w3.org/TR/2001/REC-SVG-20010904/DTD/svg10.dtd">
<svg version="1.0" xmlns="http://www.w3.org/2000/svg"
 width="140.000000pt" height="140.000000pt" viewBox="0 0 140.000000 140.000000"
 preserveAspectRatio="xMidYMid meet">
<metadata>
Created by potrace 1.15, written by Peter Selinger 2001-2017
</metadata>
<g transform="translate(0.000000,140.000000) scale(0.100000,-0.100000)"
fill="#000000" stroke="none">
<path d="M555 1386 c-275 -63 -483 -273 -541 -546 -19 -90 -18 -149 2 -157 22
-8 34 14 34 67 0 68 25 155 72 250 57 118 160 221 278 278 111 55 184 72 300
72 181 0 334 -63 461 -189 126 -127 189 -280 189 -461 0 -116 -17 -189 -72
-300 -78 -160 -241 -289 -423 -335 -76 -19 -234 -19 -310 0 -87 22 -212 87
-274 142 -52 45 -141 156 -141 174 0 5 209 10 473 11 464 3 472 3 474 23 3 28
-160 309 -182 313 -11 3 -40 -19 -79 -57 l-61 -61 -110 110 c-60 61 -114 110
-119 110 -17 0 -206 -194 -206 -211 0 -41 27 -27 116 62 l94 94 108 -108 c59
-59 114 -107 123 -107 8 0 39 25 69 55 29 30 57 52 61 49 8 -5 129 -219 129
-228 0 -3 -213 -6 -474 -6 -310 0 -477 -4 -481 -10 -4 -6 7 -34 24 -63 93
-160 243 -278 426 -334 84 -25 286 -25 370 0 182 56 334 174 425 332 16 28 41
86 56 130 26 72 28 93 28 215 0 122 -2 143 -28 215 -77 222 -231 376 -451 451
-98 33 -264 42 -360 20z"/>
<path d="M851 1112 c-66 -36 -90 -125 -51 -189 54 -90 197 -81 237 14 49 118
-76 236 -186 175z m124 -57 c55 -55 17 -149 -61 -149 -78 0 -118 101 -59 151
36 31 88 31 120 -2z"/>
</g>
</svg>
